%TF.GenerationSoftware,KiCad,Pcbnew,5.1.10*%
%TF.CreationDate,2021-12-10T14:23:33+01:00*%
%TF.ProjectId,angle-sensor-board,616e676c-652d-4736-956e-736f722d626f,rev?*%
%TF.SameCoordinates,Original*%
%TF.FileFunction,Copper,L2,Bot*%
%TF.FilePolarity,Positive*%
%FSLAX46Y46*%
G04 Gerber Fmt 4.6, Leading zero omitted, Abs format (unit mm)*
G04 Created by KiCad (PCBNEW 5.1.10) date 2021-12-10 14:23:33*
%MOMM*%
%LPD*%
G01*
G04 APERTURE LIST*
%TA.AperFunction,ViaPad*%
%ADD10C,0.500000*%
%TD*%
%TA.AperFunction,Conductor*%
%ADD11C,0.300000*%
%TD*%
%TA.AperFunction,Conductor*%
%ADD12C,0.150000*%
%TD*%
%TA.AperFunction,Conductor*%
%ADD13C,0.200000*%
%TD*%
%TA.AperFunction,Conductor*%
%ADD14C,0.100000*%
%TD*%
%TA.AperFunction,Conductor*%
%ADD15C,0.025400*%
%TD*%
G04 APERTURE END LIST*
%TO.P,D1,1*%
%TO.N,Net-(D1-Pad1)*%
%TA.AperFunction,SMDPad,CuDef*%
G36*
G01*
X35075000Y-40462500D02*
X35075000Y-40037500D01*
G75*
G02*
X35287500Y-39825000I212500J0D01*
G01*
X36087500Y-39825000D01*
G75*
G02*
X36300000Y-40037500I0J-212500D01*
G01*
X36300000Y-40462500D01*
G75*
G02*
X36087500Y-40675000I-212500J0D01*
G01*
X35287500Y-40675000D01*
G75*
G02*
X35075000Y-40462500I0J212500D01*
G01*
G37*
%TD.AperFunction*%
%TO.P,D1,2*%
%TO.N,+3V3*%
%TA.AperFunction,SMDPad,CuDef*%
G36*
G01*
X36700000Y-40462500D02*
X36700000Y-40037500D01*
G75*
G02*
X36912500Y-39825000I212500J0D01*
G01*
X37712500Y-39825000D01*
G75*
G02*
X37925000Y-40037500I0J-212500D01*
G01*
X37925000Y-40462500D01*
G75*
G02*
X37712500Y-40675000I-212500J0D01*
G01*
X36912500Y-40675000D01*
G75*
G02*
X36700000Y-40462500I0J212500D01*
G01*
G37*
%TD.AperFunction*%
%TD*%
%TO.P,J1,1*%
%TO.N,/SCK*%
%TA.AperFunction,SMDPad,CuDef*%
G36*
G01*
X33600000Y-35500000D02*
X33600000Y-34300000D01*
G75*
G02*
X33800000Y-34100000I200000J0D01*
G01*
X34200000Y-34100000D01*
G75*
G02*
X34400000Y-34300000I0J-200000D01*
G01*
X34400000Y-35500000D01*
G75*
G02*
X34200000Y-35700000I-200000J0D01*
G01*
X33800000Y-35700000D01*
G75*
G02*
X33600000Y-35500000I0J200000D01*
G01*
G37*
%TD.AperFunction*%
%TO.P,J1,2*%
%TO.N,/SS*%
%TA.AperFunction,SMDPad,CuDef*%
G36*
G01*
X34850000Y-35500000D02*
X34850000Y-34300000D01*
G75*
G02*
X35050000Y-34100000I200000J0D01*
G01*
X35450000Y-34100000D01*
G75*
G02*
X35650000Y-34300000I0J-200000D01*
G01*
X35650000Y-35500000D01*
G75*
G02*
X35450000Y-35700000I-200000J0D01*
G01*
X35050000Y-35700000D01*
G75*
G02*
X34850000Y-35500000I0J200000D01*
G01*
G37*
%TD.AperFunction*%
%TO.P,J1,3*%
%TO.N,Net-(J1-Pad3)*%
%TA.AperFunction,SMDPad,CuDef*%
G36*
G01*
X36100000Y-35500000D02*
X36100000Y-34300000D01*
G75*
G02*
X36300000Y-34100000I200000J0D01*
G01*
X36700000Y-34100000D01*
G75*
G02*
X36900000Y-34300000I0J-200000D01*
G01*
X36900000Y-35500000D01*
G75*
G02*
X36700000Y-35700000I-200000J0D01*
G01*
X36300000Y-35700000D01*
G75*
G02*
X36100000Y-35500000I0J200000D01*
G01*
G37*
%TD.AperFunction*%
%TO.P,J1,4*%
%TO.N,+3V3*%
%TA.AperFunction,SMDPad,CuDef*%
G36*
G01*
X37350000Y-35500000D02*
X37350000Y-34300000D01*
G75*
G02*
X37550000Y-34100000I200000J0D01*
G01*
X37950000Y-34100000D01*
G75*
G02*
X38150000Y-34300000I0J-200000D01*
G01*
X38150000Y-35500000D01*
G75*
G02*
X37950000Y-35700000I-200000J0D01*
G01*
X37550000Y-35700000D01*
G75*
G02*
X37350000Y-35500000I0J200000D01*
G01*
G37*
%TD.AperFunction*%
%TO.P,J1,5*%
%TO.N,GND*%
%TA.AperFunction,SMDPad,CuDef*%
G36*
G01*
X38600000Y-35500000D02*
X38600000Y-34300000D01*
G75*
G02*
X38800000Y-34100000I200000J0D01*
G01*
X39200000Y-34100000D01*
G75*
G02*
X39400000Y-34300000I0J-200000D01*
G01*
X39400000Y-35500000D01*
G75*
G02*
X39200000Y-35700000I-200000J0D01*
G01*
X38800000Y-35700000D01*
G75*
G02*
X38600000Y-35500000I0J200000D01*
G01*
G37*
%TD.AperFunction*%
%TO.P,J1,MP*%
%TO.N,N/C*%
%TA.AperFunction,SMDPad,CuDef*%
G36*
G01*
X30400000Y-33250000D02*
X30400000Y-30750000D01*
G75*
G02*
X30650000Y-30500000I250000J0D01*
G01*
X32250000Y-30500000D01*
G75*
G02*
X32500000Y-30750000I0J-250000D01*
G01*
X32500000Y-33250000D01*
G75*
G02*
X32250000Y-33500000I-250000J0D01*
G01*
X30650000Y-33500000D01*
G75*
G02*
X30400000Y-33250000I0J250000D01*
G01*
G37*
%TD.AperFunction*%
%TA.AperFunction,SMDPad,CuDef*%
G36*
G01*
X40500000Y-33250000D02*
X40500000Y-30750000D01*
G75*
G02*
X40750000Y-30500000I250000J0D01*
G01*
X42350000Y-30500000D01*
G75*
G02*
X42600000Y-30750000I0J-250000D01*
G01*
X42600000Y-33250000D01*
G75*
G02*
X42350000Y-33500000I-250000J0D01*
G01*
X40750000Y-33500000D01*
G75*
G02*
X40500000Y-33250000I0J250000D01*
G01*
G37*
%TD.AperFunction*%
%TD*%
%TO.P,R2,2*%
%TO.N,GND*%
%TA.AperFunction,SMDPad,CuDef*%
G36*
G01*
X32075000Y-40012500D02*
X32075000Y-40487500D01*
G75*
G02*
X31837500Y-40725000I-237500J0D01*
G01*
X31337500Y-40725000D01*
G75*
G02*
X31100000Y-40487500I0J237500D01*
G01*
X31100000Y-40012500D01*
G75*
G02*
X31337500Y-39775000I237500J0D01*
G01*
X31837500Y-39775000D01*
G75*
G02*
X32075000Y-40012500I0J-237500D01*
G01*
G37*
%TD.AperFunction*%
%TO.P,R2,1*%
%TO.N,Net-(D1-Pad1)*%
%TA.AperFunction,SMDPad,CuDef*%
G36*
G01*
X33900000Y-40012500D02*
X33900000Y-40487500D01*
G75*
G02*
X33662500Y-40725000I-237500J0D01*
G01*
X33162500Y-40725000D01*
G75*
G02*
X32925000Y-40487500I0J237500D01*
G01*
X32925000Y-40012500D01*
G75*
G02*
X33162500Y-39775000I237500J0D01*
G01*
X33662500Y-39775000D01*
G75*
G02*
X33900000Y-40012500I0J-237500D01*
G01*
G37*
%TD.AperFunction*%
%TD*%
%TO.P,R3,1*%
%TO.N,/MISO*%
%TA.AperFunction,SMDPad,CuDef*%
G36*
G01*
X35000000Y-38037500D02*
X35000000Y-37562500D01*
G75*
G02*
X35237500Y-37325000I237500J0D01*
G01*
X35737500Y-37325000D01*
G75*
G02*
X35975000Y-37562500I0J-237500D01*
G01*
X35975000Y-38037500D01*
G75*
G02*
X35737500Y-38275000I-237500J0D01*
G01*
X35237500Y-38275000D01*
G75*
G02*
X35000000Y-38037500I0J237500D01*
G01*
G37*
%TD.AperFunction*%
%TO.P,R3,2*%
%TO.N,Net-(J1-Pad3)*%
%TA.AperFunction,SMDPad,CuDef*%
G36*
G01*
X36825000Y-38037500D02*
X36825000Y-37562500D01*
G75*
G02*
X37062500Y-37325000I237500J0D01*
G01*
X37562500Y-37325000D01*
G75*
G02*
X37800000Y-37562500I0J-237500D01*
G01*
X37800000Y-38037500D01*
G75*
G02*
X37562500Y-38275000I-237500J0D01*
G01*
X37062500Y-38275000D01*
G75*
G02*
X36825000Y-38037500I0J237500D01*
G01*
G37*
%TD.AperFunction*%
%TD*%
D10*
%TO.N,GND*%
X39035876Y-33400000D03*
X37500000Y-32500000D03*
X30450000Y-38400000D03*
%TO.N,+3V3*%
X39200000Y-31000000D03*
X41000000Y-37800000D03*
X35200000Y-31000000D03*
X31900000Y-37500000D03*
%TO.N,/SCK*%
X33275021Y-35800000D03*
%TO.N,/SS*%
X33275021Y-36800000D03*
%TO.N,/MISO*%
X33750000Y-37850000D03*
%TD*%
D11*
%TO.N,GND*%
X39004682Y-33441856D02*
X39020203Y-33493022D01*
X39035876Y-34841763D02*
X39035285Y-34847752D01*
X39030635Y-33545463D02*
X39035876Y-33598674D01*
X38959016Y-33345304D02*
X38984221Y-33392458D01*
X38092103Y-32507373D02*
X38116179Y-32514676D01*
X38067426Y-32502465D02*
X38042388Y-32500000D01*
D12*
X30891857Y-40218805D02*
X30943023Y-40234326D01*
X30450000Y-39651324D02*
X30455240Y-39704535D01*
D11*
X38895390Y-33259514D02*
X38929310Y-33300846D01*
X38139423Y-32524304D02*
X38161612Y-32536164D01*
X39030061Y-34864972D02*
X39027225Y-34870278D01*
X38220806Y-32584930D02*
X38239185Y-32603309D01*
D12*
X30465671Y-39756975D02*
X30481191Y-39808141D01*
X30795303Y-40173139D02*
X30842458Y-40198344D01*
X30709514Y-40109514D02*
X30750846Y-40143434D01*
D11*
X39034111Y-34853653D02*
X39032365Y-34859412D01*
D12*
X30501653Y-39857540D02*
X30526858Y-39904695D01*
X30556563Y-39949151D02*
X30590483Y-39990483D01*
D11*
X38332751Y-32696875D02*
X38351501Y-32715625D01*
X39023882Y-34875281D02*
X39020065Y-34879932D01*
X38257565Y-32621689D02*
X38275944Y-32640068D01*
X38182530Y-32550142D02*
X38201979Y-32566103D01*
D12*
X30995463Y-40244758D02*
X31048674Y-40250000D01*
D11*
X38295251Y-32659375D02*
X38314001Y-32678125D01*
X39035285Y-34847752D02*
X39034111Y-34853653D01*
D12*
X30943023Y-40234326D02*
X30995463Y-40244758D01*
X30795303Y-40173139D02*
X30750846Y-40143434D01*
D11*
X38092103Y-32507373D02*
X38067426Y-32502465D01*
D12*
X30526858Y-39904695D02*
X30556563Y-39949151D01*
D11*
X38959016Y-33345304D02*
X38929310Y-33300846D01*
X38161612Y-32536164D02*
X38182530Y-32550142D01*
X39020203Y-33493022D02*
X39030635Y-33545463D01*
X38239185Y-32603309D02*
X38257565Y-32621689D01*
D12*
X30455240Y-39704535D02*
X30465671Y-39756975D01*
D11*
X39027225Y-34870278D02*
X39023882Y-34875281D01*
X38332751Y-32696875D02*
X38314001Y-32678125D01*
X39004682Y-33441856D02*
X38984221Y-33392458D01*
D12*
X30891857Y-40218805D02*
X30842458Y-40198344D01*
X30481191Y-39808141D02*
X30501653Y-39857540D01*
D11*
X39030061Y-34864972D02*
X39032365Y-34859412D01*
X38116179Y-32514676D02*
X38139423Y-32524304D01*
X38275944Y-32640068D02*
X38295251Y-32659375D01*
X38220806Y-32584930D02*
X38201979Y-32566103D01*
X38042388Y-32500000D02*
X37500000Y-32500000D01*
X39020065Y-34879932D02*
X39000000Y-34900000D01*
X39035876Y-34841763D02*
X39035876Y-33598674D01*
X38895390Y-33259514D02*
X38351501Y-32715625D01*
D12*
X31048674Y-40250000D02*
X31587500Y-40250000D01*
X30450000Y-39651324D02*
X30450000Y-38400000D01*
X30709514Y-40109514D02*
X30590483Y-39990483D01*
%TO.N,+3V3*%
X38459514Y-36759514D02*
X38493434Y-36800846D01*
X38584327Y-39706975D02*
X38568806Y-39758141D01*
X38108141Y-40218806D02*
X38056975Y-40234327D01*
X38548344Y-39807540D02*
X38523139Y-39854694D01*
X37750000Y-35851324D02*
X37755240Y-35904535D01*
X38290483Y-40109514D02*
X38249151Y-40143434D01*
X38600000Y-39601324D02*
X38594759Y-39654535D01*
X38594758Y-37045463D02*
X38600000Y-37098674D01*
X37801653Y-36057540D02*
X37826858Y-36104695D01*
X38523139Y-36845303D02*
X38548344Y-36892458D01*
X38493434Y-39899151D02*
X38459514Y-39940483D01*
X38204695Y-40173139D02*
X38157540Y-40198344D01*
X38568805Y-36941857D02*
X38584327Y-36993023D01*
X38004535Y-40244759D02*
X37951324Y-40250000D01*
X37856563Y-36149151D02*
X37890483Y-36190483D01*
X37765671Y-35956975D02*
X37781192Y-36008141D01*
X38249151Y-40143434D02*
X38204695Y-40173139D01*
X38523139Y-39854694D02*
X38493434Y-39899151D01*
X38056975Y-40234327D02*
X38004535Y-40244759D01*
X38594758Y-37045463D02*
X38584327Y-36993023D01*
X38584327Y-39706975D02*
X38594759Y-39654535D01*
X37826858Y-36104695D02*
X37856563Y-36149151D01*
X37755240Y-35904535D02*
X37765671Y-35956975D01*
X38493434Y-36800846D02*
X38523139Y-36845303D01*
X38108141Y-40218806D02*
X38157540Y-40198344D01*
X38568806Y-39758141D02*
X38548344Y-39807540D01*
X38548344Y-36892458D02*
X38568805Y-36941857D01*
X37801653Y-36057540D02*
X37781192Y-36008141D01*
X37750000Y-35851324D02*
X37750000Y-34900000D01*
X38600000Y-39601324D02*
X38600000Y-37098674D01*
X38459514Y-36759514D02*
X37890483Y-36190483D01*
X38290483Y-40109514D02*
X38459514Y-39940483D01*
X37951324Y-40250000D02*
X37312500Y-40250000D01*
%TO.N,Net-(D1-Pad1)*%
X35687500Y-40250000D02*
X33412500Y-40250000D01*
%TO.N,/SCK*%
X33275021Y-35646856D02*
X33275021Y-35646856D01*
X33371877Y-34903685D02*
X33359843Y-34907335D01*
X33396728Y-34900000D02*
X33384212Y-34901232D01*
X33348225Y-34912148D02*
X33337134Y-34918076D01*
X33308062Y-34941935D02*
X33300084Y-34951656D01*
X33326677Y-34925063D02*
X33316956Y-34933041D01*
X33293098Y-34962113D02*
X33287169Y-34973204D01*
X33282357Y-34984822D02*
X33278706Y-34996856D01*
X33276253Y-35009191D02*
X33275021Y-35021707D01*
X33278706Y-34996856D02*
X33276253Y-35009191D01*
X33371877Y-34903685D02*
X33384212Y-34901232D01*
X33275021Y-35668734D02*
X33275021Y-35668734D01*
X33300084Y-34951656D02*
X33293098Y-34962113D01*
X33337134Y-34918076D02*
X33326677Y-34925063D01*
X33359843Y-34907335D02*
X33348225Y-34912148D01*
X33287169Y-34973204D02*
X33282357Y-34984822D01*
X33275021Y-35712489D02*
X33275021Y-35712489D01*
X33275021Y-35646856D02*
X33275021Y-35624979D01*
X33396728Y-34900000D02*
X34000000Y-34900000D01*
X33275021Y-35646856D02*
X33275021Y-35021707D01*
X33308062Y-34941935D02*
X33316956Y-34933041D01*
%TO.N,/SS*%
X35250000Y-36394188D02*
X35245889Y-36435918D01*
X34967171Y-36775535D02*
X34927045Y-36787708D01*
X35166426Y-36627758D02*
X35139824Y-36660172D01*
X35237709Y-36477045D02*
X35225536Y-36517171D01*
X34885918Y-36795889D02*
X34844188Y-36800000D01*
X35209489Y-36555913D02*
X35189722Y-36592893D01*
X35110173Y-36689824D02*
X35077758Y-36716425D01*
X35042893Y-36739722D02*
X35005913Y-36759489D01*
X34927045Y-36787708D02*
X34885918Y-36795889D01*
X35077758Y-36716425D02*
X35042893Y-36739722D01*
X35166426Y-36627758D02*
X35189722Y-36592893D01*
X35245889Y-36435918D02*
X35237709Y-36477045D01*
X34967171Y-36775535D02*
X35005913Y-36759489D01*
X35225536Y-36517171D02*
X35209489Y-36555913D01*
X34844188Y-36800000D02*
X33275021Y-36800000D01*
X35139824Y-36660172D02*
X35110173Y-36689824D01*
X35250000Y-36394188D02*
X35250000Y-34900000D01*
%TO.N,/MISO*%
X35414682Y-37849177D02*
X35406336Y-37850000D01*
X35459534Y-37827964D02*
X35453051Y-37833284D01*
X35430933Y-37845106D02*
X35422908Y-37847541D01*
X35446077Y-37837944D02*
X35438681Y-37841897D01*
X35453051Y-37833284D02*
X35446077Y-37837944D01*
X35414682Y-37849177D02*
X35422908Y-37847541D01*
X35430933Y-37845106D02*
X35438681Y-37841897D01*
X35459534Y-37827964D02*
X35487500Y-37800000D01*
X35406336Y-37850000D02*
X33750000Y-37850000D01*
%TO.N,Net-(J1-Pad3)*%
X37235639Y-36957803D02*
X37260844Y-37004958D01*
X36606563Y-36299152D02*
X36640483Y-36340483D01*
X36515671Y-36106975D02*
X36531191Y-36158141D01*
X37307258Y-37157963D02*
X37312500Y-37211174D01*
X36500000Y-36001324D02*
X36505240Y-36054535D01*
X37172014Y-36872014D02*
X37205934Y-36913346D01*
X37281305Y-37054357D02*
X37296827Y-37105523D01*
X36551653Y-36207540D02*
X36576858Y-36254695D01*
X36606563Y-36299152D02*
X36576858Y-36254695D01*
X37307258Y-37157963D02*
X37296827Y-37105523D01*
X37235639Y-36957803D02*
X37205934Y-36913346D01*
X36515671Y-36106975D02*
X36505240Y-36054535D01*
X36531191Y-36158141D02*
X36551653Y-36207540D01*
X37260844Y-37004958D02*
X37281305Y-37054357D01*
X37312500Y-37211174D02*
X37312500Y-37800000D01*
X36500000Y-36001324D02*
X36500000Y-34900000D01*
X36640483Y-36340483D02*
X37172014Y-36872014D01*
%TD*%
D13*
%TO.N,+3V3*%
X39889059Y-30750000D02*
X39889059Y-33250000D01*
X39905602Y-33417961D01*
X39954594Y-33579468D01*
X40034154Y-33728313D01*
X40141223Y-33858777D01*
X40271687Y-33965846D01*
X40420532Y-34045406D01*
X40582039Y-34094398D01*
X40750000Y-34110941D01*
X42004556Y-34110941D01*
X41911214Y-34173310D01*
X41673310Y-34411214D01*
X41486390Y-34690959D01*
X41357638Y-35001795D01*
X41292000Y-35331777D01*
X41292000Y-35668223D01*
X41357638Y-35998205D01*
X41486390Y-36309041D01*
X41673310Y-36588786D01*
X41911214Y-36826690D01*
X42190959Y-37013610D01*
X42367001Y-37086529D01*
X42367001Y-40367000D01*
X38493000Y-40367000D01*
X38381000Y-40255000D01*
X37317500Y-40255000D01*
X37317500Y-40275000D01*
X37307500Y-40275000D01*
X37307500Y-40255000D01*
X37287500Y-40255000D01*
X37287500Y-40245000D01*
X37307500Y-40245000D01*
X37307500Y-39369000D01*
X37317500Y-39369000D01*
X37317500Y-40245000D01*
X38381000Y-40245000D01*
X38533000Y-40093000D01*
X38535942Y-39825000D01*
X38524203Y-39705811D01*
X38489437Y-39591203D01*
X38432980Y-39485579D01*
X38357001Y-39392999D01*
X38264421Y-39317020D01*
X38158797Y-39260563D01*
X38044189Y-39225797D01*
X37925000Y-39214058D01*
X37469500Y-39217000D01*
X37317500Y-39369000D01*
X37307500Y-39369000D01*
X37155500Y-39217000D01*
X36700000Y-39214058D01*
X36580811Y-39225797D01*
X36466203Y-39260563D01*
X36419277Y-39285645D01*
X36402617Y-39276740D01*
X36248145Y-39229881D01*
X36087500Y-39214059D01*
X35287500Y-39214059D01*
X35126855Y-39229881D01*
X34972383Y-39276740D01*
X34830021Y-39352834D01*
X34705239Y-39455239D01*
X34613520Y-39567000D01*
X34381780Y-39567000D01*
X34367953Y-39541131D01*
X34262438Y-39412562D01*
X34133869Y-39307047D01*
X33987184Y-39228643D01*
X33828023Y-39180362D01*
X33662500Y-39164059D01*
X33162500Y-39164059D01*
X32996977Y-39180362D01*
X32837816Y-39228643D01*
X32691131Y-39307047D01*
X32562562Y-39412562D01*
X32500000Y-39488793D01*
X32437438Y-39412562D01*
X32308869Y-39307047D01*
X32162184Y-39228643D01*
X32003023Y-39180362D01*
X31837500Y-39164059D01*
X31337500Y-39164059D01*
X31171977Y-39180362D01*
X31133000Y-39192186D01*
X31133000Y-38931433D01*
X31140184Y-38920353D01*
X31151843Y-38901636D01*
X31174029Y-38864535D01*
X31187076Y-38841246D01*
X31210349Y-38806415D01*
X31275027Y-38650269D01*
X31308000Y-38484506D01*
X31308000Y-38315494D01*
X31275027Y-38149731D01*
X31210349Y-37993585D01*
X31116452Y-37853057D01*
X30996943Y-37733548D01*
X30856415Y-37639651D01*
X30700269Y-37574973D01*
X30633000Y-37561592D01*
X30633000Y-37086528D01*
X30809041Y-37013610D01*
X31088786Y-36826690D01*
X31326690Y-36588786D01*
X31513610Y-36309041D01*
X31642362Y-35998205D01*
X31698597Y-35715494D01*
X32417021Y-35715494D01*
X32417021Y-35884506D01*
X32449994Y-36050269D01*
X32514672Y-36206415D01*
X32577203Y-36300000D01*
X32514672Y-36393585D01*
X32449994Y-36549731D01*
X32417021Y-36715494D01*
X32417021Y-36884506D01*
X32449994Y-37050269D01*
X32514672Y-37206415D01*
X32608569Y-37346943D01*
X32728078Y-37466452D01*
X32868606Y-37560349D01*
X32930642Y-37586045D01*
X32924973Y-37599731D01*
X32892000Y-37765494D01*
X32892000Y-37934506D01*
X32924973Y-38100269D01*
X32989651Y-38256415D01*
X33083548Y-38396943D01*
X33203057Y-38516452D01*
X33343585Y-38610349D01*
X33499731Y-38675027D01*
X33665494Y-38708000D01*
X33834506Y-38708000D01*
X34000269Y-38675027D01*
X34156415Y-38610349D01*
X34191246Y-38587076D01*
X34214535Y-38574029D01*
X34251636Y-38551843D01*
X34270353Y-38540184D01*
X34281433Y-38533000D01*
X34551851Y-38533000D01*
X34637562Y-38637438D01*
X34766131Y-38742953D01*
X34912816Y-38821357D01*
X35071977Y-38869638D01*
X35237500Y-38885941D01*
X35737500Y-38885941D01*
X35903023Y-38869638D01*
X36062184Y-38821357D01*
X36208869Y-38742953D01*
X36337438Y-38637438D01*
X36400000Y-38561207D01*
X36462562Y-38637438D01*
X36591131Y-38742953D01*
X36737816Y-38821357D01*
X36896977Y-38869638D01*
X37062500Y-38885941D01*
X37562500Y-38885941D01*
X37728023Y-38869638D01*
X37887184Y-38821357D01*
X38033869Y-38742953D01*
X38162438Y-38637438D01*
X38267953Y-38508869D01*
X38346357Y-38362184D01*
X38394638Y-38203023D01*
X38410941Y-38037500D01*
X38410941Y-37562500D01*
X38394638Y-37396977D01*
X38346357Y-37237816D01*
X38267953Y-37091131D01*
X38162438Y-36962562D01*
X38033869Y-36857047D01*
X37911830Y-36791817D01*
X37879019Y-36712601D01*
X37879015Y-36712594D01*
X37879009Y-36712579D01*
X37822177Y-36606253D01*
X37813250Y-36592893D01*
X37755191Y-36506001D01*
X37755188Y-36505997D01*
X37755183Y-36505990D01*
X37739281Y-36486613D01*
X37678688Y-36412780D01*
X37574136Y-36308228D01*
X37593000Y-36308000D01*
X37745000Y-36156000D01*
X37745000Y-34905000D01*
X37725000Y-34905000D01*
X37725000Y-34895000D01*
X37745000Y-34895000D01*
X37745000Y-33644000D01*
X37593000Y-33492000D01*
X37350000Y-33489058D01*
X37230811Y-33500797D01*
X37116203Y-33535563D01*
X37049026Y-33571470D01*
X37010334Y-33550788D01*
X36858207Y-33504641D01*
X36700000Y-33489059D01*
X36300000Y-33489059D01*
X36141793Y-33504641D01*
X35989666Y-33550788D01*
X35875000Y-33612078D01*
X35760334Y-33550788D01*
X35608207Y-33504641D01*
X35450000Y-33489059D01*
X35050000Y-33489059D01*
X34891793Y-33504641D01*
X34739666Y-33550788D01*
X34625000Y-33612078D01*
X34510334Y-33550788D01*
X34358207Y-33504641D01*
X34200000Y-33489059D01*
X33800000Y-33489059D01*
X33641793Y-33504641D01*
X33489666Y-33550788D01*
X33349465Y-33625727D01*
X33226578Y-33726578D01*
X33125727Y-33849465D01*
X33050788Y-33989666D01*
X33004641Y-34141793D01*
X32989059Y-34300000D01*
X32989059Y-34329216D01*
X32985549Y-34331561D01*
X32966908Y-34341526D01*
X32952320Y-34353499D01*
X32935666Y-34362401D01*
X32919336Y-34375803D01*
X32901758Y-34387548D01*
X32888393Y-34400913D01*
X32872682Y-34411410D01*
X32857739Y-34426353D01*
X32841392Y-34439768D01*
X32829390Y-34454392D01*
X32814757Y-34466403D01*
X32801351Y-34482740D01*
X32786432Y-34497660D01*
X32775943Y-34513359D01*
X32762600Y-34526700D01*
X32750858Y-34544272D01*
X32750842Y-34544291D01*
X32750836Y-34544300D01*
X32737422Y-34560645D01*
X32728511Y-34577316D01*
X32716519Y-34591929D01*
X32706561Y-34610560D01*
X32694822Y-34628128D01*
X32687592Y-34645582D01*
X32677104Y-34661277D01*
X32669019Y-34680794D01*
X32669008Y-34680820D01*
X32668990Y-34680854D01*
X32668977Y-34680884D01*
X32659016Y-34699524D01*
X32653541Y-34717579D01*
X32644632Y-34734248D01*
X32638504Y-34754453D01*
X32630428Y-34773947D01*
X32626733Y-34792516D01*
X32619490Y-34810006D01*
X32615368Y-34830734D01*
X32609237Y-34850947D01*
X32607386Y-34869743D01*
X32601904Y-34887816D01*
X32599835Y-34908828D01*
X32595710Y-34929559D01*
X32595709Y-34950713D01*
X32592021Y-34988161D01*
X32592021Y-34988175D01*
X32589949Y-35009221D01*
X32592021Y-35030247D01*
X32592021Y-35266940D01*
X32581391Y-35283819D01*
X32571539Y-35300017D01*
X32549031Y-35338360D01*
X32536813Y-35360448D01*
X32514672Y-35393585D01*
X32449994Y-35549731D01*
X32417021Y-35715494D01*
X31698597Y-35715494D01*
X31708000Y-35668223D01*
X31708000Y-35331777D01*
X31642362Y-35001795D01*
X31513610Y-34690959D01*
X31326690Y-34411214D01*
X31088786Y-34173310D01*
X30995444Y-34110941D01*
X32250000Y-34110941D01*
X32417961Y-34094398D01*
X32579468Y-34045406D01*
X32728313Y-33965846D01*
X32858777Y-33858777D01*
X32965846Y-33728313D01*
X33045406Y-33579468D01*
X33094398Y-33417961D01*
X33110941Y-33250000D01*
X33110941Y-32415494D01*
X36642000Y-32415494D01*
X36642000Y-32584506D01*
X36674973Y-32750269D01*
X36739651Y-32906415D01*
X36833548Y-33046943D01*
X36953057Y-33166452D01*
X37093585Y-33260349D01*
X37249731Y-33325027D01*
X37415494Y-33358000D01*
X37584506Y-33358000D01*
X37750269Y-33325027D01*
X37848318Y-33284414D01*
X38054122Y-33490219D01*
X37907000Y-33492000D01*
X37755000Y-33644000D01*
X37755000Y-34895000D01*
X37775000Y-34895000D01*
X37775000Y-34905000D01*
X37755000Y-34905000D01*
X37755000Y-36156000D01*
X37907000Y-36308000D01*
X38150000Y-36310942D01*
X38269189Y-36299203D01*
X38383797Y-36264437D01*
X38450974Y-36228530D01*
X38489666Y-36249212D01*
X38641793Y-36295359D01*
X38800000Y-36310941D01*
X39200000Y-36310941D01*
X39358207Y-36295359D01*
X39510334Y-36249212D01*
X39650535Y-36174273D01*
X39773422Y-36073422D01*
X39874273Y-35950535D01*
X39949212Y-35810334D01*
X39995359Y-35658207D01*
X40010941Y-35500000D01*
X40010941Y-34300000D01*
X39995359Y-34141793D01*
X39949212Y-33989666D01*
X39874273Y-33849465D01*
X39810554Y-33771823D01*
X39860903Y-33650269D01*
X39893876Y-33484506D01*
X39893876Y-33315494D01*
X39860903Y-33149731D01*
X39796225Y-32993585D01*
X39702328Y-32853057D01*
X39582819Y-32733548D01*
X39442291Y-32639651D01*
X39286145Y-32574973D01*
X39285458Y-32574836D01*
X39272496Y-32563129D01*
X39246613Y-32538382D01*
X39210906Y-32503057D01*
X38913819Y-32205971D01*
X38913815Y-32205966D01*
X38790753Y-32082904D01*
X38790750Y-32082900D01*
X38728899Y-32021050D01*
X38721128Y-32011581D01*
X38711650Y-32003802D01*
X38711623Y-32003775D01*
X38655055Y-31957352D01*
X38653480Y-31956060D01*
X38644803Y-31947383D01*
X38634603Y-31940568D01*
X38625138Y-31932800D01*
X38614335Y-31927026D01*
X38590714Y-31911243D01*
X38572050Y-31898771D01*
X38562583Y-31891002D01*
X38551767Y-31885221D01*
X38551760Y-31885216D01*
X38551751Y-31885211D01*
X38541569Y-31878408D01*
X38530257Y-31873722D01*
X38504625Y-31860022D01*
X38485398Y-31849744D01*
X38475216Y-31842941D01*
X38463914Y-31838260D01*
X38453113Y-31832486D01*
X38441383Y-31828927D01*
X38394373Y-31809455D01*
X38383564Y-31803678D01*
X38371835Y-31800120D01*
X38360516Y-31795432D01*
X38348497Y-31793041D01*
X38299820Y-31778276D01*
X38288496Y-31773586D01*
X38276481Y-31771197D01*
X38264773Y-31767645D01*
X38252586Y-31766445D01*
X38223210Y-31760603D01*
X38202707Y-31756525D01*
X38190982Y-31752968D01*
X38178784Y-31751767D01*
X38178771Y-31751764D01*
X38178768Y-31751764D01*
X38166748Y-31749373D01*
X38154499Y-31749373D01*
X38130539Y-31747014D01*
X38100097Y-31744017D01*
X38079620Y-31742000D01*
X38079616Y-31742000D01*
X38067410Y-31740798D01*
X38055209Y-31742000D01*
X37992225Y-31742000D01*
X37946300Y-31741673D01*
X37915116Y-31740802D01*
X37907449Y-31740342D01*
X37906415Y-31739651D01*
X37750269Y-31674973D01*
X37584506Y-31642000D01*
X37415494Y-31642000D01*
X37249731Y-31674973D01*
X37093585Y-31739651D01*
X36953057Y-31833548D01*
X36833548Y-31953057D01*
X36739651Y-32093585D01*
X36674973Y-32249731D01*
X36642000Y-32415494D01*
X33110941Y-32415494D01*
X33110941Y-30750000D01*
X33099417Y-30633000D01*
X39900583Y-30633000D01*
X39889059Y-30750000D01*
%TA.AperFunction,Conductor*%
D14*
G36*
X39889059Y-30750000D02*
G01*
X39889059Y-33250000D01*
X39905602Y-33417961D01*
X39954594Y-33579468D01*
X40034154Y-33728313D01*
X40141223Y-33858777D01*
X40271687Y-33965846D01*
X40420532Y-34045406D01*
X40582039Y-34094398D01*
X40750000Y-34110941D01*
X42004556Y-34110941D01*
X41911214Y-34173310D01*
X41673310Y-34411214D01*
X41486390Y-34690959D01*
X41357638Y-35001795D01*
X41292000Y-35331777D01*
X41292000Y-35668223D01*
X41357638Y-35998205D01*
X41486390Y-36309041D01*
X41673310Y-36588786D01*
X41911214Y-36826690D01*
X42190959Y-37013610D01*
X42367001Y-37086529D01*
X42367001Y-40367000D01*
X38493000Y-40367000D01*
X38381000Y-40255000D01*
X37317500Y-40255000D01*
X37317500Y-40275000D01*
X37307500Y-40275000D01*
X37307500Y-40255000D01*
X37287500Y-40255000D01*
X37287500Y-40245000D01*
X37307500Y-40245000D01*
X37307500Y-39369000D01*
X37317500Y-39369000D01*
X37317500Y-40245000D01*
X38381000Y-40245000D01*
X38533000Y-40093000D01*
X38535942Y-39825000D01*
X38524203Y-39705811D01*
X38489437Y-39591203D01*
X38432980Y-39485579D01*
X38357001Y-39392999D01*
X38264421Y-39317020D01*
X38158797Y-39260563D01*
X38044189Y-39225797D01*
X37925000Y-39214058D01*
X37469500Y-39217000D01*
X37317500Y-39369000D01*
X37307500Y-39369000D01*
X37155500Y-39217000D01*
X36700000Y-39214058D01*
X36580811Y-39225797D01*
X36466203Y-39260563D01*
X36419277Y-39285645D01*
X36402617Y-39276740D01*
X36248145Y-39229881D01*
X36087500Y-39214059D01*
X35287500Y-39214059D01*
X35126855Y-39229881D01*
X34972383Y-39276740D01*
X34830021Y-39352834D01*
X34705239Y-39455239D01*
X34613520Y-39567000D01*
X34381780Y-39567000D01*
X34367953Y-39541131D01*
X34262438Y-39412562D01*
X34133869Y-39307047D01*
X33987184Y-39228643D01*
X33828023Y-39180362D01*
X33662500Y-39164059D01*
X33162500Y-39164059D01*
X32996977Y-39180362D01*
X32837816Y-39228643D01*
X32691131Y-39307047D01*
X32562562Y-39412562D01*
X32500000Y-39488793D01*
X32437438Y-39412562D01*
X32308869Y-39307047D01*
X32162184Y-39228643D01*
X32003023Y-39180362D01*
X31837500Y-39164059D01*
X31337500Y-39164059D01*
X31171977Y-39180362D01*
X31133000Y-39192186D01*
X31133000Y-38931433D01*
X31140184Y-38920353D01*
X31151843Y-38901636D01*
X31174029Y-38864535D01*
X31187076Y-38841246D01*
X31210349Y-38806415D01*
X31275027Y-38650269D01*
X31308000Y-38484506D01*
X31308000Y-38315494D01*
X31275027Y-38149731D01*
X31210349Y-37993585D01*
X31116452Y-37853057D01*
X30996943Y-37733548D01*
X30856415Y-37639651D01*
X30700269Y-37574973D01*
X30633000Y-37561592D01*
X30633000Y-37086528D01*
X30809041Y-37013610D01*
X31088786Y-36826690D01*
X31326690Y-36588786D01*
X31513610Y-36309041D01*
X31642362Y-35998205D01*
X31698597Y-35715494D01*
X32417021Y-35715494D01*
X32417021Y-35884506D01*
X32449994Y-36050269D01*
X32514672Y-36206415D01*
X32577203Y-36300000D01*
X32514672Y-36393585D01*
X32449994Y-36549731D01*
X32417021Y-36715494D01*
X32417021Y-36884506D01*
X32449994Y-37050269D01*
X32514672Y-37206415D01*
X32608569Y-37346943D01*
X32728078Y-37466452D01*
X32868606Y-37560349D01*
X32930642Y-37586045D01*
X32924973Y-37599731D01*
X32892000Y-37765494D01*
X32892000Y-37934506D01*
X32924973Y-38100269D01*
X32989651Y-38256415D01*
X33083548Y-38396943D01*
X33203057Y-38516452D01*
X33343585Y-38610349D01*
X33499731Y-38675027D01*
X33665494Y-38708000D01*
X33834506Y-38708000D01*
X34000269Y-38675027D01*
X34156415Y-38610349D01*
X34191246Y-38587076D01*
X34214535Y-38574029D01*
X34251636Y-38551843D01*
X34270353Y-38540184D01*
X34281433Y-38533000D01*
X34551851Y-38533000D01*
X34637562Y-38637438D01*
X34766131Y-38742953D01*
X34912816Y-38821357D01*
X35071977Y-38869638D01*
X35237500Y-38885941D01*
X35737500Y-38885941D01*
X35903023Y-38869638D01*
X36062184Y-38821357D01*
X36208869Y-38742953D01*
X36337438Y-38637438D01*
X36400000Y-38561207D01*
X36462562Y-38637438D01*
X36591131Y-38742953D01*
X36737816Y-38821357D01*
X36896977Y-38869638D01*
X37062500Y-38885941D01*
X37562500Y-38885941D01*
X37728023Y-38869638D01*
X37887184Y-38821357D01*
X38033869Y-38742953D01*
X38162438Y-38637438D01*
X38267953Y-38508869D01*
X38346357Y-38362184D01*
X38394638Y-38203023D01*
X38410941Y-38037500D01*
X38410941Y-37562500D01*
X38394638Y-37396977D01*
X38346357Y-37237816D01*
X38267953Y-37091131D01*
X38162438Y-36962562D01*
X38033869Y-36857047D01*
X37911830Y-36791817D01*
X37879019Y-36712601D01*
X37879015Y-36712594D01*
X37879009Y-36712579D01*
X37822177Y-36606253D01*
X37813250Y-36592893D01*
X37755191Y-36506001D01*
X37755188Y-36505997D01*
X37755183Y-36505990D01*
X37739281Y-36486613D01*
X37678688Y-36412780D01*
X37574136Y-36308228D01*
X37593000Y-36308000D01*
X37745000Y-36156000D01*
X37745000Y-34905000D01*
X37725000Y-34905000D01*
X37725000Y-34895000D01*
X37745000Y-34895000D01*
X37745000Y-33644000D01*
X37593000Y-33492000D01*
X37350000Y-33489058D01*
X37230811Y-33500797D01*
X37116203Y-33535563D01*
X37049026Y-33571470D01*
X37010334Y-33550788D01*
X36858207Y-33504641D01*
X36700000Y-33489059D01*
X36300000Y-33489059D01*
X36141793Y-33504641D01*
X35989666Y-33550788D01*
X35875000Y-33612078D01*
X35760334Y-33550788D01*
X35608207Y-33504641D01*
X35450000Y-33489059D01*
X35050000Y-33489059D01*
X34891793Y-33504641D01*
X34739666Y-33550788D01*
X34625000Y-33612078D01*
X34510334Y-33550788D01*
X34358207Y-33504641D01*
X34200000Y-33489059D01*
X33800000Y-33489059D01*
X33641793Y-33504641D01*
X33489666Y-33550788D01*
X33349465Y-33625727D01*
X33226578Y-33726578D01*
X33125727Y-33849465D01*
X33050788Y-33989666D01*
X33004641Y-34141793D01*
X32989059Y-34300000D01*
X32989059Y-34329216D01*
X32985549Y-34331561D01*
X32966908Y-34341526D01*
X32952320Y-34353499D01*
X32935666Y-34362401D01*
X32919336Y-34375803D01*
X32901758Y-34387548D01*
X32888393Y-34400913D01*
X32872682Y-34411410D01*
X32857739Y-34426353D01*
X32841392Y-34439768D01*
X32829390Y-34454392D01*
X32814757Y-34466403D01*
X32801351Y-34482740D01*
X32786432Y-34497660D01*
X32775943Y-34513359D01*
X32762600Y-34526700D01*
X32750858Y-34544272D01*
X32750842Y-34544291D01*
X32750836Y-34544300D01*
X32737422Y-34560645D01*
X32728511Y-34577316D01*
X32716519Y-34591929D01*
X32706561Y-34610560D01*
X32694822Y-34628128D01*
X32687592Y-34645582D01*
X32677104Y-34661277D01*
X32669019Y-34680794D01*
X32669008Y-34680820D01*
X32668990Y-34680854D01*
X32668977Y-34680884D01*
X32659016Y-34699524D01*
X32653541Y-34717579D01*
X32644632Y-34734248D01*
X32638504Y-34754453D01*
X32630428Y-34773947D01*
X32626733Y-34792516D01*
X32619490Y-34810006D01*
X32615368Y-34830734D01*
X32609237Y-34850947D01*
X32607386Y-34869743D01*
X32601904Y-34887816D01*
X32599835Y-34908828D01*
X32595710Y-34929559D01*
X32595709Y-34950713D01*
X32592021Y-34988161D01*
X32592021Y-34988175D01*
X32589949Y-35009221D01*
X32592021Y-35030247D01*
X32592021Y-35266940D01*
X32581391Y-35283819D01*
X32571539Y-35300017D01*
X32549031Y-35338360D01*
X32536813Y-35360448D01*
X32514672Y-35393585D01*
X32449994Y-35549731D01*
X32417021Y-35715494D01*
X31698597Y-35715494D01*
X31708000Y-35668223D01*
X31708000Y-35331777D01*
X31642362Y-35001795D01*
X31513610Y-34690959D01*
X31326690Y-34411214D01*
X31088786Y-34173310D01*
X30995444Y-34110941D01*
X32250000Y-34110941D01*
X32417961Y-34094398D01*
X32579468Y-34045406D01*
X32728313Y-33965846D01*
X32858777Y-33858777D01*
X32965846Y-33728313D01*
X33045406Y-33579468D01*
X33094398Y-33417961D01*
X33110941Y-33250000D01*
X33110941Y-32415494D01*
X36642000Y-32415494D01*
X36642000Y-32584506D01*
X36674973Y-32750269D01*
X36739651Y-32906415D01*
X36833548Y-33046943D01*
X36953057Y-33166452D01*
X37093585Y-33260349D01*
X37249731Y-33325027D01*
X37415494Y-33358000D01*
X37584506Y-33358000D01*
X37750269Y-33325027D01*
X37848318Y-33284414D01*
X38054122Y-33490219D01*
X37907000Y-33492000D01*
X37755000Y-33644000D01*
X37755000Y-34895000D01*
X37775000Y-34895000D01*
X37775000Y-34905000D01*
X37755000Y-34905000D01*
X37755000Y-36156000D01*
X37907000Y-36308000D01*
X38150000Y-36310942D01*
X38269189Y-36299203D01*
X38383797Y-36264437D01*
X38450974Y-36228530D01*
X38489666Y-36249212D01*
X38641793Y-36295359D01*
X38800000Y-36310941D01*
X39200000Y-36310941D01*
X39358207Y-36295359D01*
X39510334Y-36249212D01*
X39650535Y-36174273D01*
X39773422Y-36073422D01*
X39874273Y-35950535D01*
X39949212Y-35810334D01*
X39995359Y-35658207D01*
X40010941Y-35500000D01*
X40010941Y-34300000D01*
X39995359Y-34141793D01*
X39949212Y-33989666D01*
X39874273Y-33849465D01*
X39810554Y-33771823D01*
X39860903Y-33650269D01*
X39893876Y-33484506D01*
X39893876Y-33315494D01*
X39860903Y-33149731D01*
X39796225Y-32993585D01*
X39702328Y-32853057D01*
X39582819Y-32733548D01*
X39442291Y-32639651D01*
X39286145Y-32574973D01*
X39285458Y-32574836D01*
X39272496Y-32563129D01*
X39246613Y-32538382D01*
X39210906Y-32503057D01*
X38913819Y-32205971D01*
X38913815Y-32205966D01*
X38790753Y-32082904D01*
X38790750Y-32082900D01*
X38728899Y-32021050D01*
X38721128Y-32011581D01*
X38711650Y-32003802D01*
X38711623Y-32003775D01*
X38655055Y-31957352D01*
X38653480Y-31956060D01*
X38644803Y-31947383D01*
X38634603Y-31940568D01*
X38625138Y-31932800D01*
X38614335Y-31927026D01*
X38590714Y-31911243D01*
X38572050Y-31898771D01*
X38562583Y-31891002D01*
X38551767Y-31885221D01*
X38551760Y-31885216D01*
X38551751Y-31885211D01*
X38541569Y-31878408D01*
X38530257Y-31873722D01*
X38504625Y-31860022D01*
X38485398Y-31849744D01*
X38475216Y-31842941D01*
X38463914Y-31838260D01*
X38453113Y-31832486D01*
X38441383Y-31828927D01*
X38394373Y-31809455D01*
X38383564Y-31803678D01*
X38371835Y-31800120D01*
X38360516Y-31795432D01*
X38348497Y-31793041D01*
X38299820Y-31778276D01*
X38288496Y-31773586D01*
X38276481Y-31771197D01*
X38264773Y-31767645D01*
X38252586Y-31766445D01*
X38223210Y-31760603D01*
X38202707Y-31756525D01*
X38190982Y-31752968D01*
X38178784Y-31751767D01*
X38178771Y-31751764D01*
X38178768Y-31751764D01*
X38166748Y-31749373D01*
X38154499Y-31749373D01*
X38130539Y-31747014D01*
X38100097Y-31744017D01*
X38079620Y-31742000D01*
X38079616Y-31742000D01*
X38067410Y-31740798D01*
X38055209Y-31742000D01*
X37992225Y-31742000D01*
X37946300Y-31741673D01*
X37915116Y-31740802D01*
X37907449Y-31740342D01*
X37906415Y-31739651D01*
X37750269Y-31674973D01*
X37584506Y-31642000D01*
X37415494Y-31642000D01*
X37249731Y-31674973D01*
X37093585Y-31739651D01*
X36953057Y-31833548D01*
X36833548Y-31953057D01*
X36739651Y-32093585D01*
X36674973Y-32249731D01*
X36642000Y-32415494D01*
X33110941Y-32415494D01*
X33110941Y-30750000D01*
X33099417Y-30633000D01*
X39900583Y-30633000D01*
X39889059Y-30750000D01*
G37*
%TD.AperFunction*%
%TD*%
D15*
%TO.N,GND*%
X37640843Y-32304017D02*
X37641225Y-32304189D01*
X37675266Y-32318840D01*
X37675833Y-32319068D01*
X37707921Y-32331086D01*
X37708653Y-32331335D01*
X37740070Y-32340964D01*
X37740903Y-32341189D01*
X37772932Y-32348670D01*
X37773760Y-32348835D01*
X37807682Y-32354413D01*
X37808410Y-32354511D01*
X37845507Y-32358427D01*
X37846079Y-32358474D01*
X37887633Y-32360970D01*
X37888040Y-32360988D01*
X37935332Y-32362308D01*
X37935596Y-32362313D01*
X37977300Y-32362610D01*
X37977300Y-32637390D01*
X37935596Y-32637686D01*
X37935332Y-32637691D01*
X37888040Y-32639011D01*
X37887633Y-32639029D01*
X37846079Y-32641525D01*
X37845507Y-32641572D01*
X37808410Y-32645488D01*
X37807682Y-32645586D01*
X37773760Y-32651164D01*
X37772932Y-32651329D01*
X37740903Y-32658810D01*
X37740070Y-32659035D01*
X37708653Y-32668664D01*
X37707921Y-32668913D01*
X37675833Y-32680931D01*
X37675266Y-32681159D01*
X37641225Y-32695810D01*
X37640842Y-32695982D01*
X37611476Y-32709789D01*
X37393322Y-32500000D01*
X37611477Y-32290211D01*
X37640843Y-32304017D01*
%TA.AperFunction,Conductor*%
D14*
G36*
X37640843Y-32304017D02*
G01*
X37641225Y-32304189D01*
X37675266Y-32318840D01*
X37675833Y-32319068D01*
X37707921Y-32331086D01*
X37708653Y-32331335D01*
X37740070Y-32340964D01*
X37740903Y-32341189D01*
X37772932Y-32348670D01*
X37773760Y-32348835D01*
X37807682Y-32354413D01*
X37808410Y-32354511D01*
X37845507Y-32358427D01*
X37846079Y-32358474D01*
X37887633Y-32360970D01*
X37888040Y-32360988D01*
X37935332Y-32362308D01*
X37935596Y-32362313D01*
X37977300Y-32362610D01*
X37977300Y-32637390D01*
X37935596Y-32637686D01*
X37935332Y-32637691D01*
X37888040Y-32639011D01*
X37887633Y-32639029D01*
X37846079Y-32641525D01*
X37845507Y-32641572D01*
X37808410Y-32645488D01*
X37807682Y-32645586D01*
X37773760Y-32651164D01*
X37772932Y-32651329D01*
X37740903Y-32658810D01*
X37740070Y-32659035D01*
X37708653Y-32668664D01*
X37707921Y-32668913D01*
X37675833Y-32680931D01*
X37675266Y-32681159D01*
X37641225Y-32695810D01*
X37640842Y-32695982D01*
X37611476Y-32709789D01*
X37393322Y-32500000D01*
X37611477Y-32290211D01*
X37640843Y-32304017D01*
G37*
%TD.AperFunction*%
%TD*%
D15*
%TO.N,GND*%
X39245680Y-33511492D02*
X39231117Y-33542648D01*
X39230922Y-33543086D01*
X39215849Y-33578785D01*
X39215607Y-33579403D01*
X39203418Y-33613083D01*
X39203166Y-33613856D01*
X39193564Y-33646850D01*
X39193348Y-33647702D01*
X39186037Y-33681344D01*
X39185886Y-33682167D01*
X39180570Y-33717791D01*
X39180485Y-33718490D01*
X39176866Y-33757431D01*
X39176828Y-33757961D01*
X39174610Y-33801554D01*
X39174597Y-33801914D01*
X39173484Y-33851491D01*
X39173481Y-33851708D01*
X39173244Y-33895974D01*
X38898508Y-33895974D01*
X38898270Y-33851708D01*
X38898267Y-33851491D01*
X38897154Y-33801914D01*
X38897141Y-33801554D01*
X38894923Y-33757961D01*
X38894885Y-33757431D01*
X38891266Y-33718490D01*
X38891181Y-33717791D01*
X38885865Y-33682167D01*
X38885714Y-33681344D01*
X38878403Y-33647702D01*
X38878187Y-33646850D01*
X38868585Y-33613856D01*
X38868333Y-33613083D01*
X38856144Y-33579403D01*
X38855902Y-33578785D01*
X38840829Y-33543086D01*
X38840634Y-33542649D01*
X38826072Y-33511492D01*
X39035876Y-33293322D01*
X39245680Y-33511492D01*
%TA.AperFunction,Conductor*%
D14*
G36*
X39245680Y-33511492D02*
G01*
X39231117Y-33542648D01*
X39230922Y-33543086D01*
X39215849Y-33578785D01*
X39215607Y-33579403D01*
X39203418Y-33613083D01*
X39203166Y-33613856D01*
X39193564Y-33646850D01*
X39193348Y-33647702D01*
X39186037Y-33681344D01*
X39185886Y-33682167D01*
X39180570Y-33717791D01*
X39180485Y-33718490D01*
X39176866Y-33757431D01*
X39176828Y-33757961D01*
X39174610Y-33801554D01*
X39174597Y-33801914D01*
X39173484Y-33851491D01*
X39173481Y-33851708D01*
X39173244Y-33895974D01*
X38898508Y-33895974D01*
X38898270Y-33851708D01*
X38898267Y-33851491D01*
X38897154Y-33801914D01*
X38897141Y-33801554D01*
X38894923Y-33757961D01*
X38894885Y-33757431D01*
X38891266Y-33718490D01*
X38891181Y-33717791D01*
X38885865Y-33682167D01*
X38885714Y-33681344D01*
X38878403Y-33647702D01*
X38878187Y-33646850D01*
X38868585Y-33613856D01*
X38868333Y-33613083D01*
X38856144Y-33579403D01*
X38855902Y-33578785D01*
X38840829Y-33543086D01*
X38840634Y-33542649D01*
X38826072Y-33511492D01*
X39035876Y-33293322D01*
X39245680Y-33511492D01*
G37*
%TD.AperFunction*%
%TD*%
D15*
%TO.N,GND*%
X38813770Y-32983290D02*
X38813926Y-32983442D01*
X38849770Y-33017712D01*
X38850034Y-33017957D01*
X38882426Y-33047213D01*
X38882827Y-33047561D01*
X38912922Y-33072538D01*
X38913477Y-33072972D01*
X38942427Y-33094403D01*
X38943115Y-33094878D01*
X38972073Y-33113497D01*
X38972828Y-33113947D01*
X39002947Y-33130488D01*
X39003672Y-33130856D01*
X39036106Y-33146052D01*
X39036714Y-33146318D01*
X39072616Y-33160903D01*
X39073063Y-33161075D01*
X39105391Y-33172810D01*
X39111308Y-33475432D01*
X38808686Y-33469515D01*
X38796951Y-33437187D01*
X38796779Y-33436740D01*
X38782194Y-33400838D01*
X38781928Y-33400230D01*
X38766732Y-33367796D01*
X38766364Y-33367071D01*
X38749823Y-33336952D01*
X38749373Y-33336197D01*
X38730754Y-33307239D01*
X38730279Y-33306551D01*
X38708848Y-33277601D01*
X38708414Y-33277046D01*
X38683437Y-33246951D01*
X38683089Y-33246550D01*
X38653833Y-33214158D01*
X38653588Y-33213894D01*
X38619318Y-33178050D01*
X38619166Y-33177894D01*
X38588034Y-33146426D01*
X38782302Y-32952158D01*
X38813770Y-32983290D01*
%TA.AperFunction,Conductor*%
D14*
G36*
X38813770Y-32983290D02*
G01*
X38813926Y-32983442D01*
X38849770Y-33017712D01*
X38850034Y-33017957D01*
X38882426Y-33047213D01*
X38882827Y-33047561D01*
X38912922Y-33072538D01*
X38913477Y-33072972D01*
X38942427Y-33094403D01*
X38943115Y-33094878D01*
X38972073Y-33113497D01*
X38972828Y-33113947D01*
X39002947Y-33130488D01*
X39003672Y-33130856D01*
X39036106Y-33146052D01*
X39036714Y-33146318D01*
X39072616Y-33160903D01*
X39073063Y-33161075D01*
X39105391Y-33172810D01*
X39111308Y-33475432D01*
X38808686Y-33469515D01*
X38796951Y-33437187D01*
X38796779Y-33436740D01*
X38782194Y-33400838D01*
X38781928Y-33400230D01*
X38766732Y-33367796D01*
X38766364Y-33367071D01*
X38749823Y-33336952D01*
X38749373Y-33336197D01*
X38730754Y-33307239D01*
X38730279Y-33306551D01*
X38708848Y-33277601D01*
X38708414Y-33277046D01*
X38683437Y-33246951D01*
X38683089Y-33246550D01*
X38653833Y-33214158D01*
X38653588Y-33213894D01*
X38619318Y-33178050D01*
X38619166Y-33177894D01*
X38588034Y-33146426D01*
X38782302Y-32952158D01*
X38813770Y-32983290D01*
G37*
%TD.AperFunction*%
%TD*%
D15*
%TO.N,GND*%
X30659507Y-38511183D02*
X30641129Y-38546280D01*
X30619238Y-38582887D01*
X30598237Y-38615278D01*
X30578525Y-38645407D01*
X30578278Y-38645800D01*
X30560438Y-38675376D01*
X30559962Y-38676240D01*
X30544417Y-38707220D01*
X30543871Y-38708472D01*
X30531045Y-38742813D01*
X30530605Y-38744244D01*
X30520919Y-38783900D01*
X30520663Y-38785270D01*
X30514541Y-38832199D01*
X30514443Y-38833360D01*
X30512773Y-38877300D01*
X30387226Y-38877300D01*
X30385556Y-38833360D01*
X30385458Y-38832199D01*
X30379336Y-38785270D01*
X30379080Y-38783900D01*
X30369394Y-38744244D01*
X30368954Y-38742813D01*
X30356128Y-38708472D01*
X30355582Y-38707220D01*
X30340037Y-38676240D01*
X30339561Y-38675376D01*
X30321721Y-38645800D01*
X30321474Y-38645407D01*
X30301762Y-38615278D01*
X30280761Y-38582887D01*
X30258870Y-38546280D01*
X30240493Y-38511183D01*
X30450000Y-38293322D01*
X30659507Y-38511183D01*
%TA.AperFunction,Conductor*%
D14*
G36*
X30659507Y-38511183D02*
G01*
X30641129Y-38546280D01*
X30619238Y-38582887D01*
X30598237Y-38615278D01*
X30578525Y-38645407D01*
X30578278Y-38645800D01*
X30560438Y-38675376D01*
X30559962Y-38676240D01*
X30544417Y-38707220D01*
X30543871Y-38708472D01*
X30531045Y-38742813D01*
X30530605Y-38744244D01*
X30520919Y-38783900D01*
X30520663Y-38785270D01*
X30514541Y-38832199D01*
X30514443Y-38833360D01*
X30512773Y-38877300D01*
X30387226Y-38877300D01*
X30385556Y-38833360D01*
X30385458Y-38832199D01*
X30379336Y-38785270D01*
X30379080Y-38783900D01*
X30369394Y-38744244D01*
X30368954Y-38742813D01*
X30356128Y-38708472D01*
X30355582Y-38707220D01*
X30340037Y-38676240D01*
X30339561Y-38675376D01*
X30321721Y-38645800D01*
X30321474Y-38645407D01*
X30301762Y-38615278D01*
X30280761Y-38582887D01*
X30258870Y-38546280D01*
X30240493Y-38511183D01*
X30450000Y-38293322D01*
X30659507Y-38511183D01*
G37*
%TD.AperFunction*%
%TD*%
D15*
%TO.N,/SCK*%
X33339401Y-35355197D02*
X33339488Y-35356294D01*
X33345452Y-35404759D01*
X33345682Y-35406064D01*
X33355155Y-35447103D01*
X33355558Y-35448484D01*
X33368158Y-35484088D01*
X33368668Y-35485320D01*
X33384014Y-35517485D01*
X33384473Y-35518359D01*
X33402182Y-35549078D01*
X33402439Y-35549503D01*
X33422130Y-35580770D01*
X33443318Y-35614415D01*
X33465560Y-35652306D01*
X33484546Y-35688798D01*
X33275021Y-35906678D01*
X33065497Y-35688799D01*
X33084489Y-35652291D01*
X33106709Y-35614439D01*
X33127912Y-35580770D01*
X33147603Y-35549503D01*
X33147859Y-35549078D01*
X33165568Y-35518359D01*
X33166027Y-35517485D01*
X33181373Y-35485320D01*
X33181883Y-35484088D01*
X33194483Y-35448484D01*
X33194886Y-35447103D01*
X33204359Y-35406064D01*
X33204589Y-35404759D01*
X33210553Y-35356294D01*
X33210640Y-35355198D01*
X33212274Y-35309556D01*
X33337767Y-35309556D01*
X33339401Y-35355197D01*
%TA.AperFunction,Conductor*%
D14*
G36*
X33339401Y-35355197D02*
G01*
X33339488Y-35356294D01*
X33345452Y-35404759D01*
X33345682Y-35406064D01*
X33355155Y-35447103D01*
X33355558Y-35448484D01*
X33368158Y-35484088D01*
X33368668Y-35485320D01*
X33384014Y-35517485D01*
X33384473Y-35518359D01*
X33402182Y-35549078D01*
X33402439Y-35549503D01*
X33422130Y-35580770D01*
X33443318Y-35614415D01*
X33465560Y-35652306D01*
X33484546Y-35688798D01*
X33275021Y-35906678D01*
X33065497Y-35688799D01*
X33084489Y-35652291D01*
X33106709Y-35614439D01*
X33127912Y-35580770D01*
X33147603Y-35549503D01*
X33147859Y-35549078D01*
X33165568Y-35518359D01*
X33166027Y-35517485D01*
X33181373Y-35485320D01*
X33181883Y-35484088D01*
X33194483Y-35448484D01*
X33194886Y-35447103D01*
X33204359Y-35406064D01*
X33204589Y-35404759D01*
X33210553Y-35356294D01*
X33210640Y-35355198D01*
X33212274Y-35309556D01*
X33337767Y-35309556D01*
X33339401Y-35355197D01*
G37*
%TD.AperFunction*%
%TD*%
D15*
%TO.N,/SS*%
X33421301Y-36608870D02*
X33457908Y-36630761D01*
X33490299Y-36651762D01*
X33520428Y-36671474D01*
X33520821Y-36671721D01*
X33550397Y-36689561D01*
X33551261Y-36690037D01*
X33582241Y-36705582D01*
X33583493Y-36706128D01*
X33617834Y-36718954D01*
X33619265Y-36719394D01*
X33658921Y-36729080D01*
X33660291Y-36729336D01*
X33707220Y-36735458D01*
X33708381Y-36735556D01*
X33752321Y-36737226D01*
X33752321Y-36862773D01*
X33708381Y-36864443D01*
X33707220Y-36864541D01*
X33660291Y-36870663D01*
X33658921Y-36870919D01*
X33619265Y-36880605D01*
X33617834Y-36881045D01*
X33583493Y-36893871D01*
X33582241Y-36894417D01*
X33551261Y-36909962D01*
X33550397Y-36910438D01*
X33520821Y-36928278D01*
X33520428Y-36928525D01*
X33490299Y-36948237D01*
X33457908Y-36969238D01*
X33421301Y-36991129D01*
X33386204Y-37009507D01*
X33168343Y-36800000D01*
X33386204Y-36590493D01*
X33421301Y-36608870D01*
%TA.AperFunction,Conductor*%
D14*
G36*
X33421301Y-36608870D02*
G01*
X33457908Y-36630761D01*
X33490299Y-36651762D01*
X33520428Y-36671474D01*
X33520821Y-36671721D01*
X33550397Y-36689561D01*
X33551261Y-36690037D01*
X33582241Y-36705582D01*
X33583493Y-36706128D01*
X33617834Y-36718954D01*
X33619265Y-36719394D01*
X33658921Y-36729080D01*
X33660291Y-36729336D01*
X33707220Y-36735458D01*
X33708381Y-36735556D01*
X33752321Y-36737226D01*
X33752321Y-36862773D01*
X33708381Y-36864443D01*
X33707220Y-36864541D01*
X33660291Y-36870663D01*
X33658921Y-36870919D01*
X33619265Y-36880605D01*
X33617834Y-36881045D01*
X33583493Y-36893871D01*
X33582241Y-36894417D01*
X33551261Y-36909962D01*
X33550397Y-36910438D01*
X33520821Y-36928278D01*
X33520428Y-36928525D01*
X33490299Y-36948237D01*
X33457908Y-36969238D01*
X33421301Y-36991129D01*
X33386204Y-37009507D01*
X33168343Y-36800000D01*
X33386204Y-36590493D01*
X33421301Y-36608870D01*
G37*
%TD.AperFunction*%
%TD*%
D15*
%TO.N,/MISO*%
X33896280Y-37658870D02*
X33932887Y-37680761D01*
X33965278Y-37701762D01*
X33995407Y-37721474D01*
X33995800Y-37721721D01*
X34025376Y-37739561D01*
X34026240Y-37740037D01*
X34057220Y-37755582D01*
X34058472Y-37756128D01*
X34092813Y-37768954D01*
X34094244Y-37769394D01*
X34133900Y-37779080D01*
X34135270Y-37779336D01*
X34182199Y-37785458D01*
X34183360Y-37785556D01*
X34227300Y-37787226D01*
X34227300Y-37912773D01*
X34183360Y-37914443D01*
X34182199Y-37914541D01*
X34135270Y-37920663D01*
X34133900Y-37920919D01*
X34094244Y-37930605D01*
X34092813Y-37931045D01*
X34058472Y-37943871D01*
X34057220Y-37944417D01*
X34026240Y-37959962D01*
X34025376Y-37960438D01*
X33995800Y-37978278D01*
X33995407Y-37978525D01*
X33965278Y-37998237D01*
X33932887Y-38019238D01*
X33896280Y-38041129D01*
X33861183Y-38059507D01*
X33643322Y-37850000D01*
X33861183Y-37640493D01*
X33896280Y-37658870D01*
%TA.AperFunction,Conductor*%
D14*
G36*
X33896280Y-37658870D02*
G01*
X33932887Y-37680761D01*
X33965278Y-37701762D01*
X33995407Y-37721474D01*
X33995800Y-37721721D01*
X34025376Y-37739561D01*
X34026240Y-37740037D01*
X34057220Y-37755582D01*
X34058472Y-37756128D01*
X34092813Y-37768954D01*
X34094244Y-37769394D01*
X34133900Y-37779080D01*
X34135270Y-37779336D01*
X34182199Y-37785458D01*
X34183360Y-37785556D01*
X34227300Y-37787226D01*
X34227300Y-37912773D01*
X34183360Y-37914443D01*
X34182199Y-37914541D01*
X34135270Y-37920663D01*
X34133900Y-37920919D01*
X34094244Y-37930605D01*
X34092813Y-37931045D01*
X34058472Y-37943871D01*
X34057220Y-37944417D01*
X34026240Y-37959962D01*
X34025376Y-37960438D01*
X33995800Y-37978278D01*
X33995407Y-37978525D01*
X33965278Y-37998237D01*
X33932887Y-38019238D01*
X33896280Y-38041129D01*
X33861183Y-38059507D01*
X33643322Y-37850000D01*
X33861183Y-37640493D01*
X33896280Y-37658870D01*
G37*
%TD.AperFunction*%
%TD*%
M02*
