%TF.GenerationSoftware,KiCad,Pcbnew,5.1.10*%
%TF.CreationDate,2021-12-10T14:23:33+01:00*%
%TF.ProjectId,angle-sensor-board,616e676c-652d-4736-956e-736f722d626f,rev?*%
%TF.SameCoordinates,Original*%
%TF.FileFunction,Soldermask,Top*%
%TF.FilePolarity,Negative*%
%FSLAX46Y46*%
G04 Gerber Fmt 4.6, Leading zero omitted, Abs format (unit mm)*
G04 Created by KiCad (PCBNEW 5.1.10) date 2021-12-10 14:23:33*
%MOMM*%
%LPD*%
G01*
G04 APERTURE LIST*
%ADD10C,0.100000*%
%ADD11R,1.000000X1.500000*%
%ADD12C,2.200000*%
%ADD13R,2.700000X2.700000*%
G04 APERTURE END LIST*
D10*
%TO.C,JP2*%
G36*
X31750000Y-39850000D02*
G01*
X31200000Y-39850000D01*
X31200000Y-39849398D01*
X31175466Y-39849398D01*
X31126635Y-39844588D01*
X31078510Y-39835016D01*
X31031555Y-39820772D01*
X30986222Y-39801995D01*
X30942949Y-39778864D01*
X30902150Y-39751604D01*
X30864221Y-39720476D01*
X30829524Y-39685779D01*
X30798396Y-39647850D01*
X30771136Y-39607051D01*
X30748005Y-39563778D01*
X30729228Y-39518445D01*
X30714984Y-39471490D01*
X30705412Y-39423365D01*
X30700602Y-39374534D01*
X30700602Y-39350000D01*
X30700000Y-39350000D01*
X30700000Y-38850000D01*
X30700602Y-38850000D01*
X30700602Y-38825466D01*
X30705412Y-38776635D01*
X30714984Y-38728510D01*
X30729228Y-38681555D01*
X30748005Y-38636222D01*
X30771136Y-38592949D01*
X30798396Y-38552150D01*
X30829524Y-38514221D01*
X30864221Y-38479524D01*
X30902150Y-38448396D01*
X30942949Y-38421136D01*
X30986222Y-38398005D01*
X31031555Y-38379228D01*
X31078510Y-38364984D01*
X31126635Y-38355412D01*
X31175466Y-38350602D01*
X31200000Y-38350602D01*
X31200000Y-38350000D01*
X31750000Y-38350000D01*
X31750000Y-39850000D01*
G37*
D11*
X32500000Y-39100000D03*
D10*
G36*
X33800000Y-38350602D02*
G01*
X33824534Y-38350602D01*
X33873365Y-38355412D01*
X33921490Y-38364984D01*
X33968445Y-38379228D01*
X34013778Y-38398005D01*
X34057051Y-38421136D01*
X34097850Y-38448396D01*
X34135779Y-38479524D01*
X34170476Y-38514221D01*
X34201604Y-38552150D01*
X34228864Y-38592949D01*
X34251995Y-38636222D01*
X34270772Y-38681555D01*
X34285016Y-38728510D01*
X34294588Y-38776635D01*
X34299398Y-38825466D01*
X34299398Y-38850000D01*
X34300000Y-38850000D01*
X34300000Y-39350000D01*
X34299398Y-39350000D01*
X34299398Y-39374534D01*
X34294588Y-39423365D01*
X34285016Y-39471490D01*
X34270772Y-39518445D01*
X34251995Y-39563778D01*
X34228864Y-39607051D01*
X34201604Y-39647850D01*
X34170476Y-39685779D01*
X34135779Y-39720476D01*
X34097850Y-39751604D01*
X34057051Y-39778864D01*
X34013778Y-39801995D01*
X33968445Y-39820772D01*
X33921490Y-39835016D01*
X33873365Y-39844588D01*
X33824534Y-39849398D01*
X33800000Y-39849398D01*
X33800000Y-39850000D01*
X33250000Y-39850000D01*
X33250000Y-38350000D01*
X33800000Y-38350000D01*
X33800000Y-38350602D01*
G37*
%TD*%
%TO.C,JP1*%
G36*
X31850000Y-32550000D02*
G01*
X31300000Y-32550000D01*
X31300000Y-32549398D01*
X31275466Y-32549398D01*
X31226635Y-32544588D01*
X31178510Y-32535016D01*
X31131555Y-32520772D01*
X31086222Y-32501995D01*
X31042949Y-32478864D01*
X31002150Y-32451604D01*
X30964221Y-32420476D01*
X30929524Y-32385779D01*
X30898396Y-32347850D01*
X30871136Y-32307051D01*
X30848005Y-32263778D01*
X30829228Y-32218445D01*
X30814984Y-32171490D01*
X30805412Y-32123365D01*
X30800602Y-32074534D01*
X30800602Y-32050000D01*
X30800000Y-32050000D01*
X30800000Y-31550000D01*
X30800602Y-31550000D01*
X30800602Y-31525466D01*
X30805412Y-31476635D01*
X30814984Y-31428510D01*
X30829228Y-31381555D01*
X30848005Y-31336222D01*
X30871136Y-31292949D01*
X30898396Y-31252150D01*
X30929524Y-31214221D01*
X30964221Y-31179524D01*
X31002150Y-31148396D01*
X31042949Y-31121136D01*
X31086222Y-31098005D01*
X31131555Y-31079228D01*
X31178510Y-31064984D01*
X31226635Y-31055412D01*
X31275466Y-31050602D01*
X31300000Y-31050602D01*
X31300000Y-31050000D01*
X31850000Y-31050000D01*
X31850000Y-32550000D01*
G37*
D11*
X32600000Y-31800000D03*
D10*
G36*
X33900000Y-31050602D02*
G01*
X33924534Y-31050602D01*
X33973365Y-31055412D01*
X34021490Y-31064984D01*
X34068445Y-31079228D01*
X34113778Y-31098005D01*
X34157051Y-31121136D01*
X34197850Y-31148396D01*
X34235779Y-31179524D01*
X34270476Y-31214221D01*
X34301604Y-31252150D01*
X34328864Y-31292949D01*
X34351995Y-31336222D01*
X34370772Y-31381555D01*
X34385016Y-31428510D01*
X34394588Y-31476635D01*
X34399398Y-31525466D01*
X34399398Y-31550000D01*
X34400000Y-31550000D01*
X34400000Y-32050000D01*
X34399398Y-32050000D01*
X34399398Y-32074534D01*
X34394588Y-32123365D01*
X34385016Y-32171490D01*
X34370772Y-32218445D01*
X34351995Y-32263778D01*
X34328864Y-32307051D01*
X34301604Y-32347850D01*
X34270476Y-32385779D01*
X34235779Y-32420476D01*
X34197850Y-32451604D01*
X34157051Y-32478864D01*
X34113778Y-32501995D01*
X34068445Y-32520772D01*
X34021490Y-32535016D01*
X33973365Y-32544588D01*
X33924534Y-32549398D01*
X33900000Y-32549398D01*
X33900000Y-32550000D01*
X33350000Y-32550000D01*
X33350000Y-31050000D01*
X33900000Y-31050000D01*
X33900000Y-31050602D01*
G37*
%TD*%
D12*
%TO.C,REF\u002A\u002A*%
X43000000Y-35500000D03*
%TD*%
%TO.C,REF\u002A\u002A*%
X30000000Y-35500000D03*
%TD*%
%TO.C,C1*%
G36*
G01*
X39000000Y-31562500D02*
X39000000Y-32037500D01*
G75*
G02*
X38762500Y-32275000I-237500J0D01*
G01*
X38162500Y-32275000D01*
G75*
G02*
X37925000Y-32037500I0J237500D01*
G01*
X37925000Y-31562500D01*
G75*
G02*
X38162500Y-31325000I237500J0D01*
G01*
X38762500Y-31325000D01*
G75*
G02*
X39000000Y-31562500I0J-237500D01*
G01*
G37*
G36*
G01*
X37275000Y-31562500D02*
X37275000Y-32037500D01*
G75*
G02*
X37037500Y-32275000I-237500J0D01*
G01*
X36437500Y-32275000D01*
G75*
G02*
X36200000Y-32037500I0J237500D01*
G01*
X36200000Y-31562500D01*
G75*
G02*
X36437500Y-31325000I237500J0D01*
G01*
X37037500Y-31325000D01*
G75*
G02*
X37275000Y-31562500I0J-237500D01*
G01*
G37*
%TD*%
%TO.C,C2*%
G36*
G01*
X40237500Y-38337500D02*
X39762500Y-38337500D01*
G75*
G02*
X39525000Y-38100000I0J237500D01*
G01*
X39525000Y-37500000D01*
G75*
G02*
X39762500Y-37262500I237500J0D01*
G01*
X40237500Y-37262500D01*
G75*
G02*
X40475000Y-37500000I0J-237500D01*
G01*
X40475000Y-38100000D01*
G75*
G02*
X40237500Y-38337500I-237500J0D01*
G01*
G37*
G36*
G01*
X40237500Y-40062500D02*
X39762500Y-40062500D01*
G75*
G02*
X39525000Y-39825000I0J237500D01*
G01*
X39525000Y-39225000D01*
G75*
G02*
X39762500Y-38987500I237500J0D01*
G01*
X40237500Y-38987500D01*
G75*
G02*
X40475000Y-39225000I0J-237500D01*
G01*
X40475000Y-39825000D01*
G75*
G02*
X40237500Y-40062500I-237500J0D01*
G01*
G37*
%TD*%
%TO.C,R1*%
G36*
G01*
X42400000Y-31562500D02*
X42400000Y-32037500D01*
G75*
G02*
X42162500Y-32275000I-237500J0D01*
G01*
X41662500Y-32275000D01*
G75*
G02*
X41425000Y-32037500I0J237500D01*
G01*
X41425000Y-31562500D01*
G75*
G02*
X41662500Y-31325000I237500J0D01*
G01*
X42162500Y-31325000D01*
G75*
G02*
X42400000Y-31562500I0J-237500D01*
G01*
G37*
G36*
G01*
X40575000Y-31562500D02*
X40575000Y-32037500D01*
G75*
G02*
X40337500Y-32275000I-237500J0D01*
G01*
X39837500Y-32275000D01*
G75*
G02*
X39600000Y-32037500I0J237500D01*
G01*
X39600000Y-31562500D01*
G75*
G02*
X39837500Y-31325000I237500J0D01*
G01*
X40337500Y-31325000D01*
G75*
G02*
X40575000Y-31562500I0J-237500D01*
G01*
G37*
%TD*%
%TO.C,U1*%
G36*
G01*
X34125000Y-34600000D02*
X34125000Y-34450000D01*
G75*
G02*
X34200000Y-34375000I75000J0D01*
G01*
X34875000Y-34375000D01*
G75*
G02*
X34950000Y-34450000I0J-75000D01*
G01*
X34950000Y-34600000D01*
G75*
G02*
X34875000Y-34675000I-75000J0D01*
G01*
X34200000Y-34675000D01*
G75*
G02*
X34125000Y-34600000I0J75000D01*
G01*
G37*
G36*
G01*
X34125000Y-35250000D02*
X34125000Y-35100000D01*
G75*
G02*
X34200000Y-35025000I75000J0D01*
G01*
X34875000Y-35025000D01*
G75*
G02*
X34950000Y-35100000I0J-75000D01*
G01*
X34950000Y-35250000D01*
G75*
G02*
X34875000Y-35325000I-75000J0D01*
G01*
X34200000Y-35325000D01*
G75*
G02*
X34125000Y-35250000I0J75000D01*
G01*
G37*
G36*
G01*
X34125000Y-35900000D02*
X34125000Y-35750000D01*
G75*
G02*
X34200000Y-35675000I75000J0D01*
G01*
X34875000Y-35675000D01*
G75*
G02*
X34950000Y-35750000I0J-75000D01*
G01*
X34950000Y-35900000D01*
G75*
G02*
X34875000Y-35975000I-75000J0D01*
G01*
X34200000Y-35975000D01*
G75*
G02*
X34125000Y-35900000I0J75000D01*
G01*
G37*
G36*
G01*
X34125000Y-36550000D02*
X34125000Y-36400000D01*
G75*
G02*
X34200000Y-36325000I75000J0D01*
G01*
X34875000Y-36325000D01*
G75*
G02*
X34950000Y-36400000I0J-75000D01*
G01*
X34950000Y-36550000D01*
G75*
G02*
X34875000Y-36625000I-75000J0D01*
G01*
X34200000Y-36625000D01*
G75*
G02*
X34125000Y-36550000I0J75000D01*
G01*
G37*
G36*
G01*
X35375000Y-37800000D02*
X35375000Y-37125000D01*
G75*
G02*
X35450000Y-37050000I75000J0D01*
G01*
X35600000Y-37050000D01*
G75*
G02*
X35675000Y-37125000I0J-75000D01*
G01*
X35675000Y-37800000D01*
G75*
G02*
X35600000Y-37875000I-75000J0D01*
G01*
X35450000Y-37875000D01*
G75*
G02*
X35375000Y-37800000I0J75000D01*
G01*
G37*
G36*
G01*
X36025000Y-37800000D02*
X36025000Y-37125000D01*
G75*
G02*
X36100000Y-37050000I75000J0D01*
G01*
X36250000Y-37050000D01*
G75*
G02*
X36325000Y-37125000I0J-75000D01*
G01*
X36325000Y-37800000D01*
G75*
G02*
X36250000Y-37875000I-75000J0D01*
G01*
X36100000Y-37875000D01*
G75*
G02*
X36025000Y-37800000I0J75000D01*
G01*
G37*
G36*
G01*
X36675000Y-37800000D02*
X36675000Y-37125000D01*
G75*
G02*
X36750000Y-37050000I75000J0D01*
G01*
X36900000Y-37050000D01*
G75*
G02*
X36975000Y-37125000I0J-75000D01*
G01*
X36975000Y-37800000D01*
G75*
G02*
X36900000Y-37875000I-75000J0D01*
G01*
X36750000Y-37875000D01*
G75*
G02*
X36675000Y-37800000I0J75000D01*
G01*
G37*
G36*
G01*
X37325000Y-37800000D02*
X37325000Y-37125000D01*
G75*
G02*
X37400000Y-37050000I75000J0D01*
G01*
X37550000Y-37050000D01*
G75*
G02*
X37625000Y-37125000I0J-75000D01*
G01*
X37625000Y-37800000D01*
G75*
G02*
X37550000Y-37875000I-75000J0D01*
G01*
X37400000Y-37875000D01*
G75*
G02*
X37325000Y-37800000I0J75000D01*
G01*
G37*
G36*
G01*
X38050000Y-36550000D02*
X38050000Y-36400000D01*
G75*
G02*
X38125000Y-36325000I75000J0D01*
G01*
X38800000Y-36325000D01*
G75*
G02*
X38875000Y-36400000I0J-75000D01*
G01*
X38875000Y-36550000D01*
G75*
G02*
X38800000Y-36625000I-75000J0D01*
G01*
X38125000Y-36625000D01*
G75*
G02*
X38050000Y-36550000I0J75000D01*
G01*
G37*
G36*
G01*
X38050000Y-35900000D02*
X38050000Y-35750000D01*
G75*
G02*
X38125000Y-35675000I75000J0D01*
G01*
X38800000Y-35675000D01*
G75*
G02*
X38875000Y-35750000I0J-75000D01*
G01*
X38875000Y-35900000D01*
G75*
G02*
X38800000Y-35975000I-75000J0D01*
G01*
X38125000Y-35975000D01*
G75*
G02*
X38050000Y-35900000I0J75000D01*
G01*
G37*
G36*
G01*
X38050000Y-35250000D02*
X38050000Y-35100000D01*
G75*
G02*
X38125000Y-35025000I75000J0D01*
G01*
X38800000Y-35025000D01*
G75*
G02*
X38875000Y-35100000I0J-75000D01*
G01*
X38875000Y-35250000D01*
G75*
G02*
X38800000Y-35325000I-75000J0D01*
G01*
X38125000Y-35325000D01*
G75*
G02*
X38050000Y-35250000I0J75000D01*
G01*
G37*
G36*
G01*
X38050000Y-34600000D02*
X38050000Y-34450000D01*
G75*
G02*
X38125000Y-34375000I75000J0D01*
G01*
X38800000Y-34375000D01*
G75*
G02*
X38875000Y-34450000I0J-75000D01*
G01*
X38875000Y-34600000D01*
G75*
G02*
X38800000Y-34675000I-75000J0D01*
G01*
X38125000Y-34675000D01*
G75*
G02*
X38050000Y-34600000I0J75000D01*
G01*
G37*
G36*
G01*
X37325000Y-33875000D02*
X37325000Y-33200000D01*
G75*
G02*
X37400000Y-33125000I75000J0D01*
G01*
X37550000Y-33125000D01*
G75*
G02*
X37625000Y-33200000I0J-75000D01*
G01*
X37625000Y-33875000D01*
G75*
G02*
X37550000Y-33950000I-75000J0D01*
G01*
X37400000Y-33950000D01*
G75*
G02*
X37325000Y-33875000I0J75000D01*
G01*
G37*
G36*
G01*
X36675000Y-33875000D02*
X36675000Y-33200000D01*
G75*
G02*
X36750000Y-33125000I75000J0D01*
G01*
X36900000Y-33125000D01*
G75*
G02*
X36975000Y-33200000I0J-75000D01*
G01*
X36975000Y-33875000D01*
G75*
G02*
X36900000Y-33950000I-75000J0D01*
G01*
X36750000Y-33950000D01*
G75*
G02*
X36675000Y-33875000I0J75000D01*
G01*
G37*
G36*
G01*
X36025000Y-33875000D02*
X36025000Y-33200000D01*
G75*
G02*
X36100000Y-33125000I75000J0D01*
G01*
X36250000Y-33125000D01*
G75*
G02*
X36325000Y-33200000I0J-75000D01*
G01*
X36325000Y-33875000D01*
G75*
G02*
X36250000Y-33950000I-75000J0D01*
G01*
X36100000Y-33950000D01*
G75*
G02*
X36025000Y-33875000I0J75000D01*
G01*
G37*
G36*
G01*
X35375000Y-33875000D02*
X35375000Y-33200000D01*
G75*
G02*
X35450000Y-33125000I75000J0D01*
G01*
X35600000Y-33125000D01*
G75*
G02*
X35675000Y-33200000I0J-75000D01*
G01*
X35675000Y-33875000D01*
G75*
G02*
X35600000Y-33950000I-75000J0D01*
G01*
X35450000Y-33950000D01*
G75*
G02*
X35375000Y-33875000I0J75000D01*
G01*
G37*
D13*
X36500000Y-35500000D03*
%TD*%
M02*
