%TF.GenerationSoftware,KiCad,Pcbnew,5.1.10*%
%TF.CreationDate,2021-12-10T14:23:33+01:00*%
%TF.ProjectId,angle-sensor-board,616e676c-652d-4736-956e-736f722d626f,rev?*%
%TF.SameCoordinates,Original*%
%TF.FileFunction,Paste,Bot*%
%TF.FilePolarity,Positive*%
%FSLAX46Y46*%
G04 Gerber Fmt 4.6, Leading zero omitted, Abs format (unit mm)*
G04 Created by KiCad (PCBNEW 5.1.10) date 2021-12-10 14:23:33*
%MOMM*%
%LPD*%
G01*
G04 APERTURE LIST*
G04 APERTURE END LIST*
%TO.C,D1*%
G36*
G01*
X35075000Y-40462500D02*
X35075000Y-40037500D01*
G75*
G02*
X35287500Y-39825000I212500J0D01*
G01*
X36087500Y-39825000D01*
G75*
G02*
X36300000Y-40037500I0J-212500D01*
G01*
X36300000Y-40462500D01*
G75*
G02*
X36087500Y-40675000I-212500J0D01*
G01*
X35287500Y-40675000D01*
G75*
G02*
X35075000Y-40462500I0J212500D01*
G01*
G37*
G36*
G01*
X36700000Y-40462500D02*
X36700000Y-40037500D01*
G75*
G02*
X36912500Y-39825000I212500J0D01*
G01*
X37712500Y-39825000D01*
G75*
G02*
X37925000Y-40037500I0J-212500D01*
G01*
X37925000Y-40462500D01*
G75*
G02*
X37712500Y-40675000I-212500J0D01*
G01*
X36912500Y-40675000D01*
G75*
G02*
X36700000Y-40462500I0J212500D01*
G01*
G37*
%TD*%
%TO.C,J1*%
G36*
G01*
X33600000Y-35500000D02*
X33600000Y-34300000D01*
G75*
G02*
X33800000Y-34100000I200000J0D01*
G01*
X34200000Y-34100000D01*
G75*
G02*
X34400000Y-34300000I0J-200000D01*
G01*
X34400000Y-35500000D01*
G75*
G02*
X34200000Y-35700000I-200000J0D01*
G01*
X33800000Y-35700000D01*
G75*
G02*
X33600000Y-35500000I0J200000D01*
G01*
G37*
G36*
G01*
X34850000Y-35500000D02*
X34850000Y-34300000D01*
G75*
G02*
X35050000Y-34100000I200000J0D01*
G01*
X35450000Y-34100000D01*
G75*
G02*
X35650000Y-34300000I0J-200000D01*
G01*
X35650000Y-35500000D01*
G75*
G02*
X35450000Y-35700000I-200000J0D01*
G01*
X35050000Y-35700000D01*
G75*
G02*
X34850000Y-35500000I0J200000D01*
G01*
G37*
G36*
G01*
X36100000Y-35500000D02*
X36100000Y-34300000D01*
G75*
G02*
X36300000Y-34100000I200000J0D01*
G01*
X36700000Y-34100000D01*
G75*
G02*
X36900000Y-34300000I0J-200000D01*
G01*
X36900000Y-35500000D01*
G75*
G02*
X36700000Y-35700000I-200000J0D01*
G01*
X36300000Y-35700000D01*
G75*
G02*
X36100000Y-35500000I0J200000D01*
G01*
G37*
G36*
G01*
X37350000Y-35500000D02*
X37350000Y-34300000D01*
G75*
G02*
X37550000Y-34100000I200000J0D01*
G01*
X37950000Y-34100000D01*
G75*
G02*
X38150000Y-34300000I0J-200000D01*
G01*
X38150000Y-35500000D01*
G75*
G02*
X37950000Y-35700000I-200000J0D01*
G01*
X37550000Y-35700000D01*
G75*
G02*
X37350000Y-35500000I0J200000D01*
G01*
G37*
G36*
G01*
X38600000Y-35500000D02*
X38600000Y-34300000D01*
G75*
G02*
X38800000Y-34100000I200000J0D01*
G01*
X39200000Y-34100000D01*
G75*
G02*
X39400000Y-34300000I0J-200000D01*
G01*
X39400000Y-35500000D01*
G75*
G02*
X39200000Y-35700000I-200000J0D01*
G01*
X38800000Y-35700000D01*
G75*
G02*
X38600000Y-35500000I0J200000D01*
G01*
G37*
G36*
G01*
X30400000Y-33250000D02*
X30400000Y-30750000D01*
G75*
G02*
X30650000Y-30500000I250000J0D01*
G01*
X32250000Y-30500000D01*
G75*
G02*
X32500000Y-30750000I0J-250000D01*
G01*
X32500000Y-33250000D01*
G75*
G02*
X32250000Y-33500000I-250000J0D01*
G01*
X30650000Y-33500000D01*
G75*
G02*
X30400000Y-33250000I0J250000D01*
G01*
G37*
G36*
G01*
X40500000Y-33250000D02*
X40500000Y-30750000D01*
G75*
G02*
X40750000Y-30500000I250000J0D01*
G01*
X42350000Y-30500000D01*
G75*
G02*
X42600000Y-30750000I0J-250000D01*
G01*
X42600000Y-33250000D01*
G75*
G02*
X42350000Y-33500000I-250000J0D01*
G01*
X40750000Y-33500000D01*
G75*
G02*
X40500000Y-33250000I0J250000D01*
G01*
G37*
%TD*%
%TO.C,R2*%
G36*
G01*
X32075000Y-40012500D02*
X32075000Y-40487500D01*
G75*
G02*
X31837500Y-40725000I-237500J0D01*
G01*
X31337500Y-40725000D01*
G75*
G02*
X31100000Y-40487500I0J237500D01*
G01*
X31100000Y-40012500D01*
G75*
G02*
X31337500Y-39775000I237500J0D01*
G01*
X31837500Y-39775000D01*
G75*
G02*
X32075000Y-40012500I0J-237500D01*
G01*
G37*
G36*
G01*
X33900000Y-40012500D02*
X33900000Y-40487500D01*
G75*
G02*
X33662500Y-40725000I-237500J0D01*
G01*
X33162500Y-40725000D01*
G75*
G02*
X32925000Y-40487500I0J237500D01*
G01*
X32925000Y-40012500D01*
G75*
G02*
X33162500Y-39775000I237500J0D01*
G01*
X33662500Y-39775000D01*
G75*
G02*
X33900000Y-40012500I0J-237500D01*
G01*
G37*
%TD*%
%TO.C,R3*%
G36*
G01*
X35000000Y-38037500D02*
X35000000Y-37562500D01*
G75*
G02*
X35237500Y-37325000I237500J0D01*
G01*
X35737500Y-37325000D01*
G75*
G02*
X35975000Y-37562500I0J-237500D01*
G01*
X35975000Y-38037500D01*
G75*
G02*
X35737500Y-38275000I-237500J0D01*
G01*
X35237500Y-38275000D01*
G75*
G02*
X35000000Y-38037500I0J237500D01*
G01*
G37*
G36*
G01*
X36825000Y-38037500D02*
X36825000Y-37562500D01*
G75*
G02*
X37062500Y-37325000I237500J0D01*
G01*
X37562500Y-37325000D01*
G75*
G02*
X37800000Y-37562500I0J-237500D01*
G01*
X37800000Y-38037500D01*
G75*
G02*
X37562500Y-38275000I-237500J0D01*
G01*
X37062500Y-38275000D01*
G75*
G02*
X36825000Y-38037500I0J237500D01*
G01*
G37*
%TD*%
M02*
