%TF.GenerationSoftware,KiCad,Pcbnew,5.1.10*%
%TF.CreationDate,2021-12-10T14:23:33+01:00*%
%TF.ProjectId,angle-sensor-board,616e676c-652d-4736-956e-736f722d626f,rev?*%
%TF.SameCoordinates,Original*%
%TF.FileFunction,Copper,L1,Top*%
%TF.FilePolarity,Positive*%
%FSLAX46Y46*%
G04 Gerber Fmt 4.6, Leading zero omitted, Abs format (unit mm)*
G04 Created by KiCad (PCBNEW 5.1.10) date 2021-12-10 14:23:33*
%MOMM*%
%LPD*%
G01*
G04 APERTURE LIST*
%TA.AperFunction,EtchedComponent*%
%ADD10C,0.100000*%
%TD*%
%TA.AperFunction,SMDPad,CuDef*%
%ADD11C,0.100000*%
%TD*%
%TA.AperFunction,SMDPad,CuDef*%
%ADD12R,1.000000X1.500000*%
%TD*%
%TA.AperFunction,SMDPad,CuDef*%
%ADD13R,2.700000X2.700000*%
%TD*%
%TA.AperFunction,ViaPad*%
%ADD14C,0.500000*%
%TD*%
%TA.AperFunction,Conductor*%
%ADD15C,0.300000*%
%TD*%
%TA.AperFunction,Conductor*%
%ADD16C,0.150000*%
%TD*%
%TA.AperFunction,Conductor*%
%ADD17C,0.200000*%
%TD*%
%TA.AperFunction,Conductor*%
%ADD18C,0.100000*%
%TD*%
%TA.AperFunction,Conductor*%
%ADD19C,0.025400*%
%TD*%
G04 APERTURE END LIST*
D10*
%TO.C,JP2*%
G36*
X31600000Y-38800000D02*
G01*
X32100000Y-38800000D01*
X32100000Y-39400000D01*
X31600000Y-39400000D01*
X31600000Y-38800000D01*
G37*
%TO.C,JP1*%
G36*
X31700000Y-31500000D02*
G01*
X32200000Y-31500000D01*
X32200000Y-32100000D01*
X31700000Y-32100000D01*
X31700000Y-31500000D01*
G37*
%TD*%
%TA.AperFunction,SMDPad,CuDef*%
D11*
%TO.P,JP2,1*%
%TO.N,+3V3*%
G36*
X31750000Y-39850000D02*
G01*
X31200000Y-39850000D01*
X31200000Y-39849398D01*
X31175466Y-39849398D01*
X31126635Y-39844588D01*
X31078510Y-39835016D01*
X31031555Y-39820772D01*
X30986222Y-39801995D01*
X30942949Y-39778864D01*
X30902150Y-39751604D01*
X30864221Y-39720476D01*
X30829524Y-39685779D01*
X30798396Y-39647850D01*
X30771136Y-39607051D01*
X30748005Y-39563778D01*
X30729228Y-39518445D01*
X30714984Y-39471490D01*
X30705412Y-39423365D01*
X30700602Y-39374534D01*
X30700602Y-39350000D01*
X30700000Y-39350000D01*
X30700000Y-38850000D01*
X30700602Y-38850000D01*
X30700602Y-38825466D01*
X30705412Y-38776635D01*
X30714984Y-38728510D01*
X30729228Y-38681555D01*
X30748005Y-38636222D01*
X30771136Y-38592949D01*
X30798396Y-38552150D01*
X30829524Y-38514221D01*
X30864221Y-38479524D01*
X30902150Y-38448396D01*
X30942949Y-38421136D01*
X30986222Y-38398005D01*
X31031555Y-38379228D01*
X31078510Y-38364984D01*
X31126635Y-38355412D01*
X31175466Y-38350602D01*
X31200000Y-38350602D01*
X31200000Y-38350000D01*
X31750000Y-38350000D01*
X31750000Y-39850000D01*
G37*
%TD.AperFunction*%
D12*
%TO.P,JP2,2*%
%TO.N,Net-(JP2-Pad2)*%
X32500000Y-39100000D03*
%TA.AperFunction,SMDPad,CuDef*%
D11*
%TO.P,JP2,3*%
%TO.N,/MISO*%
G36*
X33800000Y-38350602D02*
G01*
X33824534Y-38350602D01*
X33873365Y-38355412D01*
X33921490Y-38364984D01*
X33968445Y-38379228D01*
X34013778Y-38398005D01*
X34057051Y-38421136D01*
X34097850Y-38448396D01*
X34135779Y-38479524D01*
X34170476Y-38514221D01*
X34201604Y-38552150D01*
X34228864Y-38592949D01*
X34251995Y-38636222D01*
X34270772Y-38681555D01*
X34285016Y-38728510D01*
X34294588Y-38776635D01*
X34299398Y-38825466D01*
X34299398Y-38850000D01*
X34300000Y-38850000D01*
X34300000Y-39350000D01*
X34299398Y-39350000D01*
X34299398Y-39374534D01*
X34294588Y-39423365D01*
X34285016Y-39471490D01*
X34270772Y-39518445D01*
X34251995Y-39563778D01*
X34228864Y-39607051D01*
X34201604Y-39647850D01*
X34170476Y-39685779D01*
X34135779Y-39720476D01*
X34097850Y-39751604D01*
X34057051Y-39778864D01*
X34013778Y-39801995D01*
X33968445Y-39820772D01*
X33921490Y-39835016D01*
X33873365Y-39844588D01*
X33824534Y-39849398D01*
X33800000Y-39849398D01*
X33800000Y-39850000D01*
X33250000Y-39850000D01*
X33250000Y-38350000D01*
X33800000Y-38350000D01*
X33800000Y-38350602D01*
G37*
%TD.AperFunction*%
%TD*%
%TA.AperFunction,SMDPad,CuDef*%
%TO.P,JP1,1*%
%TO.N,+3V3*%
G36*
X31850000Y-32550000D02*
G01*
X31300000Y-32550000D01*
X31300000Y-32549398D01*
X31275466Y-32549398D01*
X31226635Y-32544588D01*
X31178510Y-32535016D01*
X31131555Y-32520772D01*
X31086222Y-32501995D01*
X31042949Y-32478864D01*
X31002150Y-32451604D01*
X30964221Y-32420476D01*
X30929524Y-32385779D01*
X30898396Y-32347850D01*
X30871136Y-32307051D01*
X30848005Y-32263778D01*
X30829228Y-32218445D01*
X30814984Y-32171490D01*
X30805412Y-32123365D01*
X30800602Y-32074534D01*
X30800602Y-32050000D01*
X30800000Y-32050000D01*
X30800000Y-31550000D01*
X30800602Y-31550000D01*
X30800602Y-31525466D01*
X30805412Y-31476635D01*
X30814984Y-31428510D01*
X30829228Y-31381555D01*
X30848005Y-31336222D01*
X30871136Y-31292949D01*
X30898396Y-31252150D01*
X30929524Y-31214221D01*
X30964221Y-31179524D01*
X31002150Y-31148396D01*
X31042949Y-31121136D01*
X31086222Y-31098005D01*
X31131555Y-31079228D01*
X31178510Y-31064984D01*
X31226635Y-31055412D01*
X31275466Y-31050602D01*
X31300000Y-31050602D01*
X31300000Y-31050000D01*
X31850000Y-31050000D01*
X31850000Y-32550000D01*
G37*
%TD.AperFunction*%
D12*
%TO.P,JP1,2*%
%TO.N,Net-(JP1-Pad2)*%
X32600000Y-31800000D03*
%TA.AperFunction,SMDPad,CuDef*%
D11*
%TO.P,JP1,3*%
%TO.N,GND*%
G36*
X33900000Y-31050602D02*
G01*
X33924534Y-31050602D01*
X33973365Y-31055412D01*
X34021490Y-31064984D01*
X34068445Y-31079228D01*
X34113778Y-31098005D01*
X34157051Y-31121136D01*
X34197850Y-31148396D01*
X34235779Y-31179524D01*
X34270476Y-31214221D01*
X34301604Y-31252150D01*
X34328864Y-31292949D01*
X34351995Y-31336222D01*
X34370772Y-31381555D01*
X34385016Y-31428510D01*
X34394588Y-31476635D01*
X34399398Y-31525466D01*
X34399398Y-31550000D01*
X34400000Y-31550000D01*
X34400000Y-32050000D01*
X34399398Y-32050000D01*
X34399398Y-32074534D01*
X34394588Y-32123365D01*
X34385016Y-32171490D01*
X34370772Y-32218445D01*
X34351995Y-32263778D01*
X34328864Y-32307051D01*
X34301604Y-32347850D01*
X34270476Y-32385779D01*
X34235779Y-32420476D01*
X34197850Y-32451604D01*
X34157051Y-32478864D01*
X34113778Y-32501995D01*
X34068445Y-32520772D01*
X34021490Y-32535016D01*
X33973365Y-32544588D01*
X33924534Y-32549398D01*
X33900000Y-32549398D01*
X33900000Y-32550000D01*
X33350000Y-32550000D01*
X33350000Y-31050000D01*
X33900000Y-31050000D01*
X33900000Y-31050602D01*
G37*
%TD.AperFunction*%
%TD*%
%TO.P,C1,1*%
%TO.N,Net-(C1-Pad1)*%
%TA.AperFunction,SMDPad,CuDef*%
G36*
G01*
X39000000Y-31562500D02*
X39000000Y-32037500D01*
G75*
G02*
X38762500Y-32275000I-237500J0D01*
G01*
X38162500Y-32275000D01*
G75*
G02*
X37925000Y-32037500I0J237500D01*
G01*
X37925000Y-31562500D01*
G75*
G02*
X38162500Y-31325000I237500J0D01*
G01*
X38762500Y-31325000D01*
G75*
G02*
X39000000Y-31562500I0J-237500D01*
G01*
G37*
%TD.AperFunction*%
%TO.P,C1,2*%
%TO.N,GND*%
%TA.AperFunction,SMDPad,CuDef*%
G36*
G01*
X37275000Y-31562500D02*
X37275000Y-32037500D01*
G75*
G02*
X37037500Y-32275000I-237500J0D01*
G01*
X36437500Y-32275000D01*
G75*
G02*
X36200000Y-32037500I0J237500D01*
G01*
X36200000Y-31562500D01*
G75*
G02*
X36437500Y-31325000I237500J0D01*
G01*
X37037500Y-31325000D01*
G75*
G02*
X37275000Y-31562500I0J-237500D01*
G01*
G37*
%TD.AperFunction*%
%TD*%
%TO.P,C2,2*%
%TO.N,+3V3*%
%TA.AperFunction,SMDPad,CuDef*%
G36*
G01*
X40237500Y-38337500D02*
X39762500Y-38337500D01*
G75*
G02*
X39525000Y-38100000I0J237500D01*
G01*
X39525000Y-37500000D01*
G75*
G02*
X39762500Y-37262500I237500J0D01*
G01*
X40237500Y-37262500D01*
G75*
G02*
X40475000Y-37500000I0J-237500D01*
G01*
X40475000Y-38100000D01*
G75*
G02*
X40237500Y-38337500I-237500J0D01*
G01*
G37*
%TD.AperFunction*%
%TO.P,C2,1*%
%TO.N,GND*%
%TA.AperFunction,SMDPad,CuDef*%
G36*
G01*
X40237500Y-40062500D02*
X39762500Y-40062500D01*
G75*
G02*
X39525000Y-39825000I0J237500D01*
G01*
X39525000Y-39225000D01*
G75*
G02*
X39762500Y-38987500I237500J0D01*
G01*
X40237500Y-38987500D01*
G75*
G02*
X40475000Y-39225000I0J-237500D01*
G01*
X40475000Y-39825000D01*
G75*
G02*
X40237500Y-40062500I-237500J0D01*
G01*
G37*
%TD.AperFunction*%
%TD*%
%TO.P,R1,1*%
%TO.N,+3V3*%
%TA.AperFunction,SMDPad,CuDef*%
G36*
G01*
X42400000Y-31562500D02*
X42400000Y-32037500D01*
G75*
G02*
X42162500Y-32275000I-237500J0D01*
G01*
X41662500Y-32275000D01*
G75*
G02*
X41425000Y-32037500I0J237500D01*
G01*
X41425000Y-31562500D01*
G75*
G02*
X41662500Y-31325000I237500J0D01*
G01*
X42162500Y-31325000D01*
G75*
G02*
X42400000Y-31562500I0J-237500D01*
G01*
G37*
%TD.AperFunction*%
%TO.P,R1,2*%
%TO.N,Net-(C1-Pad1)*%
%TA.AperFunction,SMDPad,CuDef*%
G36*
G01*
X40575000Y-31562500D02*
X40575000Y-32037500D01*
G75*
G02*
X40337500Y-32275000I-237500J0D01*
G01*
X39837500Y-32275000D01*
G75*
G02*
X39600000Y-32037500I0J237500D01*
G01*
X39600000Y-31562500D01*
G75*
G02*
X39837500Y-31325000I237500J0D01*
G01*
X40337500Y-31325000D01*
G75*
G02*
X40575000Y-31562500I0J-237500D01*
G01*
G37*
%TD.AperFunction*%
%TD*%
%TO.P,U1,1*%
%TO.N,Net-(JP2-Pad2)*%
%TA.AperFunction,SMDPad,CuDef*%
G36*
G01*
X34125000Y-34600000D02*
X34125000Y-34450000D01*
G75*
G02*
X34200000Y-34375000I75000J0D01*
G01*
X34875000Y-34375000D01*
G75*
G02*
X34950000Y-34450000I0J-75000D01*
G01*
X34950000Y-34600000D01*
G75*
G02*
X34875000Y-34675000I-75000J0D01*
G01*
X34200000Y-34675000D01*
G75*
G02*
X34125000Y-34600000I0J75000D01*
G01*
G37*
%TD.AperFunction*%
%TO.P,U1,2*%
%TO.N,/MISO*%
%TA.AperFunction,SMDPad,CuDef*%
G36*
G01*
X34125000Y-35250000D02*
X34125000Y-35100000D01*
G75*
G02*
X34200000Y-35025000I75000J0D01*
G01*
X34875000Y-35025000D01*
G75*
G02*
X34950000Y-35100000I0J-75000D01*
G01*
X34950000Y-35250000D01*
G75*
G02*
X34875000Y-35325000I-75000J0D01*
G01*
X34200000Y-35325000D01*
G75*
G02*
X34125000Y-35250000I0J75000D01*
G01*
G37*
%TD.AperFunction*%
%TO.P,U1,3*%
%TO.N,/SCK*%
%TA.AperFunction,SMDPad,CuDef*%
G36*
G01*
X34125000Y-35900000D02*
X34125000Y-35750000D01*
G75*
G02*
X34200000Y-35675000I75000J0D01*
G01*
X34875000Y-35675000D01*
G75*
G02*
X34950000Y-35750000I0J-75000D01*
G01*
X34950000Y-35900000D01*
G75*
G02*
X34875000Y-35975000I-75000J0D01*
G01*
X34200000Y-35975000D01*
G75*
G02*
X34125000Y-35900000I0J75000D01*
G01*
G37*
%TD.AperFunction*%
%TO.P,U1,4*%
%TO.N,/SS*%
%TA.AperFunction,SMDPad,CuDef*%
G36*
G01*
X34125000Y-36550000D02*
X34125000Y-36400000D01*
G75*
G02*
X34200000Y-36325000I75000J0D01*
G01*
X34875000Y-36325000D01*
G75*
G02*
X34950000Y-36400000I0J-75000D01*
G01*
X34950000Y-36550000D01*
G75*
G02*
X34875000Y-36625000I-75000J0D01*
G01*
X34200000Y-36625000D01*
G75*
G02*
X34125000Y-36550000I0J75000D01*
G01*
G37*
%TD.AperFunction*%
%TO.P,U1,5*%
%TO.N,Net-(U1-Pad5)*%
%TA.AperFunction,SMDPad,CuDef*%
G36*
G01*
X35375000Y-37800000D02*
X35375000Y-37125000D01*
G75*
G02*
X35450000Y-37050000I75000J0D01*
G01*
X35600000Y-37050000D01*
G75*
G02*
X35675000Y-37125000I0J-75000D01*
G01*
X35675000Y-37800000D01*
G75*
G02*
X35600000Y-37875000I-75000J0D01*
G01*
X35450000Y-37875000D01*
G75*
G02*
X35375000Y-37800000I0J75000D01*
G01*
G37*
%TD.AperFunction*%
%TO.P,U1,6*%
%TO.N,Net-(U1-Pad6)*%
%TA.AperFunction,SMDPad,CuDef*%
G36*
G01*
X36025000Y-37800000D02*
X36025000Y-37125000D01*
G75*
G02*
X36100000Y-37050000I75000J0D01*
G01*
X36250000Y-37050000D01*
G75*
G02*
X36325000Y-37125000I0J-75000D01*
G01*
X36325000Y-37800000D01*
G75*
G02*
X36250000Y-37875000I-75000J0D01*
G01*
X36100000Y-37875000D01*
G75*
G02*
X36025000Y-37800000I0J75000D01*
G01*
G37*
%TD.AperFunction*%
%TO.P,U1,7*%
%TO.N,Net-(U1-Pad7)*%
%TA.AperFunction,SMDPad,CuDef*%
G36*
G01*
X36675000Y-37800000D02*
X36675000Y-37125000D01*
G75*
G02*
X36750000Y-37050000I75000J0D01*
G01*
X36900000Y-37050000D01*
G75*
G02*
X36975000Y-37125000I0J-75000D01*
G01*
X36975000Y-37800000D01*
G75*
G02*
X36900000Y-37875000I-75000J0D01*
G01*
X36750000Y-37875000D01*
G75*
G02*
X36675000Y-37800000I0J75000D01*
G01*
G37*
%TD.AperFunction*%
%TO.P,U1,8*%
%TO.N,Net-(U1-Pad8)*%
%TA.AperFunction,SMDPad,CuDef*%
G36*
G01*
X37325000Y-37800000D02*
X37325000Y-37125000D01*
G75*
G02*
X37400000Y-37050000I75000J0D01*
G01*
X37550000Y-37050000D01*
G75*
G02*
X37625000Y-37125000I0J-75000D01*
G01*
X37625000Y-37800000D01*
G75*
G02*
X37550000Y-37875000I-75000J0D01*
G01*
X37400000Y-37875000D01*
G75*
G02*
X37325000Y-37800000I0J75000D01*
G01*
G37*
%TD.AperFunction*%
%TO.P,U1,9*%
%TO.N,GND*%
%TA.AperFunction,SMDPad,CuDef*%
G36*
G01*
X38050000Y-36550000D02*
X38050000Y-36400000D01*
G75*
G02*
X38125000Y-36325000I75000J0D01*
G01*
X38800000Y-36325000D01*
G75*
G02*
X38875000Y-36400000I0J-75000D01*
G01*
X38875000Y-36550000D01*
G75*
G02*
X38800000Y-36625000I-75000J0D01*
G01*
X38125000Y-36625000D01*
G75*
G02*
X38050000Y-36550000I0J75000D01*
G01*
G37*
%TD.AperFunction*%
%TO.P,U1,10*%
%TO.N,+3V3*%
%TA.AperFunction,SMDPad,CuDef*%
G36*
G01*
X38050000Y-35900000D02*
X38050000Y-35750000D01*
G75*
G02*
X38125000Y-35675000I75000J0D01*
G01*
X38800000Y-35675000D01*
G75*
G02*
X38875000Y-35750000I0J-75000D01*
G01*
X38875000Y-35900000D01*
G75*
G02*
X38800000Y-35975000I-75000J0D01*
G01*
X38125000Y-35975000D01*
G75*
G02*
X38050000Y-35900000I0J75000D01*
G01*
G37*
%TD.AperFunction*%
%TO.P,U1,11*%
%TA.AperFunction,SMDPad,CuDef*%
G36*
G01*
X38050000Y-35250000D02*
X38050000Y-35100000D01*
G75*
G02*
X38125000Y-35025000I75000J0D01*
G01*
X38800000Y-35025000D01*
G75*
G02*
X38875000Y-35100000I0J-75000D01*
G01*
X38875000Y-35250000D01*
G75*
G02*
X38800000Y-35325000I-75000J0D01*
G01*
X38125000Y-35325000D01*
G75*
G02*
X38050000Y-35250000I0J75000D01*
G01*
G37*
%TD.AperFunction*%
%TO.P,U1,12*%
%TO.N,Net-(C1-Pad1)*%
%TA.AperFunction,SMDPad,CuDef*%
G36*
G01*
X38050000Y-34600000D02*
X38050000Y-34450000D01*
G75*
G02*
X38125000Y-34375000I75000J0D01*
G01*
X38800000Y-34375000D01*
G75*
G02*
X38875000Y-34450000I0J-75000D01*
G01*
X38875000Y-34600000D01*
G75*
G02*
X38800000Y-34675000I-75000J0D01*
G01*
X38125000Y-34675000D01*
G75*
G02*
X38050000Y-34600000I0J75000D01*
G01*
G37*
%TD.AperFunction*%
%TO.P,U1,13*%
%TO.N,GND*%
%TA.AperFunction,SMDPad,CuDef*%
G36*
G01*
X37325000Y-33875000D02*
X37325000Y-33200000D01*
G75*
G02*
X37400000Y-33125000I75000J0D01*
G01*
X37550000Y-33125000D01*
G75*
G02*
X37625000Y-33200000I0J-75000D01*
G01*
X37625000Y-33875000D01*
G75*
G02*
X37550000Y-33950000I-75000J0D01*
G01*
X37400000Y-33950000D01*
G75*
G02*
X37325000Y-33875000I0J75000D01*
G01*
G37*
%TD.AperFunction*%
%TO.P,U1,14*%
%TO.N,Net-(JP1-Pad2)*%
%TA.AperFunction,SMDPad,CuDef*%
G36*
G01*
X36675000Y-33875000D02*
X36675000Y-33200000D01*
G75*
G02*
X36750000Y-33125000I75000J0D01*
G01*
X36900000Y-33125000D01*
G75*
G02*
X36975000Y-33200000I0J-75000D01*
G01*
X36975000Y-33875000D01*
G75*
G02*
X36900000Y-33950000I-75000J0D01*
G01*
X36750000Y-33950000D01*
G75*
G02*
X36675000Y-33875000I0J75000D01*
G01*
G37*
%TD.AperFunction*%
%TO.P,U1,15*%
%TO.N,Net-(U1-Pad15)*%
%TA.AperFunction,SMDPad,CuDef*%
G36*
G01*
X36025000Y-33875000D02*
X36025000Y-33200000D01*
G75*
G02*
X36100000Y-33125000I75000J0D01*
G01*
X36250000Y-33125000D01*
G75*
G02*
X36325000Y-33200000I0J-75000D01*
G01*
X36325000Y-33875000D01*
G75*
G02*
X36250000Y-33950000I-75000J0D01*
G01*
X36100000Y-33950000D01*
G75*
G02*
X36025000Y-33875000I0J75000D01*
G01*
G37*
%TD.AperFunction*%
%TO.P,U1,16*%
%TO.N,Net-(U1-Pad16)*%
%TA.AperFunction,SMDPad,CuDef*%
G36*
G01*
X35375000Y-33875000D02*
X35375000Y-33200000D01*
G75*
G02*
X35450000Y-33125000I75000J0D01*
G01*
X35600000Y-33125000D01*
G75*
G02*
X35675000Y-33200000I0J-75000D01*
G01*
X35675000Y-33875000D01*
G75*
G02*
X35600000Y-33950000I-75000J0D01*
G01*
X35450000Y-33950000D01*
G75*
G02*
X35375000Y-33875000I0J75000D01*
G01*
G37*
%TD.AperFunction*%
D13*
%TO.P,U1,17*%
%TO.N,Net-(U1-Pad17)*%
X36500000Y-35500000D03*
%TD*%
D14*
%TO.N,GND*%
X39035876Y-33400000D03*
X37500000Y-32500000D03*
X30450000Y-38400000D03*
%TO.N,+3V3*%
X39200000Y-31000000D03*
X41000000Y-37800000D03*
X35200000Y-31000000D03*
X31900000Y-37500000D03*
%TO.N,/SCK*%
X33275021Y-35800000D03*
%TO.N,/SS*%
X33275021Y-36800000D03*
%TO.N,/MISO*%
X33750000Y-37850000D03*
%TD*%
D15*
%TO.N,Net-(C1-Pad1)*%
X38908735Y-34003287D02*
X38875350Y-34000000D01*
X39158211Y-34438879D02*
X39144911Y-34455086D01*
X38462500Y-33132463D02*
X38462500Y-33191045D01*
X38470185Y-31941669D02*
X38462500Y-31980311D01*
X38642811Y-31800000D02*
X38604169Y-31807685D01*
X38567770Y-31822762D02*
X38535011Y-31844650D01*
X39186160Y-34218568D02*
X39193046Y-34241267D01*
X39137673Y-34137673D02*
X39152722Y-34156010D01*
X38618053Y-33986544D02*
X38640123Y-33993239D01*
X38462500Y-33366791D02*
X38462500Y-33425373D01*
X39004730Y-34032407D02*
X39034314Y-34048220D01*
X38469259Y-33822374D02*
X38475954Y-33844444D01*
X38539402Y-33939402D02*
X38557230Y-33954033D01*
X39193853Y-34363522D02*
X39187767Y-34383585D01*
X38508464Y-33905267D02*
X38523095Y-33923095D01*
X39096446Y-34494860D02*
X39077955Y-34504743D01*
X38941636Y-34009832D02*
X38973737Y-34019569D01*
X38662743Y-33997739D02*
X38685695Y-34000000D01*
X39130086Y-34469911D02*
X39113879Y-34483212D01*
X38462500Y-33249627D02*
X38462500Y-33308209D01*
X38576405Y-33966846D02*
X38596744Y-33977718D01*
X39179744Y-34402956D02*
X39169860Y-34421446D01*
X38507151Y-31872510D02*
X38485262Y-31905269D01*
X39165900Y-34175733D02*
X39177082Y-34196653D01*
X39017959Y-34522944D02*
X38997094Y-34525000D01*
X38462500Y-33776802D02*
X38464760Y-33799754D01*
X39200000Y-34322094D02*
X39197944Y-34342959D01*
X39058585Y-34512767D02*
X39038522Y-34518854D01*
X39062207Y-34066857D02*
X39088138Y-34088138D01*
X39197674Y-34264532D02*
X39200000Y-34288138D01*
X38462500Y-33483955D02*
X38462500Y-33542537D01*
X38484780Y-33865752D02*
X38495651Y-33886092D01*
X39096446Y-34494860D02*
X39113879Y-34483212D01*
X39158211Y-34438879D02*
X39169860Y-34421446D01*
X38557230Y-33954033D02*
X38576405Y-33966846D01*
X38508464Y-33905267D02*
X38495651Y-33886092D01*
X39193853Y-34363522D02*
X39197944Y-34342959D01*
X38462500Y-33191045D02*
X38462500Y-33249627D01*
X38640123Y-33993239D02*
X38662743Y-33997739D01*
X38470185Y-31941669D02*
X38485262Y-31905269D01*
X39017959Y-34522944D02*
X39038522Y-34518854D01*
X38462500Y-33425373D02*
X38462500Y-33483955D01*
X38469259Y-33822374D02*
X38464760Y-33799754D01*
X39152722Y-34156010D02*
X39165900Y-34175733D01*
X39193046Y-34241267D02*
X39197674Y-34264532D01*
X38604169Y-31807685D02*
X38567770Y-31822762D01*
X39034314Y-34048220D02*
X39062207Y-34066857D01*
X38908735Y-34003287D02*
X38941636Y-34009832D01*
X38475954Y-33844444D02*
X38484780Y-33865752D01*
X39187767Y-34383585D02*
X39179744Y-34402956D01*
X38618053Y-33986544D02*
X38596744Y-33977718D01*
X38535011Y-31844650D02*
X38507151Y-31872510D01*
X39186160Y-34218568D02*
X39177082Y-34196653D01*
X38462500Y-33366791D02*
X38462500Y-33308209D01*
X39077955Y-34504743D02*
X39058585Y-34512767D01*
X39004730Y-34032407D02*
X38973737Y-34019569D01*
X38642811Y-31800000D02*
X40087500Y-31800000D01*
X38997094Y-34525000D02*
X38462500Y-34525000D01*
X39200000Y-34322094D02*
X39200000Y-34288138D01*
X39144911Y-34455086D02*
X39130086Y-34469911D01*
X38875350Y-34000000D02*
X38685695Y-34000000D01*
X39137673Y-34137673D02*
X39088138Y-34088138D01*
X38462500Y-33776802D02*
X38462500Y-33542537D01*
X38539402Y-33939402D02*
X38523095Y-33923095D01*
X38462500Y-33132463D02*
X38462500Y-31980311D01*
D16*
%TO.N,GND*%
X37473766Y-31909223D02*
X37475000Y-31921742D01*
X36772290Y-31800000D02*
X36776730Y-31800000D01*
X36774333Y-31802395D02*
X36772290Y-31800000D01*
X36776730Y-31800000D02*
X36774333Y-31802395D01*
X37441946Y-31841946D02*
X37449927Y-31851671D01*
X36768067Y-31830567D02*
X36762466Y-31826121D01*
X36766089Y-31825172D02*
X36768067Y-31830567D01*
X36762466Y-31826121D02*
X36766089Y-31825172D01*
X37456916Y-31862131D02*
X37462846Y-31873225D01*
X37467660Y-31884846D02*
X37471312Y-31896884D01*
X37378113Y-31803686D02*
X37390151Y-31807338D01*
X36727824Y-31800000D02*
X36733965Y-31800000D01*
X36726544Y-31802309D02*
X36727824Y-31800000D01*
X36733965Y-31800000D02*
X36726544Y-31802309D01*
X36684812Y-31800000D02*
X36705033Y-31800000D01*
X36699039Y-31801438D02*
X36684812Y-31800000D01*
X36705033Y-31800000D02*
X36699039Y-31801438D01*
X36763916Y-31816721D02*
X36768641Y-31814057D01*
X36766445Y-31819541D02*
X36763916Y-31816721D01*
X36768641Y-31814057D02*
X36766445Y-31819541D01*
X36755340Y-31821400D02*
X36748770Y-31817880D01*
X36757427Y-31818188D02*
X36755340Y-31821400D01*
X36748770Y-31817880D02*
X36757427Y-31818188D01*
X36722931Y-31806933D02*
X36717040Y-31805113D01*
X36723875Y-31803735D02*
X36722931Y-31806933D01*
X36717040Y-31805113D02*
X36723875Y-31803735D01*
X37401772Y-31812152D02*
X37412867Y-31818082D01*
X36772856Y-31809702D02*
X36774332Y-31805493D01*
X36776168Y-31807247D02*
X36772856Y-31809702D01*
X36774332Y-31805493D02*
X36776168Y-31807247D01*
X36786446Y-31800000D02*
X36794577Y-31800000D01*
X36784637Y-31802960D02*
X36786446Y-31800000D01*
X36794577Y-31800000D02*
X36784637Y-31802960D01*
X37365775Y-31801232D02*
X37353256Y-31800000D01*
X37423326Y-31825070D02*
X37433051Y-31833051D01*
X37473766Y-31909223D02*
X37471312Y-31896884D01*
X37412867Y-31818082D02*
X37423326Y-31825070D01*
X36762466Y-31826121D02*
X36755340Y-31821400D01*
X36766089Y-31825172D02*
X36766445Y-31819541D01*
X36763916Y-31816721D02*
X36757427Y-31818188D01*
X37378113Y-31803686D02*
X37365775Y-31801232D01*
X36727824Y-31800000D02*
X36705033Y-31800000D01*
X36699039Y-31801438D02*
X36717040Y-31805113D01*
X36726544Y-31802309D02*
X36723875Y-31803735D01*
X37449927Y-31851671D02*
X37456916Y-31862131D01*
X36776730Y-31800000D02*
X36786446Y-31800000D01*
X36774333Y-31802395D02*
X36774332Y-31805493D01*
X36776168Y-31807247D02*
X36784637Y-31802960D01*
X37462846Y-31873225D02*
X37467660Y-31884846D01*
X36772290Y-31800000D02*
X36733965Y-31800000D01*
X36748770Y-31817880D02*
X36722931Y-31806933D01*
X36768641Y-31814057D02*
X36772856Y-31809702D01*
X37390151Y-31807338D02*
X37401772Y-31812152D01*
X36768067Y-31830567D02*
X36825000Y-31887500D01*
X37475000Y-31921742D02*
X37475000Y-33537500D01*
X37441946Y-31841946D02*
X37433051Y-31833051D01*
X36794577Y-31800000D02*
X37353256Y-31800000D01*
X36684812Y-31800000D02*
X33900000Y-31800000D01*
D15*
%TO.N,+3V3*%
X39429535Y-35180240D02*
X39376324Y-35175000D01*
D16*
X31410172Y-30689824D02*
X31383571Y-30722238D01*
D15*
X39971716Y-35822552D02*
X39967703Y-35823769D01*
D16*
X34656975Y-30565671D02*
X34708141Y-30581191D01*
D15*
X40967035Y-31005240D02*
X40913824Y-31000000D01*
D16*
X34849152Y-30656563D02*
X34890483Y-30690483D01*
X31205240Y-38345463D02*
X31200000Y-38398674D01*
X31472238Y-30633571D02*
X31439824Y-30660173D01*
X31304109Y-30914079D02*
X31300000Y-30955809D01*
D15*
X39481975Y-35190671D02*
X39533141Y-35206191D01*
X41211652Y-31106563D02*
X41252983Y-31140483D01*
X40000000Y-35811208D02*
X39999315Y-35810523D01*
X40000000Y-35809939D02*
X40000000Y-35811208D01*
X39999315Y-35810523D02*
X40000000Y-35809939D01*
X39674152Y-35281563D02*
X39715483Y-35315483D01*
X39986160Y-35618568D02*
X39993046Y-35641267D01*
D16*
X34604535Y-30555240D02*
X34551324Y-30550000D01*
D15*
X39937673Y-35537673D02*
X39952722Y-35556010D01*
X41019475Y-31015671D02*
X41070641Y-31031191D01*
X39991264Y-35808733D02*
X39992535Y-35807132D01*
X39992806Y-35808167D02*
X39991264Y-35808733D01*
X39992535Y-35807132D02*
X39992806Y-35808167D01*
X40072511Y-37755347D02*
X40105270Y-37777236D01*
D16*
X31231191Y-38241856D02*
X31215671Y-38293022D01*
D15*
X41120040Y-31051653D02*
X41167195Y-31076858D01*
X39582540Y-35226653D02*
X39629695Y-35251858D01*
X40000000Y-37619687D02*
X40007685Y-37658329D01*
D16*
X31340483Y-38059514D02*
X31306563Y-38100846D01*
D15*
X39998017Y-35795836D02*
X39998537Y-35794153D01*
X39998931Y-35796106D02*
X39998017Y-35795836D01*
X39998537Y-35794153D02*
X39998931Y-35796106D01*
D16*
X31276858Y-38145303D02*
X31251653Y-38192458D01*
D15*
X39986016Y-35813981D02*
X39982775Y-35816641D01*
D16*
X31622951Y-30562289D02*
X31582824Y-30574461D01*
D15*
X39997927Y-35811048D02*
X39997226Y-35810101D01*
X39998429Y-35810523D02*
X39997927Y-35811048D01*
X39997226Y-35810101D02*
X39998429Y-35810523D01*
X39979288Y-35818971D02*
X39975590Y-35820948D01*
X39999588Y-35789011D02*
X40000000Y-35784946D01*
X40000000Y-35790723D02*
X39999588Y-35789011D01*
X40000000Y-35784946D02*
X40000000Y-35790723D01*
X40000000Y-35816307D02*
X39999153Y-35813467D01*
X40000000Y-35813984D02*
X40000000Y-35816307D01*
X39999153Y-35813467D02*
X40000000Y-35813984D01*
X39965900Y-35575733D02*
X39977082Y-35596653D01*
X40141669Y-37792313D02*
X40180311Y-37800000D01*
D16*
X31544084Y-30590508D02*
X31507103Y-30610275D01*
X31360275Y-30757104D02*
X31340508Y-30794084D01*
X31324462Y-30832826D02*
X31312290Y-30872952D01*
X34757540Y-30601653D02*
X34804695Y-30626858D01*
D15*
X40022762Y-37694728D02*
X40044651Y-37727487D01*
X39993884Y-35805096D02*
X39994889Y-35803219D01*
X39994801Y-35805693D02*
X39993884Y-35805096D01*
X39994889Y-35803219D02*
X39994801Y-35805693D01*
X39995982Y-35808897D02*
X39994415Y-35808269D01*
X39995220Y-35807547D02*
X39995982Y-35808897D01*
X39994415Y-35808269D02*
X39995220Y-35807547D01*
X39997674Y-35664532D02*
X40000000Y-35688138D01*
X39963591Y-35824588D02*
X39959418Y-35825000D01*
X40000000Y-35798990D02*
X39999339Y-35796869D01*
X40000000Y-35797234D02*
X40000000Y-35798990D01*
X39999339Y-35796869D02*
X40000000Y-35797234D01*
D16*
X31705809Y-30550000D02*
X31664079Y-30554109D01*
X31205240Y-38345463D02*
X31215671Y-38293022D01*
D15*
X39952722Y-35556010D02*
X39965900Y-35575733D01*
X39967703Y-35823769D02*
X39963591Y-35824588D01*
X39997927Y-35811048D02*
X39999153Y-35813467D01*
X40000000Y-35811208D02*
X40000000Y-35813984D01*
X39999315Y-35810523D02*
X39998429Y-35810523D01*
X40105270Y-37777236D02*
X40141669Y-37792313D01*
X39982775Y-35816641D02*
X39979288Y-35818971D01*
D16*
X31472238Y-30633571D02*
X31507103Y-30610275D01*
X31383571Y-30722238D02*
X31360275Y-30757104D01*
D15*
X39998537Y-35794153D02*
X39999588Y-35789011D01*
X39998931Y-35796106D02*
X39999339Y-35796869D01*
X40000000Y-35790723D02*
X40000000Y-35797234D01*
X39429535Y-35180240D02*
X39481975Y-35190671D01*
X39993046Y-35641267D02*
X39997674Y-35664532D01*
X40007685Y-37658329D02*
X40022762Y-37694728D01*
D16*
X31304109Y-30914079D02*
X31312290Y-30872952D01*
X31622951Y-30562289D02*
X31664079Y-30554109D01*
D15*
X40967035Y-31005240D02*
X41019475Y-31015671D01*
D16*
X34656975Y-30565671D02*
X34604535Y-30555240D01*
D15*
X39992535Y-35807132D02*
X39993884Y-35805096D01*
X39992806Y-35808167D02*
X39994415Y-35808269D01*
X39994801Y-35805693D02*
X39995220Y-35807547D01*
D16*
X31306563Y-38100846D02*
X31276858Y-38145303D01*
D15*
X41211652Y-31106563D02*
X41167195Y-31076858D01*
X39674152Y-35281563D02*
X39629695Y-35251858D01*
D16*
X34849152Y-30656563D02*
X34804695Y-30626858D01*
X31231191Y-38241856D02*
X31251653Y-38192458D01*
D15*
X39533141Y-35206191D02*
X39582540Y-35226653D01*
D16*
X31582824Y-30574461D02*
X31544084Y-30590508D01*
D15*
X40072511Y-37755347D02*
X40044651Y-37727487D01*
X39986160Y-35618568D02*
X39977082Y-35596653D01*
X39971716Y-35822552D02*
X39975590Y-35820948D01*
X41070641Y-31031191D02*
X41120040Y-31051653D01*
D16*
X31340508Y-30794084D02*
X31324462Y-30832826D01*
D15*
X39998017Y-35795836D02*
X39994889Y-35803219D01*
X39997226Y-35810101D02*
X39995982Y-35808897D01*
X40000000Y-35809939D02*
X40000000Y-35798990D01*
D16*
X34708141Y-30581191D02*
X34757540Y-30601653D01*
D15*
X39376324Y-35175000D02*
X38462500Y-35175000D01*
X39715483Y-35315483D02*
X39937673Y-35537673D01*
X39991264Y-35808733D02*
X39986016Y-35813981D01*
X39959418Y-35825000D02*
X38462500Y-35825000D01*
X40000000Y-35784946D02*
X40000000Y-35688138D01*
X40000000Y-37619687D02*
X40000000Y-35816307D01*
X40913824Y-31000000D02*
X39200000Y-31000000D01*
X41252983Y-31140483D02*
X41912500Y-31800000D01*
X40180311Y-37800000D02*
X41000000Y-37800000D01*
D16*
X34890483Y-30690483D02*
X35200000Y-31000000D01*
X34551324Y-30550000D02*
X31705809Y-30550000D01*
X31410172Y-30689824D02*
X31439824Y-30660173D01*
X31300000Y-30955809D02*
X31300000Y-31800000D01*
X31200000Y-38398674D02*
X31200000Y-39600000D01*
X31340483Y-38059514D02*
X31900000Y-37500000D01*
%TO.N,/SCK*%
X33311427Y-35824588D02*
X33315600Y-35825000D01*
X33289002Y-35813981D02*
X33292243Y-35816641D01*
X33303302Y-35822552D02*
X33307315Y-35823770D01*
X33295730Y-35818971D02*
X33299428Y-35820948D01*
X33311427Y-35824588D02*
X33307315Y-35823770D01*
X33292243Y-35816641D02*
X33295730Y-35818971D01*
X33303302Y-35822552D02*
X33299428Y-35820948D01*
X33315600Y-35825000D02*
X34537500Y-35825000D01*
X33289002Y-35813981D02*
X33275021Y-35800000D01*
%TO.N,/SS*%
X33693043Y-36490671D02*
X33641877Y-36506191D01*
X33500867Y-36581563D02*
X33459535Y-36615483D01*
X33592479Y-36526653D02*
X33545324Y-36551858D01*
X33798695Y-36475000D02*
X33745484Y-36480240D01*
X33693043Y-36490671D02*
X33745484Y-36480240D01*
X33500867Y-36581563D02*
X33545324Y-36551858D01*
X33641877Y-36506191D02*
X33592479Y-36526653D01*
X33798695Y-36475000D02*
X34537500Y-36475000D01*
X33459535Y-36615483D02*
X33275021Y-36800000D01*
%TO.N,/MISO*%
X33742313Y-37991669D02*
X33750000Y-38030311D01*
X33019676Y-35211456D02*
X32986395Y-35229245D01*
X32854255Y-35361384D02*
X32836466Y-35394665D01*
X33195303Y-37773139D02*
X33242458Y-37798344D01*
X33109514Y-37709514D02*
X33150846Y-37743434D01*
X32815682Y-37306986D02*
X32831202Y-37358152D01*
X33705347Y-37922511D02*
X33727236Y-37955270D01*
X33165220Y-35175000D02*
X33127665Y-35178698D01*
X33395463Y-37844758D02*
X33448674Y-37850000D01*
X33090653Y-35186060D02*
X33054541Y-35197014D01*
X32851664Y-37407551D02*
X32876869Y-37454706D01*
X33758100Y-39551181D02*
X33762053Y-39558577D01*
X32906574Y-37499162D02*
X32940494Y-37540494D01*
X32822025Y-35429530D02*
X32811071Y-35465642D01*
X33750000Y-39518836D02*
X33750821Y-39527182D01*
X32955018Y-35250210D02*
X32925847Y-35274150D01*
X33752457Y-39535408D02*
X33754891Y-39543433D01*
X32803709Y-35502654D02*
X32800011Y-35540209D01*
X33644728Y-37872762D02*
X33677487Y-37894651D01*
X33608329Y-37857686D02*
X33569687Y-37850000D01*
X33766713Y-39565550D02*
X33772033Y-39572033D01*
X32899161Y-35300836D02*
X32875221Y-35330007D01*
X33291857Y-37818805D02*
X33343023Y-37834327D01*
X32800011Y-37201335D02*
X32805251Y-37254546D01*
X32815682Y-37306986D02*
X32805251Y-37254546D01*
X33750821Y-39527182D02*
X33752457Y-39535408D01*
X33742313Y-37991669D02*
X33727236Y-37955270D01*
X33127665Y-35178698D02*
X33090653Y-35186060D01*
X33395463Y-37844758D02*
X33343023Y-37834327D01*
X32876869Y-37454706D02*
X32906574Y-37499162D01*
X33762053Y-39558577D02*
X33766713Y-39565550D01*
X32986395Y-35229245D02*
X32955018Y-35250210D01*
X32854255Y-35361384D02*
X32875221Y-35330007D01*
X32811071Y-35465642D02*
X32803709Y-35502654D01*
X33644728Y-37872762D02*
X33608329Y-37857686D01*
X33195303Y-37773139D02*
X33150846Y-37743434D01*
X33019676Y-35211456D02*
X33054541Y-35197014D01*
X33242458Y-37798344D02*
X33291857Y-37818805D01*
X33758100Y-39551181D02*
X33754891Y-39543433D01*
X32836466Y-35394665D02*
X32822025Y-35429530D01*
X32831202Y-37358152D02*
X32851664Y-37407551D01*
X33705347Y-37922511D02*
X33677487Y-37894651D01*
X32925847Y-35274150D02*
X32899161Y-35300836D01*
X32800011Y-35540209D02*
X32800011Y-37201335D01*
X33165220Y-35175000D02*
X34537500Y-35175000D01*
X33109514Y-37709514D02*
X32940494Y-37540494D01*
X33448674Y-37850000D02*
X33569687Y-37850000D01*
X33772033Y-39572033D02*
X33800000Y-39600000D01*
X33750000Y-38030311D02*
X33750000Y-39518836D01*
%TO.N,Net-(JP1-Pad2)*%
X36663522Y-32856144D02*
X36683585Y-32862230D01*
X32632407Y-32654731D02*
X32648220Y-32684315D01*
X32609831Y-32591636D02*
X32619569Y-32623738D01*
X32765682Y-32801777D02*
X32795266Y-32817590D01*
X32891263Y-32846711D02*
X32924648Y-32850000D01*
X36642959Y-32852054D02*
X36622094Y-32850000D01*
X32711859Y-32761859D02*
X32737790Y-32783140D01*
X36794860Y-32953551D02*
X36804743Y-32972042D01*
X36738879Y-32891785D02*
X36755086Y-32905086D01*
X32600000Y-32525350D02*
X32603287Y-32558735D01*
X36822944Y-33032038D02*
X36825000Y-33052903D01*
X36702956Y-32870254D02*
X36721446Y-32880137D01*
X32666857Y-32712207D02*
X32688138Y-32738138D01*
X32826259Y-32830428D02*
X32858361Y-32840167D01*
X36769911Y-32919911D02*
X36783212Y-32936118D01*
X36812767Y-32991412D02*
X36818854Y-33011475D01*
X36663522Y-32856144D02*
X36642959Y-32852054D01*
X36822944Y-33032038D02*
X36818854Y-33011475D01*
X32609831Y-32591636D02*
X32603287Y-32558735D01*
X36738879Y-32891785D02*
X36721446Y-32880137D01*
X36794860Y-32953551D02*
X36783212Y-32936118D01*
X32648220Y-32684315D02*
X32666857Y-32712207D01*
X32765682Y-32801777D02*
X32737790Y-32783140D01*
X32891263Y-32846711D02*
X32858361Y-32840167D01*
X36683585Y-32862230D02*
X36702956Y-32870254D01*
X32632407Y-32654731D02*
X32619569Y-32623738D01*
X32795266Y-32817590D02*
X32826259Y-32830428D01*
X36804743Y-32972042D02*
X36812767Y-32991412D01*
X36825000Y-33052903D02*
X36825000Y-33537500D01*
X36755086Y-32905086D02*
X36769911Y-32919911D01*
X32924648Y-32850000D02*
X36622094Y-32850000D01*
X32600000Y-32525350D02*
X32600000Y-31800000D01*
X32711859Y-32761859D02*
X32688138Y-32738138D01*
%TO.N,Net-(JP2-Pad2)*%
X34516788Y-34543970D02*
X34513090Y-34545947D01*
X32750846Y-34656563D02*
X32709514Y-34690483D01*
X34523516Y-34538981D02*
X34520275Y-34541641D01*
X32505240Y-35045463D02*
X32500000Y-35098674D01*
X32640483Y-34759514D02*
X32606563Y-34800845D01*
X33048674Y-34550000D02*
X32995463Y-34555240D01*
X32943022Y-34565671D02*
X32891856Y-34581191D01*
X32576858Y-34845302D02*
X32551653Y-34892457D01*
X34509216Y-34547552D02*
X34505203Y-34548769D01*
X32842458Y-34601653D02*
X32795303Y-34626858D01*
X34501091Y-34549588D02*
X34496918Y-34550000D01*
X32531192Y-34941856D02*
X32515671Y-34993022D01*
X32606563Y-34800845D02*
X32576858Y-34845302D01*
X32505240Y-35045463D02*
X32515671Y-34993022D01*
X34516788Y-34543970D02*
X34520275Y-34541641D01*
X34505203Y-34548769D02*
X34501091Y-34549588D01*
X32995463Y-34555240D02*
X32943022Y-34565671D01*
X32750846Y-34656563D02*
X32795303Y-34626858D01*
X32891856Y-34581191D02*
X32842458Y-34601653D01*
X32551653Y-34892457D02*
X32531192Y-34941856D01*
X34513090Y-34545947D02*
X34509216Y-34547552D01*
X32500000Y-35098674D02*
X32500000Y-39600000D01*
X32709514Y-34690483D02*
X32640483Y-34759514D01*
X33048674Y-34550000D02*
X34496918Y-34550000D01*
X34523516Y-34538981D02*
X34537500Y-34525000D01*
%TD*%
D17*
%TO.N,GND*%
X31248585Y-30332003D02*
X31248579Y-30332008D01*
X31248576Y-30332010D01*
X31235973Y-30342353D01*
X31208242Y-30365112D01*
X31187686Y-30381982D01*
X31171126Y-30398542D01*
X31171122Y-30398545D01*
X31131976Y-30437691D01*
X31115188Y-30458148D01*
X31096866Y-30480472D01*
X31096863Y-30480478D01*
X31082000Y-30498589D01*
X31058495Y-30533769D01*
X31051758Y-30543852D01*
X31049973Y-30546523D01*
X31038241Y-30564081D01*
X31027197Y-30584742D01*
X31027192Y-30584748D01*
X31015563Y-30606507D01*
X31001108Y-30633549D01*
X31001102Y-30633564D01*
X31001097Y-30633573D01*
X30995235Y-30647727D01*
X30979921Y-30684695D01*
X30979919Y-30684707D01*
X30970955Y-30706349D01*
X30966918Y-30719660D01*
X30951193Y-30771496D01*
X30948090Y-30781726D01*
X30943520Y-30804700D01*
X30943518Y-30804705D01*
X30938286Y-30831012D01*
X30937125Y-30836850D01*
X30896824Y-30858391D01*
X30815325Y-30912847D01*
X30769644Y-30950336D01*
X30700336Y-31019644D01*
X30662847Y-31065325D01*
X30608391Y-31146824D01*
X30580533Y-31198943D01*
X30543024Y-31289499D01*
X30525870Y-31346048D01*
X30506748Y-31442181D01*
X30500956Y-31500991D01*
X30500956Y-31525550D01*
X30498548Y-31550000D01*
X30498548Y-32050000D01*
X30500956Y-32074450D01*
X30500956Y-32099009D01*
X30506748Y-32157819D01*
X30525870Y-32253952D01*
X30543024Y-32310501D01*
X30580533Y-32401057D01*
X30608391Y-32453176D01*
X30662847Y-32534675D01*
X30700336Y-32580356D01*
X30769644Y-32649664D01*
X30815325Y-32687153D01*
X30896824Y-32741609D01*
X30948943Y-32769467D01*
X31039499Y-32806976D01*
X31096048Y-32824130D01*
X31192181Y-32843252D01*
X31250991Y-32849044D01*
X31275550Y-32849044D01*
X31300000Y-32851452D01*
X31850000Y-32851452D01*
X31908810Y-32845660D01*
X31965361Y-32828505D01*
X31975001Y-32823352D01*
X31984640Y-32828504D01*
X32041190Y-32845659D01*
X32100000Y-32851451D01*
X32312349Y-32851451D01*
X32326183Y-32877333D01*
X32326187Y-32877340D01*
X32344634Y-32904947D01*
X32356478Y-32922672D01*
X32364794Y-32935118D01*
X32365294Y-32935866D01*
X32409944Y-32990273D01*
X32459724Y-33040053D01*
X32483194Y-33059314D01*
X32502513Y-33075169D01*
X32502515Y-33075170D01*
X32511639Y-33082658D01*
X32514136Y-33084707D01*
X32526634Y-33093058D01*
X32550300Y-33108871D01*
X32556685Y-33113137D01*
X32572664Y-33123814D01*
X32634737Y-33156993D01*
X32654189Y-33165050D01*
X32669401Y-33171351D01*
X32699767Y-33183930D01*
X32714160Y-33188297D01*
X32714167Y-33188300D01*
X32746336Y-33198057D01*
X32767121Y-33204363D01*
X32767130Y-33204365D01*
X32767144Y-33204369D01*
X32787011Y-33208320D01*
X32821417Y-33215166D01*
X32821428Y-33215166D01*
X32836167Y-33218098D01*
X32836175Y-33218099D01*
X32836176Y-33218099D01*
X32839090Y-33218386D01*
X32851129Y-33219572D01*
X32851135Y-33219574D01*
X32887563Y-33223162D01*
X32906212Y-33224999D01*
X32906219Y-33224999D01*
X32906229Y-33225000D01*
X35073549Y-33225000D01*
X35073549Y-33859693D01*
X35034640Y-33871496D01*
X34982523Y-33899353D01*
X34936842Y-33936842D01*
X34899353Y-33982523D01*
X34871496Y-34034640D01*
X34859693Y-34073549D01*
X34200000Y-34073549D01*
X34126558Y-34080782D01*
X34055938Y-34102205D01*
X33990855Y-34136992D01*
X33944543Y-34175000D01*
X33030255Y-34175000D01*
X32995466Y-34178426D01*
X32995463Y-34178426D01*
X32966199Y-34181309D01*
X32940382Y-34183851D01*
X32940374Y-34183853D01*
X32940370Y-34183853D01*
X32919481Y-34188008D01*
X32886085Y-34194650D01*
X32886082Y-34194651D01*
X32851798Y-34201470D01*
X32818344Y-34211617D01*
X32818339Y-34211618D01*
X32799851Y-34217227D01*
X32765380Y-34227683D01*
X32714233Y-34248868D01*
X32714229Y-34248870D01*
X32681931Y-34262249D01*
X32681929Y-34262250D01*
X32602285Y-34304821D01*
X32573220Y-34324241D01*
X32573219Y-34324242D01*
X32560952Y-34332439D01*
X32527194Y-34354995D01*
X32527190Y-34354999D01*
X32527189Y-34354999D01*
X32500171Y-34377171D01*
X32500168Y-34377173D01*
X32481723Y-34392311D01*
X32457380Y-34412288D01*
X32362291Y-34507377D01*
X32305001Y-34577184D01*
X32274244Y-34623214D01*
X32274242Y-34623218D01*
X32254821Y-34652284D01*
X32238344Y-34683110D01*
X32238341Y-34683114D01*
X32212245Y-34731938D01*
X32181817Y-34805400D01*
X32177686Y-34815374D01*
X32151699Y-34901046D01*
X32151470Y-34901800D01*
X32133852Y-34990371D01*
X32128426Y-35045464D01*
X32128426Y-35045467D01*
X32125000Y-35080256D01*
X32125000Y-36997883D01*
X32060429Y-36971136D01*
X31954170Y-36950000D01*
X31845830Y-36950000D01*
X31739571Y-36971136D01*
X31639477Y-37012597D01*
X31549396Y-37072787D01*
X31472787Y-37149396D01*
X31412597Y-37239477D01*
X31371136Y-37339571D01*
X31366071Y-37365036D01*
X31362857Y-37375314D01*
X31358252Y-37391649D01*
X31347705Y-37433571D01*
X31345241Y-37444176D01*
X31337126Y-37482216D01*
X31336870Y-37483429D01*
X31330631Y-37513277D01*
X31326447Y-37530180D01*
X31324293Y-37536673D01*
X31323134Y-37539215D01*
X31319693Y-37544880D01*
X31309291Y-37558403D01*
X31284306Y-37585363D01*
X31062295Y-37807373D01*
X31027174Y-37850167D01*
X31027173Y-37850169D01*
X31004999Y-37877188D01*
X30977549Y-37918270D01*
X30954821Y-37952285D01*
X30913933Y-38028781D01*
X30912249Y-38031932D01*
X30898871Y-38064228D01*
X30898868Y-38064233D01*
X30877683Y-38115380D01*
X30876556Y-38119095D01*
X30848943Y-38130533D01*
X30796824Y-38158391D01*
X30715325Y-38212847D01*
X30669644Y-38250336D01*
X30600336Y-38319644D01*
X30562847Y-38365325D01*
X30508391Y-38446824D01*
X30480533Y-38498943D01*
X30443024Y-38589499D01*
X30425870Y-38646048D01*
X30406748Y-38742181D01*
X30400956Y-38800991D01*
X30400956Y-38825550D01*
X30398548Y-38850000D01*
X30398548Y-39350000D01*
X30400956Y-39374450D01*
X30400956Y-39399009D01*
X30406748Y-39457819D01*
X30425870Y-39553952D01*
X30443024Y-39610501D01*
X30480533Y-39701057D01*
X30508391Y-39753176D01*
X30562847Y-39834675D01*
X30600336Y-39880356D01*
X30669644Y-39949664D01*
X30715325Y-39987153D01*
X30796824Y-40041609D01*
X30848943Y-40069467D01*
X30939499Y-40106976D01*
X30996048Y-40124130D01*
X31092181Y-40143252D01*
X31150991Y-40149044D01*
X31175550Y-40149044D01*
X31200000Y-40151452D01*
X31750000Y-40151452D01*
X31808810Y-40145660D01*
X31865361Y-40128505D01*
X31875001Y-40123352D01*
X31884640Y-40128504D01*
X31941190Y-40145659D01*
X32000000Y-40151451D01*
X33000000Y-40151451D01*
X33058810Y-40145659D01*
X33115360Y-40128504D01*
X33124999Y-40123352D01*
X33134639Y-40128505D01*
X33191190Y-40145660D01*
X33250000Y-40151452D01*
X33800000Y-40151452D01*
X33824450Y-40149044D01*
X33849009Y-40149044D01*
X33907819Y-40143252D01*
X34003952Y-40124130D01*
X34060501Y-40106976D01*
X34151057Y-40069467D01*
X34164091Y-40062500D01*
X38914058Y-40062500D01*
X38925797Y-40181689D01*
X38960563Y-40296297D01*
X39017020Y-40401921D01*
X39092999Y-40494501D01*
X39185579Y-40570480D01*
X39291203Y-40626937D01*
X39405811Y-40661703D01*
X39525000Y-40673442D01*
X39843000Y-40670500D01*
X39995000Y-40518500D01*
X39995000Y-39530000D01*
X40005000Y-39530000D01*
X40005000Y-40518500D01*
X40157000Y-40670500D01*
X40475000Y-40673442D01*
X40594189Y-40661703D01*
X40708797Y-40626937D01*
X40814421Y-40570480D01*
X40907001Y-40494501D01*
X40982980Y-40401921D01*
X41039437Y-40296297D01*
X41074203Y-40181689D01*
X41085942Y-40062500D01*
X41083000Y-39682000D01*
X40931000Y-39530000D01*
X40005000Y-39530000D01*
X39995000Y-39530000D01*
X39069000Y-39530000D01*
X38917000Y-39682000D01*
X38914058Y-40062500D01*
X34164091Y-40062500D01*
X34203176Y-40041609D01*
X34284675Y-39987153D01*
X34330356Y-39949664D01*
X34399664Y-39880356D01*
X34437153Y-39834675D01*
X34491609Y-39753176D01*
X34519467Y-39701057D01*
X34556976Y-39610501D01*
X34574130Y-39553952D01*
X34593252Y-39457819D01*
X34599044Y-39399009D01*
X34599044Y-39374450D01*
X34601452Y-39350000D01*
X34601452Y-38850000D01*
X34599044Y-38825550D01*
X34599044Y-38800991D01*
X34593252Y-38742181D01*
X34574130Y-38646048D01*
X34556976Y-38589499D01*
X34519467Y-38498943D01*
X34491609Y-38446824D01*
X34437153Y-38365325D01*
X34399664Y-38319644D01*
X34330356Y-38250336D01*
X34284675Y-38212847D01*
X34207172Y-38161061D01*
X34210230Y-38155873D01*
X34217835Y-38142160D01*
X34223395Y-38131488D01*
X34237403Y-38110523D01*
X34278864Y-38010429D01*
X34300000Y-37904170D01*
X34300000Y-37795830D01*
X34278864Y-37689571D01*
X34237403Y-37589477D01*
X34177213Y-37499396D01*
X34100604Y-37422787D01*
X34010523Y-37362597D01*
X33910429Y-37321136D01*
X33804170Y-37300000D01*
X33695830Y-37300000D01*
X33589571Y-37321136D01*
X33489477Y-37362597D01*
X33462546Y-37380592D01*
X33457329Y-37383432D01*
X33437126Y-37395481D01*
X33401672Y-37418557D01*
X33391029Y-37425814D01*
X33371727Y-37439591D01*
X33361652Y-37431323D01*
X33280329Y-37350000D01*
X33329191Y-37350000D01*
X33435450Y-37328864D01*
X33535544Y-37287403D01*
X33625625Y-37227213D01*
X33702234Y-37150604D01*
X33762424Y-37060523D01*
X33803885Y-36960429D01*
X33810193Y-36928716D01*
X33811458Y-36924430D01*
X33817041Y-36902495D01*
X33825741Y-36861981D01*
X33827920Y-36850805D01*
X33828061Y-36850000D01*
X33975005Y-36850000D01*
X33990855Y-36863008D01*
X34055938Y-36897795D01*
X34126558Y-36919218D01*
X34200000Y-36926451D01*
X34859693Y-36926451D01*
X34871496Y-36965360D01*
X34899353Y-37017477D01*
X34936842Y-37063158D01*
X34982523Y-37100647D01*
X35034640Y-37128504D01*
X35073549Y-37140307D01*
X35073549Y-37800000D01*
X35080782Y-37873442D01*
X35102205Y-37944062D01*
X35136992Y-38009145D01*
X35183809Y-38066191D01*
X35240855Y-38113008D01*
X35305938Y-38147795D01*
X35376558Y-38169218D01*
X35450000Y-38176451D01*
X35600000Y-38176451D01*
X35673442Y-38169218D01*
X35744062Y-38147795D01*
X35809145Y-38113008D01*
X35850000Y-38079479D01*
X35890855Y-38113008D01*
X35955938Y-38147795D01*
X36026558Y-38169218D01*
X36100000Y-38176451D01*
X36250000Y-38176451D01*
X36323442Y-38169218D01*
X36394062Y-38147795D01*
X36459145Y-38113008D01*
X36500000Y-38079479D01*
X36540855Y-38113008D01*
X36605938Y-38147795D01*
X36676558Y-38169218D01*
X36750000Y-38176451D01*
X36900000Y-38176451D01*
X36973442Y-38169218D01*
X37044062Y-38147795D01*
X37109145Y-38113008D01*
X37150000Y-38079479D01*
X37190855Y-38113008D01*
X37255938Y-38147795D01*
X37326558Y-38169218D01*
X37400000Y-38176451D01*
X37550000Y-38176451D01*
X37623442Y-38169218D01*
X37694062Y-38147795D01*
X37759145Y-38113008D01*
X37816191Y-38066191D01*
X37863008Y-38009145D01*
X37897795Y-37944062D01*
X37919218Y-37873442D01*
X37926451Y-37800000D01*
X37926451Y-37222606D01*
X37933740Y-37224778D01*
X38052984Y-37235935D01*
X38305500Y-37233000D01*
X38457500Y-37081000D01*
X38457500Y-36480000D01*
X38467500Y-36480000D01*
X38467500Y-37081000D01*
X38619500Y-37233000D01*
X38872016Y-37235935D01*
X38991260Y-37224778D01*
X39106037Y-37190572D01*
X39211936Y-37134632D01*
X39304886Y-37059106D01*
X39381316Y-36966899D01*
X39438288Y-36861552D01*
X39473614Y-36747114D01*
X39483000Y-36632000D01*
X39331000Y-36480000D01*
X38467500Y-36480000D01*
X38457500Y-36480000D01*
X38437500Y-36480000D01*
X38437500Y-36470000D01*
X38457500Y-36470000D01*
X38457500Y-36450000D01*
X38467500Y-36450000D01*
X38467500Y-36470000D01*
X39331000Y-36470000D01*
X39483000Y-36318000D01*
X39479494Y-36275000D01*
X39550001Y-36275000D01*
X39550000Y-37005416D01*
X39463075Y-37051879D01*
X39381404Y-37118904D01*
X39314379Y-37200575D01*
X39264574Y-37293752D01*
X39233905Y-37394856D01*
X39223549Y-37500000D01*
X39223549Y-38100000D01*
X39233905Y-38205144D01*
X39264574Y-38306248D01*
X39314379Y-38399425D01*
X39325292Y-38412722D01*
X39291203Y-38423063D01*
X39185579Y-38479520D01*
X39092999Y-38555499D01*
X39017020Y-38648079D01*
X38960563Y-38753703D01*
X38925797Y-38868311D01*
X38914058Y-38987500D01*
X38917000Y-39368000D01*
X39069000Y-39520000D01*
X39995000Y-39520000D01*
X39995000Y-39500000D01*
X40005000Y-39500000D01*
X40005000Y-39520000D01*
X40931000Y-39520000D01*
X41083000Y-39368000D01*
X41085942Y-38987500D01*
X41074203Y-38868311D01*
X41039437Y-38753703D01*
X40982980Y-38648079D01*
X40907001Y-38555499D01*
X40814421Y-38479520D01*
X40708797Y-38423063D01*
X40674708Y-38412722D01*
X40685621Y-38399425D01*
X40735426Y-38306248D01*
X40740957Y-38288016D01*
X40839571Y-38328864D01*
X40945830Y-38350000D01*
X41054170Y-38350000D01*
X41160429Y-38328864D01*
X41260523Y-38287403D01*
X41350604Y-38227213D01*
X41427213Y-38150604D01*
X41487403Y-38060523D01*
X41528864Y-37960429D01*
X41550000Y-37854170D01*
X41550000Y-37745830D01*
X41528864Y-37639571D01*
X41487403Y-37539477D01*
X41427213Y-37449396D01*
X41350604Y-37372787D01*
X41260523Y-37312597D01*
X41160429Y-37271136D01*
X41054170Y-37250000D01*
X40945830Y-37250000D01*
X40839571Y-37271136D01*
X40740957Y-37311984D01*
X40735426Y-37293752D01*
X40685621Y-37200575D01*
X40618596Y-37118904D01*
X40536925Y-37051879D01*
X40450000Y-37005416D01*
X40450000Y-35849993D01*
X40450750Y-35845814D01*
X40450433Y-35828907D01*
X40452176Y-35811208D01*
X40451364Y-35802967D01*
X40451795Y-35795439D01*
X40451533Y-35793570D01*
X40451759Y-35791395D01*
X40451125Y-35784595D01*
X40451819Y-35772725D01*
X40450505Y-35763261D01*
X40450562Y-35759061D01*
X40450082Y-35756462D01*
X40450123Y-35741901D01*
X40450000Y-35741273D01*
X40450000Y-35732444D01*
X40450001Y-35732439D01*
X40450000Y-35699295D01*
X40450000Y-35666034D01*
X40449901Y-35665022D01*
X40448614Y-35651959D01*
X40443489Y-35599924D01*
X40443487Y-35599916D01*
X40443339Y-35598417D01*
X40436248Y-35562769D01*
X40430084Y-35531786D01*
X40429179Y-35528801D01*
X40410362Y-35466775D01*
X40396272Y-35432762D01*
X40384942Y-35405409D01*
X40384941Y-35405408D01*
X40384366Y-35404019D01*
X40352344Y-35344110D01*
X40351506Y-35342857D01*
X40351505Y-35342853D01*
X40330829Y-35311910D01*
X40314607Y-35287630D01*
X40272465Y-35236279D01*
X40272461Y-35236276D01*
X40271502Y-35235107D01*
X40018050Y-34981655D01*
X40014324Y-34978597D01*
X39993891Y-34961828D01*
X39993888Y-34961824D01*
X39942537Y-34919682D01*
X39914646Y-34901046D01*
X39909677Y-34897726D01*
X39887310Y-34882780D01*
X39887305Y-34882778D01*
X39861319Y-34865415D01*
X39775174Y-34819369D01*
X39746295Y-34807407D01*
X39746288Y-34807402D01*
X39700492Y-34788434D01*
X39684928Y-34781987D01*
X39684921Y-34781985D01*
X39684914Y-34781982D01*
X39659113Y-34774156D01*
X39621358Y-34762703D01*
X39621351Y-34762702D01*
X39596848Y-34755270D01*
X39591445Y-34753631D01*
X39591443Y-34753631D01*
X39591441Y-34753630D01*
X39564614Y-34748294D01*
X39560790Y-34747533D01*
X39560787Y-34747532D01*
X39503211Y-34736080D01*
X39497393Y-34734923D01*
X39499084Y-34732863D01*
X39518502Y-34709201D01*
X39519387Y-34708317D01*
X39520084Y-34707274D01*
X39520882Y-34706302D01*
X39521471Y-34705200D01*
X39533678Y-34686930D01*
X39554929Y-34655128D01*
X39555724Y-34654159D01*
X39556324Y-34653036D01*
X39557001Y-34652023D01*
X39557467Y-34650897D01*
X39578014Y-34612453D01*
X39585866Y-34597765D01*
X39586552Y-34596738D01*
X39587027Y-34595592D01*
X39587612Y-34594497D01*
X39587970Y-34593317D01*
X39595565Y-34574980D01*
X39611024Y-34537661D01*
X39611604Y-34536577D01*
X39611961Y-34535401D01*
X39612445Y-34534232D01*
X39612689Y-34533005D01*
X39616980Y-34518859D01*
X39630166Y-34475393D01*
X39630644Y-34474238D01*
X39630889Y-34473008D01*
X39630893Y-34472995D01*
X39630896Y-34472979D01*
X39631258Y-34471786D01*
X39631380Y-34470547D01*
X39638994Y-34432271D01*
X39643124Y-34411511D01*
X39643489Y-34410309D01*
X39643613Y-34409047D01*
X39643853Y-34407842D01*
X39643853Y-34406613D01*
X39649105Y-34353285D01*
X39650121Y-34342976D01*
X39650000Y-34341747D01*
X39650000Y-34332444D01*
X39650001Y-34332439D01*
X39650000Y-34303569D01*
X39650002Y-34277795D01*
X39650000Y-34277785D01*
X39650000Y-34266034D01*
X39649984Y-34265863D01*
X39648564Y-34251451D01*
X39643489Y-34199924D01*
X39643487Y-34199916D01*
X39643339Y-34198417D01*
X39641835Y-34190854D01*
X39630084Y-34131786D01*
X39629237Y-34128991D01*
X39610362Y-34066775D01*
X39594307Y-34028018D01*
X39584942Y-34005409D01*
X39584941Y-34005408D01*
X39584366Y-34004019D01*
X39552344Y-33944110D01*
X39551506Y-33942857D01*
X39551505Y-33942853D01*
X39529590Y-33910056D01*
X39514607Y-33887630D01*
X39472465Y-33836279D01*
X39472461Y-33836276D01*
X39471502Y-33835107D01*
X39437677Y-33801282D01*
X39437675Y-33801279D01*
X39402757Y-33766362D01*
X39390705Y-33754310D01*
X39381944Y-33747120D01*
X39381940Y-33747115D01*
X39339789Y-33712524D01*
X39330596Y-33704979D01*
X39330592Y-33704977D01*
X39330588Y-33704973D01*
X39265936Y-33661775D01*
X39231224Y-33643222D01*
X39197363Y-33625123D01*
X39186888Y-33620784D01*
X39186882Y-33620780D01*
X39143240Y-33602704D01*
X39125525Y-33595366D01*
X39125519Y-33595364D01*
X39125509Y-33595360D01*
X39099187Y-33587376D01*
X39061956Y-33576081D01*
X39061948Y-33576080D01*
X39051101Y-33572790D01*
X39039988Y-33570580D01*
X39039979Y-33570576D01*
X38995814Y-33561793D01*
X38974852Y-33557623D01*
X38974838Y-33557622D01*
X38974825Y-33557619D01*
X38952313Y-33555402D01*
X38912500Y-33551480D01*
X38912500Y-32552488D01*
X38968748Y-32535426D01*
X39061925Y-32485621D01*
X39143596Y-32418596D01*
X39210621Y-32336925D01*
X39257084Y-32250000D01*
X39342916Y-32250000D01*
X39389379Y-32336925D01*
X39456404Y-32418596D01*
X39538075Y-32485621D01*
X39631252Y-32535426D01*
X39732356Y-32566095D01*
X39837500Y-32576451D01*
X40337500Y-32576451D01*
X40442644Y-32566095D01*
X40543748Y-32535426D01*
X40636925Y-32485621D01*
X40718596Y-32418596D01*
X40785621Y-32336925D01*
X40835426Y-32243748D01*
X40866095Y-32142644D01*
X40876451Y-32037500D01*
X40876451Y-31562500D01*
X40866095Y-31457356D01*
X40863864Y-31450000D01*
X40891724Y-31450000D01*
X40900935Y-31450907D01*
X40910005Y-31452711D01*
X40918860Y-31455397D01*
X40927408Y-31458938D01*
X40935567Y-31463299D01*
X40943267Y-31468444D01*
X40950416Y-31474311D01*
X41123549Y-31647444D01*
X41123549Y-32037500D01*
X41133905Y-32142644D01*
X41164574Y-32243748D01*
X41214379Y-32336925D01*
X41281404Y-32418596D01*
X41363075Y-32485621D01*
X41456252Y-32535426D01*
X41557356Y-32566095D01*
X41662500Y-32576451D01*
X42162500Y-32576451D01*
X42267644Y-32566095D01*
X42368748Y-32535426D01*
X42461925Y-32485621D01*
X42543596Y-32418596D01*
X42610621Y-32336925D01*
X42660426Y-32243748D01*
X42675000Y-32195703D01*
X42675000Y-34137219D01*
X42591635Y-34153801D01*
X42336851Y-34259336D01*
X42107552Y-34412549D01*
X41912549Y-34607552D01*
X41759336Y-34836851D01*
X41653801Y-35091635D01*
X41600000Y-35362112D01*
X41600000Y-35637888D01*
X41653801Y-35908365D01*
X41759336Y-36163149D01*
X41912549Y-36392448D01*
X42107552Y-36587451D01*
X42336851Y-36740664D01*
X42591635Y-36846199D01*
X42675001Y-36862781D01*
X42675001Y-40484096D01*
X42670139Y-40533689D01*
X42660356Y-40566090D01*
X42644462Y-40595984D01*
X42623068Y-40622214D01*
X42596989Y-40643789D01*
X42567213Y-40659889D01*
X42534875Y-40669899D01*
X42486342Y-40675000D01*
X30515894Y-40675000D01*
X30466311Y-40670139D01*
X30433910Y-40660356D01*
X30404016Y-40644462D01*
X30377786Y-40623068D01*
X30356211Y-40596989D01*
X30340111Y-40567213D01*
X30330101Y-40534875D01*
X30325000Y-40486342D01*
X30325000Y-36862781D01*
X30408365Y-36846199D01*
X30663149Y-36740664D01*
X30892448Y-36587451D01*
X31087451Y-36392448D01*
X31240664Y-36163149D01*
X31346199Y-35908365D01*
X31400000Y-35637888D01*
X31400000Y-35362112D01*
X31346199Y-35091635D01*
X31240664Y-34836851D01*
X31087451Y-34607552D01*
X30892448Y-34412549D01*
X30663149Y-34259336D01*
X30408365Y-34153801D01*
X30325000Y-34137219D01*
X30325000Y-30515894D01*
X30329861Y-30466311D01*
X30339644Y-30433910D01*
X30355537Y-30404018D01*
X30376932Y-30377787D01*
X30403015Y-30356209D01*
X30432786Y-30340112D01*
X30465125Y-30330101D01*
X30513659Y-30325000D01*
X31259066Y-30325000D01*
X31248585Y-30332003D01*
%TA.AperFunction,Conductor*%
D18*
G36*
X31248585Y-30332003D02*
G01*
X31248579Y-30332008D01*
X31248576Y-30332010D01*
X31235973Y-30342353D01*
X31208242Y-30365112D01*
X31187686Y-30381982D01*
X31171126Y-30398542D01*
X31171122Y-30398545D01*
X31131976Y-30437691D01*
X31115188Y-30458148D01*
X31096866Y-30480472D01*
X31096863Y-30480478D01*
X31082000Y-30498589D01*
X31058495Y-30533769D01*
X31051758Y-30543852D01*
X31049973Y-30546523D01*
X31038241Y-30564081D01*
X31027197Y-30584742D01*
X31027192Y-30584748D01*
X31015563Y-30606507D01*
X31001108Y-30633549D01*
X31001102Y-30633564D01*
X31001097Y-30633573D01*
X30995235Y-30647727D01*
X30979921Y-30684695D01*
X30979919Y-30684707D01*
X30970955Y-30706349D01*
X30966918Y-30719660D01*
X30951193Y-30771496D01*
X30948090Y-30781726D01*
X30943520Y-30804700D01*
X30943518Y-30804705D01*
X30938286Y-30831012D01*
X30937125Y-30836850D01*
X30896824Y-30858391D01*
X30815325Y-30912847D01*
X30769644Y-30950336D01*
X30700336Y-31019644D01*
X30662847Y-31065325D01*
X30608391Y-31146824D01*
X30580533Y-31198943D01*
X30543024Y-31289499D01*
X30525870Y-31346048D01*
X30506748Y-31442181D01*
X30500956Y-31500991D01*
X30500956Y-31525550D01*
X30498548Y-31550000D01*
X30498548Y-32050000D01*
X30500956Y-32074450D01*
X30500956Y-32099009D01*
X30506748Y-32157819D01*
X30525870Y-32253952D01*
X30543024Y-32310501D01*
X30580533Y-32401057D01*
X30608391Y-32453176D01*
X30662847Y-32534675D01*
X30700336Y-32580356D01*
X30769644Y-32649664D01*
X30815325Y-32687153D01*
X30896824Y-32741609D01*
X30948943Y-32769467D01*
X31039499Y-32806976D01*
X31096048Y-32824130D01*
X31192181Y-32843252D01*
X31250991Y-32849044D01*
X31275550Y-32849044D01*
X31300000Y-32851452D01*
X31850000Y-32851452D01*
X31908810Y-32845660D01*
X31965361Y-32828505D01*
X31975001Y-32823352D01*
X31984640Y-32828504D01*
X32041190Y-32845659D01*
X32100000Y-32851451D01*
X32312349Y-32851451D01*
X32326183Y-32877333D01*
X32326187Y-32877340D01*
X32344634Y-32904947D01*
X32356478Y-32922672D01*
X32364794Y-32935118D01*
X32365294Y-32935866D01*
X32409944Y-32990273D01*
X32459724Y-33040053D01*
X32483194Y-33059314D01*
X32502513Y-33075169D01*
X32502515Y-33075170D01*
X32511639Y-33082658D01*
X32514136Y-33084707D01*
X32526634Y-33093058D01*
X32550300Y-33108871D01*
X32556685Y-33113137D01*
X32572664Y-33123814D01*
X32634737Y-33156993D01*
X32654189Y-33165050D01*
X32669401Y-33171351D01*
X32699767Y-33183930D01*
X32714160Y-33188297D01*
X32714167Y-33188300D01*
X32746336Y-33198057D01*
X32767121Y-33204363D01*
X32767130Y-33204365D01*
X32767144Y-33204369D01*
X32787011Y-33208320D01*
X32821417Y-33215166D01*
X32821428Y-33215166D01*
X32836167Y-33218098D01*
X32836175Y-33218099D01*
X32836176Y-33218099D01*
X32839090Y-33218386D01*
X32851129Y-33219572D01*
X32851135Y-33219574D01*
X32887563Y-33223162D01*
X32906212Y-33224999D01*
X32906219Y-33224999D01*
X32906229Y-33225000D01*
X35073549Y-33225000D01*
X35073549Y-33859693D01*
X35034640Y-33871496D01*
X34982523Y-33899353D01*
X34936842Y-33936842D01*
X34899353Y-33982523D01*
X34871496Y-34034640D01*
X34859693Y-34073549D01*
X34200000Y-34073549D01*
X34126558Y-34080782D01*
X34055938Y-34102205D01*
X33990855Y-34136992D01*
X33944543Y-34175000D01*
X33030255Y-34175000D01*
X32995466Y-34178426D01*
X32995463Y-34178426D01*
X32966199Y-34181309D01*
X32940382Y-34183851D01*
X32940374Y-34183853D01*
X32940370Y-34183853D01*
X32919481Y-34188008D01*
X32886085Y-34194650D01*
X32886082Y-34194651D01*
X32851798Y-34201470D01*
X32818344Y-34211617D01*
X32818339Y-34211618D01*
X32799851Y-34217227D01*
X32765380Y-34227683D01*
X32714233Y-34248868D01*
X32714229Y-34248870D01*
X32681931Y-34262249D01*
X32681929Y-34262250D01*
X32602285Y-34304821D01*
X32573220Y-34324241D01*
X32573219Y-34324242D01*
X32560952Y-34332439D01*
X32527194Y-34354995D01*
X32527190Y-34354999D01*
X32527189Y-34354999D01*
X32500171Y-34377171D01*
X32500168Y-34377173D01*
X32481723Y-34392311D01*
X32457380Y-34412288D01*
X32362291Y-34507377D01*
X32305001Y-34577184D01*
X32274244Y-34623214D01*
X32274242Y-34623218D01*
X32254821Y-34652284D01*
X32238344Y-34683110D01*
X32238341Y-34683114D01*
X32212245Y-34731938D01*
X32181817Y-34805400D01*
X32177686Y-34815374D01*
X32151699Y-34901046D01*
X32151470Y-34901800D01*
X32133852Y-34990371D01*
X32128426Y-35045464D01*
X32128426Y-35045467D01*
X32125000Y-35080256D01*
X32125000Y-36997883D01*
X32060429Y-36971136D01*
X31954170Y-36950000D01*
X31845830Y-36950000D01*
X31739571Y-36971136D01*
X31639477Y-37012597D01*
X31549396Y-37072787D01*
X31472787Y-37149396D01*
X31412597Y-37239477D01*
X31371136Y-37339571D01*
X31366071Y-37365036D01*
X31362857Y-37375314D01*
X31358252Y-37391649D01*
X31347705Y-37433571D01*
X31345241Y-37444176D01*
X31337126Y-37482216D01*
X31336870Y-37483429D01*
X31330631Y-37513277D01*
X31326447Y-37530180D01*
X31324293Y-37536673D01*
X31323134Y-37539215D01*
X31319693Y-37544880D01*
X31309291Y-37558403D01*
X31284306Y-37585363D01*
X31062295Y-37807373D01*
X31027174Y-37850167D01*
X31027173Y-37850169D01*
X31004999Y-37877188D01*
X30977549Y-37918270D01*
X30954821Y-37952285D01*
X30913933Y-38028781D01*
X30912249Y-38031932D01*
X30898871Y-38064228D01*
X30898868Y-38064233D01*
X30877683Y-38115380D01*
X30876556Y-38119095D01*
X30848943Y-38130533D01*
X30796824Y-38158391D01*
X30715325Y-38212847D01*
X30669644Y-38250336D01*
X30600336Y-38319644D01*
X30562847Y-38365325D01*
X30508391Y-38446824D01*
X30480533Y-38498943D01*
X30443024Y-38589499D01*
X30425870Y-38646048D01*
X30406748Y-38742181D01*
X30400956Y-38800991D01*
X30400956Y-38825550D01*
X30398548Y-38850000D01*
X30398548Y-39350000D01*
X30400956Y-39374450D01*
X30400956Y-39399009D01*
X30406748Y-39457819D01*
X30425870Y-39553952D01*
X30443024Y-39610501D01*
X30480533Y-39701057D01*
X30508391Y-39753176D01*
X30562847Y-39834675D01*
X30600336Y-39880356D01*
X30669644Y-39949664D01*
X30715325Y-39987153D01*
X30796824Y-40041609D01*
X30848943Y-40069467D01*
X30939499Y-40106976D01*
X30996048Y-40124130D01*
X31092181Y-40143252D01*
X31150991Y-40149044D01*
X31175550Y-40149044D01*
X31200000Y-40151452D01*
X31750000Y-40151452D01*
X31808810Y-40145660D01*
X31865361Y-40128505D01*
X31875001Y-40123352D01*
X31884640Y-40128504D01*
X31941190Y-40145659D01*
X32000000Y-40151451D01*
X33000000Y-40151451D01*
X33058810Y-40145659D01*
X33115360Y-40128504D01*
X33124999Y-40123352D01*
X33134639Y-40128505D01*
X33191190Y-40145660D01*
X33250000Y-40151452D01*
X33800000Y-40151452D01*
X33824450Y-40149044D01*
X33849009Y-40149044D01*
X33907819Y-40143252D01*
X34003952Y-40124130D01*
X34060501Y-40106976D01*
X34151057Y-40069467D01*
X34164091Y-40062500D01*
X38914058Y-40062500D01*
X38925797Y-40181689D01*
X38960563Y-40296297D01*
X39017020Y-40401921D01*
X39092999Y-40494501D01*
X39185579Y-40570480D01*
X39291203Y-40626937D01*
X39405811Y-40661703D01*
X39525000Y-40673442D01*
X39843000Y-40670500D01*
X39995000Y-40518500D01*
X39995000Y-39530000D01*
X40005000Y-39530000D01*
X40005000Y-40518500D01*
X40157000Y-40670500D01*
X40475000Y-40673442D01*
X40594189Y-40661703D01*
X40708797Y-40626937D01*
X40814421Y-40570480D01*
X40907001Y-40494501D01*
X40982980Y-40401921D01*
X41039437Y-40296297D01*
X41074203Y-40181689D01*
X41085942Y-40062500D01*
X41083000Y-39682000D01*
X40931000Y-39530000D01*
X40005000Y-39530000D01*
X39995000Y-39530000D01*
X39069000Y-39530000D01*
X38917000Y-39682000D01*
X38914058Y-40062500D01*
X34164091Y-40062500D01*
X34203176Y-40041609D01*
X34284675Y-39987153D01*
X34330356Y-39949664D01*
X34399664Y-39880356D01*
X34437153Y-39834675D01*
X34491609Y-39753176D01*
X34519467Y-39701057D01*
X34556976Y-39610501D01*
X34574130Y-39553952D01*
X34593252Y-39457819D01*
X34599044Y-39399009D01*
X34599044Y-39374450D01*
X34601452Y-39350000D01*
X34601452Y-38850000D01*
X34599044Y-38825550D01*
X34599044Y-38800991D01*
X34593252Y-38742181D01*
X34574130Y-38646048D01*
X34556976Y-38589499D01*
X34519467Y-38498943D01*
X34491609Y-38446824D01*
X34437153Y-38365325D01*
X34399664Y-38319644D01*
X34330356Y-38250336D01*
X34284675Y-38212847D01*
X34207172Y-38161061D01*
X34210230Y-38155873D01*
X34217835Y-38142160D01*
X34223395Y-38131488D01*
X34237403Y-38110523D01*
X34278864Y-38010429D01*
X34300000Y-37904170D01*
X34300000Y-37795830D01*
X34278864Y-37689571D01*
X34237403Y-37589477D01*
X34177213Y-37499396D01*
X34100604Y-37422787D01*
X34010523Y-37362597D01*
X33910429Y-37321136D01*
X33804170Y-37300000D01*
X33695830Y-37300000D01*
X33589571Y-37321136D01*
X33489477Y-37362597D01*
X33462546Y-37380592D01*
X33457329Y-37383432D01*
X33437126Y-37395481D01*
X33401672Y-37418557D01*
X33391029Y-37425814D01*
X33371727Y-37439591D01*
X33361652Y-37431323D01*
X33280329Y-37350000D01*
X33329191Y-37350000D01*
X33435450Y-37328864D01*
X33535544Y-37287403D01*
X33625625Y-37227213D01*
X33702234Y-37150604D01*
X33762424Y-37060523D01*
X33803885Y-36960429D01*
X33810193Y-36928716D01*
X33811458Y-36924430D01*
X33817041Y-36902495D01*
X33825741Y-36861981D01*
X33827920Y-36850805D01*
X33828061Y-36850000D01*
X33975005Y-36850000D01*
X33990855Y-36863008D01*
X34055938Y-36897795D01*
X34126558Y-36919218D01*
X34200000Y-36926451D01*
X34859693Y-36926451D01*
X34871496Y-36965360D01*
X34899353Y-37017477D01*
X34936842Y-37063158D01*
X34982523Y-37100647D01*
X35034640Y-37128504D01*
X35073549Y-37140307D01*
X35073549Y-37800000D01*
X35080782Y-37873442D01*
X35102205Y-37944062D01*
X35136992Y-38009145D01*
X35183809Y-38066191D01*
X35240855Y-38113008D01*
X35305938Y-38147795D01*
X35376558Y-38169218D01*
X35450000Y-38176451D01*
X35600000Y-38176451D01*
X35673442Y-38169218D01*
X35744062Y-38147795D01*
X35809145Y-38113008D01*
X35850000Y-38079479D01*
X35890855Y-38113008D01*
X35955938Y-38147795D01*
X36026558Y-38169218D01*
X36100000Y-38176451D01*
X36250000Y-38176451D01*
X36323442Y-38169218D01*
X36394062Y-38147795D01*
X36459145Y-38113008D01*
X36500000Y-38079479D01*
X36540855Y-38113008D01*
X36605938Y-38147795D01*
X36676558Y-38169218D01*
X36750000Y-38176451D01*
X36900000Y-38176451D01*
X36973442Y-38169218D01*
X37044062Y-38147795D01*
X37109145Y-38113008D01*
X37150000Y-38079479D01*
X37190855Y-38113008D01*
X37255938Y-38147795D01*
X37326558Y-38169218D01*
X37400000Y-38176451D01*
X37550000Y-38176451D01*
X37623442Y-38169218D01*
X37694062Y-38147795D01*
X37759145Y-38113008D01*
X37816191Y-38066191D01*
X37863008Y-38009145D01*
X37897795Y-37944062D01*
X37919218Y-37873442D01*
X37926451Y-37800000D01*
X37926451Y-37222606D01*
X37933740Y-37224778D01*
X38052984Y-37235935D01*
X38305500Y-37233000D01*
X38457500Y-37081000D01*
X38457500Y-36480000D01*
X38467500Y-36480000D01*
X38467500Y-37081000D01*
X38619500Y-37233000D01*
X38872016Y-37235935D01*
X38991260Y-37224778D01*
X39106037Y-37190572D01*
X39211936Y-37134632D01*
X39304886Y-37059106D01*
X39381316Y-36966899D01*
X39438288Y-36861552D01*
X39473614Y-36747114D01*
X39483000Y-36632000D01*
X39331000Y-36480000D01*
X38467500Y-36480000D01*
X38457500Y-36480000D01*
X38437500Y-36480000D01*
X38437500Y-36470000D01*
X38457500Y-36470000D01*
X38457500Y-36450000D01*
X38467500Y-36450000D01*
X38467500Y-36470000D01*
X39331000Y-36470000D01*
X39483000Y-36318000D01*
X39479494Y-36275000D01*
X39550001Y-36275000D01*
X39550000Y-37005416D01*
X39463075Y-37051879D01*
X39381404Y-37118904D01*
X39314379Y-37200575D01*
X39264574Y-37293752D01*
X39233905Y-37394856D01*
X39223549Y-37500000D01*
X39223549Y-38100000D01*
X39233905Y-38205144D01*
X39264574Y-38306248D01*
X39314379Y-38399425D01*
X39325292Y-38412722D01*
X39291203Y-38423063D01*
X39185579Y-38479520D01*
X39092999Y-38555499D01*
X39017020Y-38648079D01*
X38960563Y-38753703D01*
X38925797Y-38868311D01*
X38914058Y-38987500D01*
X38917000Y-39368000D01*
X39069000Y-39520000D01*
X39995000Y-39520000D01*
X39995000Y-39500000D01*
X40005000Y-39500000D01*
X40005000Y-39520000D01*
X40931000Y-39520000D01*
X41083000Y-39368000D01*
X41085942Y-38987500D01*
X41074203Y-38868311D01*
X41039437Y-38753703D01*
X40982980Y-38648079D01*
X40907001Y-38555499D01*
X40814421Y-38479520D01*
X40708797Y-38423063D01*
X40674708Y-38412722D01*
X40685621Y-38399425D01*
X40735426Y-38306248D01*
X40740957Y-38288016D01*
X40839571Y-38328864D01*
X40945830Y-38350000D01*
X41054170Y-38350000D01*
X41160429Y-38328864D01*
X41260523Y-38287403D01*
X41350604Y-38227213D01*
X41427213Y-38150604D01*
X41487403Y-38060523D01*
X41528864Y-37960429D01*
X41550000Y-37854170D01*
X41550000Y-37745830D01*
X41528864Y-37639571D01*
X41487403Y-37539477D01*
X41427213Y-37449396D01*
X41350604Y-37372787D01*
X41260523Y-37312597D01*
X41160429Y-37271136D01*
X41054170Y-37250000D01*
X40945830Y-37250000D01*
X40839571Y-37271136D01*
X40740957Y-37311984D01*
X40735426Y-37293752D01*
X40685621Y-37200575D01*
X40618596Y-37118904D01*
X40536925Y-37051879D01*
X40450000Y-37005416D01*
X40450000Y-35849993D01*
X40450750Y-35845814D01*
X40450433Y-35828907D01*
X40452176Y-35811208D01*
X40451364Y-35802967D01*
X40451795Y-35795439D01*
X40451533Y-35793570D01*
X40451759Y-35791395D01*
X40451125Y-35784595D01*
X40451819Y-35772725D01*
X40450505Y-35763261D01*
X40450562Y-35759061D01*
X40450082Y-35756462D01*
X40450123Y-35741901D01*
X40450000Y-35741273D01*
X40450000Y-35732444D01*
X40450001Y-35732439D01*
X40450000Y-35699295D01*
X40450000Y-35666034D01*
X40449901Y-35665022D01*
X40448614Y-35651959D01*
X40443489Y-35599924D01*
X40443487Y-35599916D01*
X40443339Y-35598417D01*
X40436248Y-35562769D01*
X40430084Y-35531786D01*
X40429179Y-35528801D01*
X40410362Y-35466775D01*
X40396272Y-35432762D01*
X40384942Y-35405409D01*
X40384941Y-35405408D01*
X40384366Y-35404019D01*
X40352344Y-35344110D01*
X40351506Y-35342857D01*
X40351505Y-35342853D01*
X40330829Y-35311910D01*
X40314607Y-35287630D01*
X40272465Y-35236279D01*
X40272461Y-35236276D01*
X40271502Y-35235107D01*
X40018050Y-34981655D01*
X40014324Y-34978597D01*
X39993891Y-34961828D01*
X39993888Y-34961824D01*
X39942537Y-34919682D01*
X39914646Y-34901046D01*
X39909677Y-34897726D01*
X39887310Y-34882780D01*
X39887305Y-34882778D01*
X39861319Y-34865415D01*
X39775174Y-34819369D01*
X39746295Y-34807407D01*
X39746288Y-34807402D01*
X39700492Y-34788434D01*
X39684928Y-34781987D01*
X39684921Y-34781985D01*
X39684914Y-34781982D01*
X39659113Y-34774156D01*
X39621358Y-34762703D01*
X39621351Y-34762702D01*
X39596848Y-34755270D01*
X39591445Y-34753631D01*
X39591443Y-34753631D01*
X39591441Y-34753630D01*
X39564614Y-34748294D01*
X39560790Y-34747533D01*
X39560787Y-34747532D01*
X39503211Y-34736080D01*
X39497393Y-34734923D01*
X39499084Y-34732863D01*
X39518502Y-34709201D01*
X39519387Y-34708317D01*
X39520084Y-34707274D01*
X39520882Y-34706302D01*
X39521471Y-34705200D01*
X39533678Y-34686930D01*
X39554929Y-34655128D01*
X39555724Y-34654159D01*
X39556324Y-34653036D01*
X39557001Y-34652023D01*
X39557467Y-34650897D01*
X39578014Y-34612453D01*
X39585866Y-34597765D01*
X39586552Y-34596738D01*
X39587027Y-34595592D01*
X39587612Y-34594497D01*
X39587970Y-34593317D01*
X39595565Y-34574980D01*
X39611024Y-34537661D01*
X39611604Y-34536577D01*
X39611961Y-34535401D01*
X39612445Y-34534232D01*
X39612689Y-34533005D01*
X39616980Y-34518859D01*
X39630166Y-34475393D01*
X39630644Y-34474238D01*
X39630889Y-34473008D01*
X39630893Y-34472995D01*
X39630896Y-34472979D01*
X39631258Y-34471786D01*
X39631380Y-34470547D01*
X39638994Y-34432271D01*
X39643124Y-34411511D01*
X39643489Y-34410309D01*
X39643613Y-34409047D01*
X39643853Y-34407842D01*
X39643853Y-34406613D01*
X39649105Y-34353285D01*
X39650121Y-34342976D01*
X39650000Y-34341747D01*
X39650000Y-34332444D01*
X39650001Y-34332439D01*
X39650000Y-34303569D01*
X39650002Y-34277795D01*
X39650000Y-34277785D01*
X39650000Y-34266034D01*
X39649984Y-34265863D01*
X39648564Y-34251451D01*
X39643489Y-34199924D01*
X39643487Y-34199916D01*
X39643339Y-34198417D01*
X39641835Y-34190854D01*
X39630084Y-34131786D01*
X39629237Y-34128991D01*
X39610362Y-34066775D01*
X39594307Y-34028018D01*
X39584942Y-34005409D01*
X39584941Y-34005408D01*
X39584366Y-34004019D01*
X39552344Y-33944110D01*
X39551506Y-33942857D01*
X39551505Y-33942853D01*
X39529590Y-33910056D01*
X39514607Y-33887630D01*
X39472465Y-33836279D01*
X39472461Y-33836276D01*
X39471502Y-33835107D01*
X39437677Y-33801282D01*
X39437675Y-33801279D01*
X39402757Y-33766362D01*
X39390705Y-33754310D01*
X39381944Y-33747120D01*
X39381940Y-33747115D01*
X39339789Y-33712524D01*
X39330596Y-33704979D01*
X39330592Y-33704977D01*
X39330588Y-33704973D01*
X39265936Y-33661775D01*
X39231224Y-33643222D01*
X39197363Y-33625123D01*
X39186888Y-33620784D01*
X39186882Y-33620780D01*
X39143240Y-33602704D01*
X39125525Y-33595366D01*
X39125519Y-33595364D01*
X39125509Y-33595360D01*
X39099187Y-33587376D01*
X39061956Y-33576081D01*
X39061948Y-33576080D01*
X39051101Y-33572790D01*
X39039988Y-33570580D01*
X39039979Y-33570576D01*
X38995814Y-33561793D01*
X38974852Y-33557623D01*
X38974838Y-33557622D01*
X38974825Y-33557619D01*
X38952313Y-33555402D01*
X38912500Y-33551480D01*
X38912500Y-32552488D01*
X38968748Y-32535426D01*
X39061925Y-32485621D01*
X39143596Y-32418596D01*
X39210621Y-32336925D01*
X39257084Y-32250000D01*
X39342916Y-32250000D01*
X39389379Y-32336925D01*
X39456404Y-32418596D01*
X39538075Y-32485621D01*
X39631252Y-32535426D01*
X39732356Y-32566095D01*
X39837500Y-32576451D01*
X40337500Y-32576451D01*
X40442644Y-32566095D01*
X40543748Y-32535426D01*
X40636925Y-32485621D01*
X40718596Y-32418596D01*
X40785621Y-32336925D01*
X40835426Y-32243748D01*
X40866095Y-32142644D01*
X40876451Y-32037500D01*
X40876451Y-31562500D01*
X40866095Y-31457356D01*
X40863864Y-31450000D01*
X40891724Y-31450000D01*
X40900935Y-31450907D01*
X40910005Y-31452711D01*
X40918860Y-31455397D01*
X40927408Y-31458938D01*
X40935567Y-31463299D01*
X40943267Y-31468444D01*
X40950416Y-31474311D01*
X41123549Y-31647444D01*
X41123549Y-32037500D01*
X41133905Y-32142644D01*
X41164574Y-32243748D01*
X41214379Y-32336925D01*
X41281404Y-32418596D01*
X41363075Y-32485621D01*
X41456252Y-32535426D01*
X41557356Y-32566095D01*
X41662500Y-32576451D01*
X42162500Y-32576451D01*
X42267644Y-32566095D01*
X42368748Y-32535426D01*
X42461925Y-32485621D01*
X42543596Y-32418596D01*
X42610621Y-32336925D01*
X42660426Y-32243748D01*
X42675000Y-32195703D01*
X42675000Y-34137219D01*
X42591635Y-34153801D01*
X42336851Y-34259336D01*
X42107552Y-34412549D01*
X41912549Y-34607552D01*
X41759336Y-34836851D01*
X41653801Y-35091635D01*
X41600000Y-35362112D01*
X41600000Y-35637888D01*
X41653801Y-35908365D01*
X41759336Y-36163149D01*
X41912549Y-36392448D01*
X42107552Y-36587451D01*
X42336851Y-36740664D01*
X42591635Y-36846199D01*
X42675001Y-36862781D01*
X42675001Y-40484096D01*
X42670139Y-40533689D01*
X42660356Y-40566090D01*
X42644462Y-40595984D01*
X42623068Y-40622214D01*
X42596989Y-40643789D01*
X42567213Y-40659889D01*
X42534875Y-40669899D01*
X42486342Y-40675000D01*
X30515894Y-40675000D01*
X30466311Y-40670139D01*
X30433910Y-40660356D01*
X30404016Y-40644462D01*
X30377786Y-40623068D01*
X30356211Y-40596989D01*
X30340111Y-40567213D01*
X30330101Y-40534875D01*
X30325000Y-40486342D01*
X30325000Y-36862781D01*
X30408365Y-36846199D01*
X30663149Y-36740664D01*
X30892448Y-36587451D01*
X31087451Y-36392448D01*
X31240664Y-36163149D01*
X31346199Y-35908365D01*
X31400000Y-35637888D01*
X31400000Y-35362112D01*
X31346199Y-35091635D01*
X31240664Y-34836851D01*
X31087451Y-34607552D01*
X30892448Y-34412549D01*
X30663149Y-34259336D01*
X30408365Y-34153801D01*
X30325000Y-34137219D01*
X30325000Y-30515894D01*
X30329861Y-30466311D01*
X30339644Y-30433910D01*
X30355537Y-30404018D01*
X30376932Y-30377787D01*
X30403015Y-30356209D01*
X30432786Y-30340112D01*
X30465125Y-30330101D01*
X30513659Y-30325000D01*
X31259066Y-30325000D01*
X31248585Y-30332003D01*
G37*
%TD.AperFunction*%
D17*
X37480000Y-33532500D02*
X37500000Y-33532500D01*
X37500000Y-33542500D01*
X37480000Y-33542500D01*
X37480000Y-33562500D01*
X37470000Y-33562500D01*
X37470000Y-33542500D01*
X37450000Y-33542500D01*
X37450000Y-33532500D01*
X37470000Y-33532500D01*
X37470000Y-33512500D01*
X37480000Y-33512500D01*
X37480000Y-33532500D01*
%TA.AperFunction,Conductor*%
D18*
G36*
X37480000Y-33532500D02*
G01*
X37500000Y-33532500D01*
X37500000Y-33542500D01*
X37480000Y-33542500D01*
X37480000Y-33562500D01*
X37470000Y-33562500D01*
X37470000Y-33542500D01*
X37450000Y-33542500D01*
X37450000Y-33532500D01*
X37470000Y-33532500D01*
X37470000Y-33512500D01*
X37480000Y-33512500D01*
X37480000Y-33532500D01*
G37*
%TD.AperFunction*%
D17*
X42533689Y-30329861D02*
X42566090Y-30339644D01*
X42595982Y-30355537D01*
X42622213Y-30376932D01*
X42643791Y-30403015D01*
X42659888Y-30432786D01*
X42669899Y-30465125D01*
X42675000Y-30513659D01*
X42675000Y-31404297D01*
X42660426Y-31356252D01*
X42610621Y-31263075D01*
X42543596Y-31181404D01*
X42461925Y-31114379D01*
X42368748Y-31064574D01*
X42267644Y-31033905D01*
X42162500Y-31023549D01*
X41772444Y-31023549D01*
X41555550Y-30806655D01*
X41553153Y-30804688D01*
X41531391Y-30786828D01*
X41531388Y-30786824D01*
X41480037Y-30744682D01*
X41452894Y-30726546D01*
X41448249Y-30723442D01*
X41424810Y-30707780D01*
X41424805Y-30707778D01*
X41398819Y-30690415D01*
X41312674Y-30644369D01*
X41283795Y-30632407D01*
X41283788Y-30632402D01*
X41237992Y-30613434D01*
X41222428Y-30606987D01*
X41222421Y-30606985D01*
X41222414Y-30606982D01*
X41199663Y-30600081D01*
X41158858Y-30587703D01*
X41158851Y-30587702D01*
X41140853Y-30582243D01*
X41128945Y-30578631D01*
X41128943Y-30578631D01*
X41128941Y-30578630D01*
X41103959Y-30573661D01*
X41098290Y-30572533D01*
X41098287Y-30572532D01*
X41044089Y-30561752D01*
X41033145Y-30559575D01*
X41033143Y-30559575D01*
X41033134Y-30559573D01*
X40991369Y-30555460D01*
X40967035Y-30553063D01*
X40967032Y-30553063D01*
X40935929Y-30550000D01*
X39691016Y-30550000D01*
X39640948Y-30549643D01*
X39601576Y-30548544D01*
X39571589Y-30546743D01*
X39549876Y-30544451D01*
X39534333Y-30541895D01*
X39521952Y-30539003D01*
X39509038Y-30535046D01*
X39492254Y-30528759D01*
X39471061Y-30519638D01*
X39460523Y-30512597D01*
X39360429Y-30471136D01*
X39254170Y-30450000D01*
X39145830Y-30450000D01*
X39039571Y-30471136D01*
X38939477Y-30512597D01*
X38849396Y-30572787D01*
X38772787Y-30649396D01*
X38712597Y-30739477D01*
X38671136Y-30839571D01*
X38650000Y-30945830D01*
X38650000Y-31023549D01*
X38162500Y-31023549D01*
X38057356Y-31033905D01*
X37956252Y-31064574D01*
X37863075Y-31114379D01*
X37849778Y-31125292D01*
X37839437Y-31091203D01*
X37782980Y-30985579D01*
X37707001Y-30892999D01*
X37614421Y-30817020D01*
X37508797Y-30760563D01*
X37394189Y-30725797D01*
X37275000Y-30714058D01*
X36894500Y-30717000D01*
X36742500Y-30869000D01*
X36742500Y-31795000D01*
X36762500Y-31795000D01*
X36762500Y-31805000D01*
X36742500Y-31805000D01*
X36742500Y-31825000D01*
X36732500Y-31825000D01*
X36732500Y-31805000D01*
X35744000Y-31805000D01*
X35592000Y-31957000D01*
X35589058Y-32275000D01*
X35600797Y-32394189D01*
X35625311Y-32475000D01*
X34923828Y-32475000D01*
X34942908Y-32428937D01*
X34977673Y-32314331D01*
X34996795Y-32218198D01*
X35008534Y-32099009D01*
X35008534Y-32074449D01*
X35010942Y-32050000D01*
X35010942Y-31550000D01*
X35008534Y-31525551D01*
X35008534Y-31516008D01*
X35039571Y-31528864D01*
X35145830Y-31550000D01*
X35254170Y-31550000D01*
X35360429Y-31528864D01*
X35460523Y-31487403D01*
X35550604Y-31427213D01*
X35589642Y-31388175D01*
X35592000Y-31643000D01*
X35744000Y-31795000D01*
X36732500Y-31795000D01*
X36732500Y-30869000D01*
X36580500Y-30717000D01*
X36200000Y-30714058D01*
X36080811Y-30725797D01*
X35966203Y-30760563D01*
X35860579Y-30817020D01*
X35767999Y-30892999D01*
X35745053Y-30920959D01*
X35728864Y-30839571D01*
X35687403Y-30739477D01*
X35627213Y-30649396D01*
X35550604Y-30572787D01*
X35460523Y-30512597D01*
X35360429Y-30471136D01*
X35341730Y-30467417D01*
X35328535Y-30462982D01*
X35323836Y-30461445D01*
X35281191Y-30447891D01*
X35279570Y-30447382D01*
X35243245Y-30436063D01*
X35214262Y-30426693D01*
X35191643Y-30418636D01*
X35172041Y-30410632D01*
X35151256Y-30400818D01*
X35125573Y-30387001D01*
X35092401Y-30367175D01*
X35048329Y-30338641D01*
X35027914Y-30325000D01*
X42484106Y-30325000D01*
X42533689Y-30329861D01*
%TA.AperFunction,Conductor*%
D18*
G36*
X42533689Y-30329861D02*
G01*
X42566090Y-30339644D01*
X42595982Y-30355537D01*
X42622213Y-30376932D01*
X42643791Y-30403015D01*
X42659888Y-30432786D01*
X42669899Y-30465125D01*
X42675000Y-30513659D01*
X42675000Y-31404297D01*
X42660426Y-31356252D01*
X42610621Y-31263075D01*
X42543596Y-31181404D01*
X42461925Y-31114379D01*
X42368748Y-31064574D01*
X42267644Y-31033905D01*
X42162500Y-31023549D01*
X41772444Y-31023549D01*
X41555550Y-30806655D01*
X41553153Y-30804688D01*
X41531391Y-30786828D01*
X41531388Y-30786824D01*
X41480037Y-30744682D01*
X41452894Y-30726546D01*
X41448249Y-30723442D01*
X41424810Y-30707780D01*
X41424805Y-30707778D01*
X41398819Y-30690415D01*
X41312674Y-30644369D01*
X41283795Y-30632407D01*
X41283788Y-30632402D01*
X41237992Y-30613434D01*
X41222428Y-30606987D01*
X41222421Y-30606985D01*
X41222414Y-30606982D01*
X41199663Y-30600081D01*
X41158858Y-30587703D01*
X41158851Y-30587702D01*
X41140853Y-30582243D01*
X41128945Y-30578631D01*
X41128943Y-30578631D01*
X41128941Y-30578630D01*
X41103959Y-30573661D01*
X41098290Y-30572533D01*
X41098287Y-30572532D01*
X41044089Y-30561752D01*
X41033145Y-30559575D01*
X41033143Y-30559575D01*
X41033134Y-30559573D01*
X40991369Y-30555460D01*
X40967035Y-30553063D01*
X40967032Y-30553063D01*
X40935929Y-30550000D01*
X39691016Y-30550000D01*
X39640948Y-30549643D01*
X39601576Y-30548544D01*
X39571589Y-30546743D01*
X39549876Y-30544451D01*
X39534333Y-30541895D01*
X39521952Y-30539003D01*
X39509038Y-30535046D01*
X39492254Y-30528759D01*
X39471061Y-30519638D01*
X39460523Y-30512597D01*
X39360429Y-30471136D01*
X39254170Y-30450000D01*
X39145830Y-30450000D01*
X39039571Y-30471136D01*
X38939477Y-30512597D01*
X38849396Y-30572787D01*
X38772787Y-30649396D01*
X38712597Y-30739477D01*
X38671136Y-30839571D01*
X38650000Y-30945830D01*
X38650000Y-31023549D01*
X38162500Y-31023549D01*
X38057356Y-31033905D01*
X37956252Y-31064574D01*
X37863075Y-31114379D01*
X37849778Y-31125292D01*
X37839437Y-31091203D01*
X37782980Y-30985579D01*
X37707001Y-30892999D01*
X37614421Y-30817020D01*
X37508797Y-30760563D01*
X37394189Y-30725797D01*
X37275000Y-30714058D01*
X36894500Y-30717000D01*
X36742500Y-30869000D01*
X36742500Y-31795000D01*
X36762500Y-31795000D01*
X36762500Y-31805000D01*
X36742500Y-31805000D01*
X36742500Y-31825000D01*
X36732500Y-31825000D01*
X36732500Y-31805000D01*
X35744000Y-31805000D01*
X35592000Y-31957000D01*
X35589058Y-32275000D01*
X35600797Y-32394189D01*
X35625311Y-32475000D01*
X34923828Y-32475000D01*
X34942908Y-32428937D01*
X34977673Y-32314331D01*
X34996795Y-32218198D01*
X35008534Y-32099009D01*
X35008534Y-32074449D01*
X35010942Y-32050000D01*
X35010942Y-31550000D01*
X35008534Y-31525551D01*
X35008534Y-31516008D01*
X35039571Y-31528864D01*
X35145830Y-31550000D01*
X35254170Y-31550000D01*
X35360429Y-31528864D01*
X35460523Y-31487403D01*
X35550604Y-31427213D01*
X35589642Y-31388175D01*
X35592000Y-31643000D01*
X35744000Y-31795000D01*
X36732500Y-31795000D01*
X36732500Y-30869000D01*
X36580500Y-30717000D01*
X36200000Y-30714058D01*
X36080811Y-30725797D01*
X35966203Y-30760563D01*
X35860579Y-30817020D01*
X35767999Y-30892999D01*
X35745053Y-30920959D01*
X35728864Y-30839571D01*
X35687403Y-30739477D01*
X35627213Y-30649396D01*
X35550604Y-30572787D01*
X35460523Y-30512597D01*
X35360429Y-30471136D01*
X35341730Y-30467417D01*
X35328535Y-30462982D01*
X35323836Y-30461445D01*
X35281191Y-30447891D01*
X35279570Y-30447382D01*
X35243245Y-30436063D01*
X35214262Y-30426693D01*
X35191643Y-30418636D01*
X35172041Y-30410632D01*
X35151256Y-30400818D01*
X35125573Y-30387001D01*
X35092401Y-30367175D01*
X35048329Y-30338641D01*
X35027914Y-30325000D01*
X42484106Y-30325000D01*
X42533689Y-30329861D01*
G37*
%TD.AperFunction*%
%TD*%
D19*
%TO.N,+3V3*%
X39340843Y-30804017D02*
X39341225Y-30804189D01*
X39375266Y-30818840D01*
X39375833Y-30819068D01*
X39407921Y-30831086D01*
X39408653Y-30831335D01*
X39440070Y-30840964D01*
X39440903Y-30841189D01*
X39472932Y-30848670D01*
X39473760Y-30848835D01*
X39507682Y-30854413D01*
X39508410Y-30854511D01*
X39545507Y-30858427D01*
X39546079Y-30858474D01*
X39587633Y-30860970D01*
X39588040Y-30860988D01*
X39635332Y-30862308D01*
X39635596Y-30862313D01*
X39677300Y-30862610D01*
X39677300Y-31137390D01*
X39635596Y-31137686D01*
X39635332Y-31137691D01*
X39588040Y-31139011D01*
X39587633Y-31139029D01*
X39546079Y-31141525D01*
X39545507Y-31141572D01*
X39508410Y-31145488D01*
X39507682Y-31145586D01*
X39473760Y-31151164D01*
X39472932Y-31151329D01*
X39440903Y-31158810D01*
X39440070Y-31159035D01*
X39408653Y-31168664D01*
X39407921Y-31168913D01*
X39375833Y-31180931D01*
X39375266Y-31181159D01*
X39341225Y-31195810D01*
X39340842Y-31195982D01*
X39311476Y-31209789D01*
X39093322Y-31000000D01*
X39311477Y-30790211D01*
X39340843Y-30804017D01*
%TA.AperFunction,Conductor*%
D18*
G36*
X39340843Y-30804017D02*
G01*
X39341225Y-30804189D01*
X39375266Y-30818840D01*
X39375833Y-30819068D01*
X39407921Y-30831086D01*
X39408653Y-30831335D01*
X39440070Y-30840964D01*
X39440903Y-30841189D01*
X39472932Y-30848670D01*
X39473760Y-30848835D01*
X39507682Y-30854413D01*
X39508410Y-30854511D01*
X39545507Y-30858427D01*
X39546079Y-30858474D01*
X39587633Y-30860970D01*
X39588040Y-30860988D01*
X39635332Y-30862308D01*
X39635596Y-30862313D01*
X39677300Y-30862610D01*
X39677300Y-31137390D01*
X39635596Y-31137686D01*
X39635332Y-31137691D01*
X39588040Y-31139011D01*
X39587633Y-31139029D01*
X39546079Y-31141525D01*
X39545507Y-31141572D01*
X39508410Y-31145488D01*
X39507682Y-31145586D01*
X39473760Y-31151164D01*
X39472932Y-31151329D01*
X39440903Y-31158810D01*
X39440070Y-31159035D01*
X39408653Y-31168664D01*
X39407921Y-31168913D01*
X39375833Y-31180931D01*
X39375266Y-31181159D01*
X39341225Y-31195810D01*
X39340842Y-31195982D01*
X39311476Y-31209789D01*
X39093322Y-31000000D01*
X39311477Y-30790211D01*
X39340843Y-30804017D01*
G37*
%TD.AperFunction*%
%TD*%
D19*
%TO.N,+3V3*%
X41106678Y-37800000D02*
X40888524Y-38009789D01*
X40859157Y-37995982D01*
X40858774Y-37995810D01*
X40824733Y-37981159D01*
X40824166Y-37980931D01*
X40792078Y-37968913D01*
X40791346Y-37968664D01*
X40759929Y-37959035D01*
X40759096Y-37958810D01*
X40727067Y-37951329D01*
X40726239Y-37951164D01*
X40692317Y-37945586D01*
X40691589Y-37945488D01*
X40654492Y-37941572D01*
X40653920Y-37941525D01*
X40612366Y-37939029D01*
X40611959Y-37939011D01*
X40564667Y-37937691D01*
X40564403Y-37937686D01*
X40522700Y-37937390D01*
X40522700Y-37662610D01*
X40564403Y-37662313D01*
X40564667Y-37662308D01*
X40611959Y-37660988D01*
X40612366Y-37660970D01*
X40653920Y-37658474D01*
X40654492Y-37658427D01*
X40691589Y-37654511D01*
X40692317Y-37654413D01*
X40726239Y-37648835D01*
X40727067Y-37648670D01*
X40759096Y-37641189D01*
X40759929Y-37640964D01*
X40791346Y-37631335D01*
X40792078Y-37631086D01*
X40824166Y-37619068D01*
X40824733Y-37618840D01*
X40858774Y-37604189D01*
X40859156Y-37604017D01*
X40888523Y-37590211D01*
X41106678Y-37800000D01*
%TA.AperFunction,Conductor*%
D18*
G36*
X41106678Y-37800000D02*
G01*
X40888524Y-38009789D01*
X40859157Y-37995982D01*
X40858774Y-37995810D01*
X40824733Y-37981159D01*
X40824166Y-37980931D01*
X40792078Y-37968913D01*
X40791346Y-37968664D01*
X40759929Y-37959035D01*
X40759096Y-37958810D01*
X40727067Y-37951329D01*
X40726239Y-37951164D01*
X40692317Y-37945586D01*
X40691589Y-37945488D01*
X40654492Y-37941572D01*
X40653920Y-37941525D01*
X40612366Y-37939029D01*
X40611959Y-37939011D01*
X40564667Y-37937691D01*
X40564403Y-37937686D01*
X40522700Y-37937390D01*
X40522700Y-37662610D01*
X40564403Y-37662313D01*
X40564667Y-37662308D01*
X40611959Y-37660988D01*
X40612366Y-37660970D01*
X40653920Y-37658474D01*
X40654492Y-37658427D01*
X40691589Y-37654511D01*
X40692317Y-37654413D01*
X40726239Y-37648835D01*
X40727067Y-37648670D01*
X40759096Y-37641189D01*
X40759929Y-37640964D01*
X40791346Y-37631335D01*
X40792078Y-37631086D01*
X40824166Y-37619068D01*
X40824733Y-37618840D01*
X40858774Y-37604189D01*
X40859156Y-37604017D01*
X40888523Y-37590211D01*
X41106678Y-37800000D01*
G37*
%TD.AperFunction*%
%TD*%
D19*
%TO.N,+3V3*%
X34926951Y-30632574D02*
X34927337Y-30632814D01*
X34970977Y-30658897D01*
X34971476Y-30659180D01*
X35010043Y-30679927D01*
X35010637Y-30680227D01*
X35045773Y-30696818D01*
X35046395Y-30697092D01*
X35079746Y-30710710D01*
X35080285Y-30710916D01*
X35113493Y-30722745D01*
X35113848Y-30722865D01*
X35148558Y-30734086D01*
X35148687Y-30734127D01*
X35186542Y-30745923D01*
X35229015Y-30759422D01*
X35269520Y-30773035D01*
X35275432Y-31075432D01*
X34973397Y-31069527D01*
X34962351Y-31032058D01*
X34953654Y-30989681D01*
X34947725Y-30949973D01*
X34942562Y-30912547D01*
X34942477Y-30912016D01*
X34936049Y-30876579D01*
X34935758Y-30875335D01*
X34926005Y-30841432D01*
X34925336Y-30839632D01*
X34910190Y-30806732D01*
X34909072Y-30804780D01*
X34886463Y-30772349D01*
X34885074Y-30770681D01*
X34852933Y-30738187D01*
X34851566Y-30736989D01*
X34817375Y-30711126D01*
X34887101Y-30606773D01*
X34926951Y-30632574D01*
%TA.AperFunction,Conductor*%
D18*
G36*
X34926951Y-30632574D02*
G01*
X34927337Y-30632814D01*
X34970977Y-30658897D01*
X34971476Y-30659180D01*
X35010043Y-30679927D01*
X35010637Y-30680227D01*
X35045773Y-30696818D01*
X35046395Y-30697092D01*
X35079746Y-30710710D01*
X35080285Y-30710916D01*
X35113493Y-30722745D01*
X35113848Y-30722865D01*
X35148558Y-30734086D01*
X35148687Y-30734127D01*
X35186542Y-30745923D01*
X35229015Y-30759422D01*
X35269520Y-30773035D01*
X35275432Y-31075432D01*
X34973397Y-31069527D01*
X34962351Y-31032058D01*
X34953654Y-30989681D01*
X34947725Y-30949973D01*
X34942562Y-30912547D01*
X34942477Y-30912016D01*
X34936049Y-30876579D01*
X34935758Y-30875335D01*
X34926005Y-30841432D01*
X34925336Y-30839632D01*
X34910190Y-30806732D01*
X34909072Y-30804780D01*
X34886463Y-30772349D01*
X34885074Y-30770681D01*
X34852933Y-30738187D01*
X34851566Y-30736989D01*
X34817375Y-30711126D01*
X34887101Y-30606773D01*
X34926951Y-30632574D01*
G37*
%TD.AperFunction*%
%TD*%
D19*
%TO.N,+3V3*%
X31969524Y-37726762D02*
X31931706Y-37738586D01*
X31890381Y-37748982D01*
X31852542Y-37757054D01*
X31852542Y-37757055D01*
X31817352Y-37764410D01*
X31816899Y-37764513D01*
X31783370Y-37772812D01*
X31782422Y-37773086D01*
X31749524Y-37784000D01*
X31748252Y-37784499D01*
X31714900Y-37799712D01*
X31713578Y-37800412D01*
X31678688Y-37821604D01*
X31677538Y-37822393D01*
X31640025Y-37851248D01*
X31639135Y-37851999D01*
X31606884Y-37881888D01*
X31518109Y-37793113D01*
X31547998Y-37760862D01*
X31548749Y-37759972D01*
X31577605Y-37722460D01*
X31578394Y-37721310D01*
X31599586Y-37686419D01*
X31600286Y-37685097D01*
X31615499Y-37651745D01*
X31615998Y-37650473D01*
X31626913Y-37617575D01*
X31627187Y-37616627D01*
X31635486Y-37583099D01*
X31635589Y-37582646D01*
X31642944Y-37547456D01*
X31642945Y-37547456D01*
X31651016Y-37509624D01*
X31661415Y-37468288D01*
X31673239Y-37430475D01*
X31975432Y-37424568D01*
X31969524Y-37726762D01*
%TA.AperFunction,Conductor*%
D18*
G36*
X31969524Y-37726762D02*
G01*
X31931706Y-37738586D01*
X31890381Y-37748982D01*
X31852542Y-37757054D01*
X31852542Y-37757055D01*
X31817352Y-37764410D01*
X31816899Y-37764513D01*
X31783370Y-37772812D01*
X31782422Y-37773086D01*
X31749524Y-37784000D01*
X31748252Y-37784499D01*
X31714900Y-37799712D01*
X31713578Y-37800412D01*
X31678688Y-37821604D01*
X31677538Y-37822393D01*
X31640025Y-37851248D01*
X31639135Y-37851999D01*
X31606884Y-37881888D01*
X31518109Y-37793113D01*
X31547998Y-37760862D01*
X31548749Y-37759972D01*
X31577605Y-37722460D01*
X31578394Y-37721310D01*
X31599586Y-37686419D01*
X31600286Y-37685097D01*
X31615499Y-37651745D01*
X31615998Y-37650473D01*
X31626913Y-37617575D01*
X31627187Y-37616627D01*
X31635486Y-37583099D01*
X31635589Y-37582646D01*
X31642944Y-37547456D01*
X31642945Y-37547456D01*
X31651016Y-37509624D01*
X31661415Y-37468288D01*
X31673239Y-37430475D01*
X31975432Y-37424568D01*
X31969524Y-37726762D01*
G37*
%TD.AperFunction*%
%TD*%
D19*
%TO.N,/SCK*%
X33439363Y-35623979D02*
X33474012Y-35648911D01*
X33504929Y-35672247D01*
X33505041Y-35672330D01*
X33534000Y-35693692D01*
X33534542Y-35694071D01*
X33563277Y-35713041D01*
X33564282Y-35713640D01*
X33594652Y-35729891D01*
X33596029Y-35730525D01*
X33629889Y-35743733D01*
X33631413Y-35744219D01*
X33670621Y-35754056D01*
X33672046Y-35754328D01*
X33718459Y-35760470D01*
X33719640Y-35760571D01*
X33762900Y-35762224D01*
X33762900Y-35887724D01*
X33715344Y-35889341D01*
X33714316Y-35889418D01*
X33664190Y-35895218D01*
X33662992Y-35895415D01*
X33620457Y-35904520D01*
X33619216Y-35904852D01*
X33582167Y-35916803D01*
X33581089Y-35917206D01*
X33547423Y-35931547D01*
X33546699Y-35931882D01*
X33514309Y-35948152D01*
X33514027Y-35948299D01*
X33480944Y-35965968D01*
X33444998Y-35984614D01*
X33404394Y-36003648D01*
X33364863Y-36019517D01*
X33168871Y-35789410D01*
X33406485Y-35602542D01*
X33439363Y-35623979D01*
%TA.AperFunction,Conductor*%
D18*
G36*
X33439363Y-35623979D02*
G01*
X33474012Y-35648911D01*
X33504929Y-35672247D01*
X33505041Y-35672330D01*
X33534000Y-35693692D01*
X33534542Y-35694071D01*
X33563277Y-35713041D01*
X33564282Y-35713640D01*
X33594652Y-35729891D01*
X33596029Y-35730525D01*
X33629889Y-35743733D01*
X33631413Y-35744219D01*
X33670621Y-35754056D01*
X33672046Y-35754328D01*
X33718459Y-35760470D01*
X33719640Y-35760571D01*
X33762900Y-35762224D01*
X33762900Y-35887724D01*
X33715344Y-35889341D01*
X33714316Y-35889418D01*
X33664190Y-35895218D01*
X33662992Y-35895415D01*
X33620457Y-35904520D01*
X33619216Y-35904852D01*
X33582167Y-35916803D01*
X33581089Y-35917206D01*
X33547423Y-35931547D01*
X33546699Y-35931882D01*
X33514309Y-35948152D01*
X33514027Y-35948299D01*
X33480944Y-35965968D01*
X33444998Y-35984614D01*
X33404394Y-36003648D01*
X33364863Y-36019517D01*
X33168871Y-35789410D01*
X33406485Y-35602542D01*
X33439363Y-35623979D01*
G37*
%TD.AperFunction*%
%TD*%
D19*
%TO.N,/SS*%
X33672167Y-36563047D02*
X33637970Y-36576232D01*
X33635881Y-36577267D01*
X33601786Y-36598259D01*
X33599555Y-36600003D01*
X33574698Y-36624362D01*
X33572866Y-36626624D01*
X33555378Y-36654159D01*
X33554279Y-36656324D01*
X33542290Y-36686840D01*
X33541792Y-36688391D01*
X33533430Y-36721697D01*
X33533258Y-36722492D01*
X33526654Y-36758393D01*
X33526635Y-36758498D01*
X33519962Y-36796559D01*
X33511413Y-36836368D01*
X33501627Y-36869525D01*
X33199975Y-36875425D01*
X33214708Y-36570320D01*
X33258541Y-36557032D01*
X33303561Y-36543402D01*
X33343285Y-36531391D01*
X33379791Y-36520364D01*
X33415169Y-36509684D01*
X33451494Y-36498716D01*
X33451497Y-36498715D01*
X33490849Y-36486825D01*
X33490853Y-36486824D01*
X33535313Y-36473376D01*
X33535317Y-36473375D01*
X33586966Y-36457734D01*
X33586969Y-36457733D01*
X33635738Y-36442949D01*
X33672167Y-36563047D01*
%TA.AperFunction,Conductor*%
D18*
G36*
X33672167Y-36563047D02*
G01*
X33637970Y-36576232D01*
X33635881Y-36577267D01*
X33601786Y-36598259D01*
X33599555Y-36600003D01*
X33574698Y-36624362D01*
X33572866Y-36626624D01*
X33555378Y-36654159D01*
X33554279Y-36656324D01*
X33542290Y-36686840D01*
X33541792Y-36688391D01*
X33533430Y-36721697D01*
X33533258Y-36722492D01*
X33526654Y-36758393D01*
X33526635Y-36758498D01*
X33519962Y-36796559D01*
X33511413Y-36836368D01*
X33501627Y-36869525D01*
X33199975Y-36875425D01*
X33214708Y-36570320D01*
X33258541Y-36557032D01*
X33303561Y-36543402D01*
X33343285Y-36531391D01*
X33379791Y-36520364D01*
X33415169Y-36509684D01*
X33451494Y-36498716D01*
X33451497Y-36498715D01*
X33490849Y-36486825D01*
X33490853Y-36486824D01*
X33535313Y-36473376D01*
X33535317Y-36473375D01*
X33586966Y-36457734D01*
X33586969Y-36457733D01*
X33635738Y-36442949D01*
X33672167Y-36563047D01*
G37*
%TD.AperFunction*%
%TD*%
D19*
%TO.N,/MISO*%
X33856678Y-37850000D02*
X33638651Y-38059666D01*
X33597788Y-38039507D01*
X33556096Y-38018183D01*
X33519532Y-37998936D01*
X33485997Y-37981033D01*
X33485967Y-37981017D01*
X33453371Y-37963727D01*
X33453241Y-37963659D01*
X33419594Y-37946307D01*
X33419390Y-37946204D01*
X33382632Y-37928078D01*
X33382396Y-37927964D01*
X33340472Y-37908352D01*
X33340242Y-37908247D01*
X33291093Y-37886439D01*
X33290890Y-37886351D01*
X33244068Y-37866545D01*
X33292105Y-37750571D01*
X33328780Y-37762918D01*
X33330858Y-37763428D01*
X33372277Y-37769944D01*
X33374863Y-37770083D01*
X33411193Y-37768329D01*
X33413842Y-37767918D01*
X33446494Y-37759242D01*
X33448625Y-37758466D01*
X33479014Y-37744215D01*
X33480358Y-37743484D01*
X33509894Y-37725006D01*
X33510508Y-37724596D01*
X33540604Y-37703238D01*
X33540632Y-37703218D01*
X33572477Y-37680487D01*
X33607287Y-37657830D01*
X33638930Y-37640602D01*
X33856678Y-37850000D01*
%TA.AperFunction,Conductor*%
D18*
G36*
X33856678Y-37850000D02*
G01*
X33638651Y-38059666D01*
X33597788Y-38039507D01*
X33556096Y-38018183D01*
X33519532Y-37998936D01*
X33485997Y-37981033D01*
X33485967Y-37981017D01*
X33453371Y-37963727D01*
X33453241Y-37963659D01*
X33419594Y-37946307D01*
X33419390Y-37946204D01*
X33382632Y-37928078D01*
X33382396Y-37927964D01*
X33340472Y-37908352D01*
X33340242Y-37908247D01*
X33291093Y-37886439D01*
X33290890Y-37886351D01*
X33244068Y-37866545D01*
X33292105Y-37750571D01*
X33328780Y-37762918D01*
X33330858Y-37763428D01*
X33372277Y-37769944D01*
X33374863Y-37770083D01*
X33411193Y-37768329D01*
X33413842Y-37767918D01*
X33446494Y-37759242D01*
X33448625Y-37758466D01*
X33479014Y-37744215D01*
X33480358Y-37743484D01*
X33509894Y-37725006D01*
X33510508Y-37724596D01*
X33540604Y-37703238D01*
X33540632Y-37703218D01*
X33572477Y-37680487D01*
X33607287Y-37657830D01*
X33638930Y-37640602D01*
X33856678Y-37850000D01*
G37*
%TD.AperFunction*%
%TD*%
D19*
%TO.N,/MISO*%
X33959521Y-37961197D02*
X33940663Y-37997395D01*
X33918502Y-38034997D01*
X33897351Y-38068378D01*
X33877655Y-38099400D01*
X33877401Y-38099818D01*
X33859664Y-38130290D01*
X33859201Y-38131162D01*
X33843812Y-38163072D01*
X33843294Y-38164309D01*
X33830645Y-38199642D01*
X33830235Y-38201032D01*
X33820716Y-38241772D01*
X33820480Y-38243092D01*
X33814483Y-38291227D01*
X33814394Y-38292337D01*
X33812752Y-38337611D01*
X33687248Y-38337611D01*
X33685605Y-38292336D01*
X33685516Y-38291227D01*
X33679519Y-38243092D01*
X33679283Y-38241772D01*
X33669764Y-38201032D01*
X33669354Y-38199642D01*
X33656705Y-38164309D01*
X33656187Y-38163072D01*
X33640798Y-38131162D01*
X33640335Y-38130290D01*
X33622598Y-38099818D01*
X33622344Y-38099400D01*
X33602648Y-38068378D01*
X33581497Y-38034997D01*
X33559336Y-37997395D01*
X33540479Y-37961198D01*
X33750000Y-37743322D01*
X33959521Y-37961197D01*
%TA.AperFunction,Conductor*%
D18*
G36*
X33959521Y-37961197D02*
G01*
X33940663Y-37997395D01*
X33918502Y-38034997D01*
X33897351Y-38068378D01*
X33877655Y-38099400D01*
X33877401Y-38099818D01*
X33859664Y-38130290D01*
X33859201Y-38131162D01*
X33843812Y-38163072D01*
X33843294Y-38164309D01*
X33830645Y-38199642D01*
X33830235Y-38201032D01*
X33820716Y-38241772D01*
X33820480Y-38243092D01*
X33814483Y-38291227D01*
X33814394Y-38292337D01*
X33812752Y-38337611D01*
X33687248Y-38337611D01*
X33685605Y-38292336D01*
X33685516Y-38291227D01*
X33679519Y-38243092D01*
X33679283Y-38241772D01*
X33669764Y-38201032D01*
X33669354Y-38199642D01*
X33656705Y-38164309D01*
X33656187Y-38163072D01*
X33640798Y-38131162D01*
X33640335Y-38130290D01*
X33622598Y-38099818D01*
X33622344Y-38099400D01*
X33602648Y-38068378D01*
X33581497Y-38034997D01*
X33559336Y-37997395D01*
X33540479Y-37961198D01*
X33750000Y-37743322D01*
X33959521Y-37961197D01*
G37*
%TD.AperFunction*%
%TD*%
M02*
